<?xml version="1.0" encoding="iso-8859-1"?>
<!-- Generator: Adobe Illustrator 19.0.0, SVG Export Plug-In . SVG Version: 6.00 Build 0)  -->
<svg version="1.1" id="Capa_1" xmlns="http://www.w3.org/2000/svg" xmlns:xlink="http://www.w3.org/1999/xlink" x="0px" y="0px"
	 viewBox="0 0 512.006 512.006" style="enable-background:new 0 0 512.006 512.006;" xml:space="preserve">
<g>
	<g>
		<path d="M495.515,16.044c-21.035-21.056-57.728-21.035-78.741,0L45.787,386.86c-1.984,2.005-3.115,4.736-3.115,7.552
			s1.131,5.525,3.115,7.552l64,64c2.091,2.069,4.821,3.115,7.552,3.115c0.064,0,0.149,0,0.213,0
			c4.309,0.149,8.469-2.688,10.091-6.656c10.475-11.883,75.627-78.549,367.851-367.296c10.603-10.496,16.469-24.469,16.512-39.381
			C512.048,40.812,506.245,26.753,495.515,16.044z M480.496,79.959C220.208,337.196,141.147,416.492,117.147,443.137l-48.725-48.725
			L431.856,31.127c12.971-12.971,35.435-13.141,48.725,0.149c6.528,6.528,10.112,15.189,10.091,24.405
			C490.651,64.855,487.045,73.495,480.496,79.959z"/>
	</g>
</g>
<g>
	<g>
		<path d="M434.203,184.215L316.869,66.881c-4.16-4.16-10.923-4.16-15.083,0c-4.16,4.16-4.16,10.923,0,15.083L419.12,199.297
			c2.091,2.069,4.821,3.115,7.552,3.115s5.461-1.045,7.531-3.115C438.363,195.137,438.363,188.375,434.203,184.215z"/>
	</g>
</g>
<g>
	<g>
		<path d="M316.869,66.881c-4.16-4.16-10.923-4.16-15.083,0L152.453,216.215c-4.16,4.16-4.16,10.923,0,15.083
			c2.091,2.069,4.821,3.115,7.552,3.115s5.461-1.045,7.531-3.115L316.869,81.964C321.029,77.804,321.029,71.041,316.869,66.881z"/>
	</g>
</g>
<g>
	<g>
		<path d="M60.869,450.881c-4.16-4.16-10.923-4.16-15.083,0L3.12,493.548c-4.16,4.16-4.16,10.923,0,15.083
			c2.091,2.069,4.821,3.115,7.552,3.115c2.731,0,5.461-1.045,7.531-3.115l42.667-42.667
			C65.029,461.804,65.029,455.041,60.869,450.881z"/>
	</g>
</g>
<g>
	<g>
		<path d="M114.203,440.215l-42.667-42.667c-4.16-4.16-10.923-4.16-15.083,0l-32,32c-4.16,4.16-4.16,10.923,0,15.083l42.667,42.667
			c2.091,2.069,4.821,3.115,7.552,3.115c2.731,0,5.461-1.045,7.531-3.115l32-32C118.363,451.137,118.363,444.375,114.203,440.215z
			 M74.672,464.663l-27.584-27.584l16.917-16.917l27.584,27.584L74.672,464.663z"/>
	</g>
</g>
<g>
</g>
<g>
</g>
<g>
</g>
<g>
</g>
<g>
</g>
<g>
</g>
<g>
</g>
<g>
</g>
<g>
</g>
<g>
</g>
<g>
</g>
<g>
</g>
<g>
</g>
<g>
</g>
<g>
</g>
</svg>
