<?xml version="1.0" encoding="iso-8859-1"?>
<!-- Generator: Adobe Illustrator 19.0.0, SVG Export Plug-In . SVG Version: 6.00 Build 0)  -->
<svg version="1.1" id="Capa_1" xmlns="http://www.w3.org/2000/svg" xmlns:xlink="http://www.w3.org/1999/xlink" x="0px" y="0px"
	 viewBox="0 0 512 512" style="enable-background:new 0 0 512 512;" xml:space="preserve">
<g>
	<g>
		<path d="M288.32,42.667h-0.235c-5.867,0-10.539,4.779-10.539,10.667S282.432,64,288.32,64s10.667-4.779,10.667-10.667
			S294.187,42.667,288.32,42.667z"/>
	</g>
</g>
<g>
	<g>
		<path d="M288.32,85.333h-0.235c-5.867,0-10.539,4.779-10.539,10.667s4.885,10.667,10.773,10.667s10.667-4.779,10.667-10.667
			S294.187,85.333,288.32,85.333z"/>
	</g>
</g>
<g>
	<g>
		<path d="M309.653,21.333h-0.235c-5.867,0-10.539,4.779-10.539,10.667s4.885,10.667,10.773,10.667S320.32,37.888,320.32,32
			S315.52,21.333,309.653,21.333z"/>
	</g>
</g>
<g>
	<g>
		<path d="M309.653,64h-0.235c-5.867,0-10.539,4.779-10.539,10.667s4.885,10.667,10.773,10.667s10.667-4.779,10.667-10.667
			S315.52,64,309.653,64z"/>
	</g>
</g>
<g>
	<g>
		<path d="M266.987,64h-0.235c-5.867,0-10.539,4.779-10.539,10.667s4.885,10.667,10.773,10.667s10.667-4.779,10.667-10.667
			S272.853,64,266.987,64z"/>
	</g>
</g>
<g>
	<g>
		<path d="M309.653,106.667h-0.235c-5.867,0-10.539,4.779-10.539,10.667S303.765,128,309.653,128s10.667-4.779,10.667-10.667
			S315.52,106.667,309.653,106.667z"/>
	</g>
</g>
<g>
	<g>
		<path d="M330.987,42.667h-0.235c-5.867,0-10.539,4.779-10.539,10.667S325.099,64,330.987,64s10.667-4.779,10.667-10.667
			S336.853,42.667,330.987,42.667z"/>
	</g>
</g>
<g>
	<g>
		<path d="M352.32,0h-0.235c-5.867,0-10.539,4.779-10.539,10.667s4.885,10.667,10.773,10.667s10.667-4.779,10.667-10.667
			S358.187,0,352.32,0z"/>
	</g>
</g>
<g>
	<g>
		<path d="M330.987,85.333h-0.235c-5.867,0-10.539,4.779-10.539,10.667s4.885,10.667,10.773,10.667s10.667-4.779,10.667-10.667
			S336.853,85.333,330.987,85.333z"/>
	</g>
</g>
<g>
	<g>
		<path d="M352.32,128h-0.235c-5.867,0-10.539,4.779-10.539,10.667s4.885,10.667,10.773,10.667s10.667-4.779,10.667-10.667
			S358.187,128,352.32,128z"/>
	</g>
</g>
<g>
	<g>
		<path d="M373.653,64h-0.235c-5.867,0-10.539,4.779-10.539,10.667s4.885,10.667,10.773,10.667c5.888,0,10.667-4.779,10.667-10.667
			S379.52,64,373.653,64z"/>
	</g>
</g>
<g>
	<g>
		<path d="M394.987,170.667h-0.235c-5.867,0-10.539,4.779-10.539,10.667S389.099,192,394.987,192s10.667-4.779,10.667-10.667
			S400.853,170.667,394.987,170.667z"/>
	</g>
</g>
<g>
	<g>
		<path d="M458.987,64h-0.235c-5.867,0-10.539,4.779-10.539,10.667s4.885,10.667,10.773,10.667s10.667-4.779,10.667-10.667
			S464.853,64,458.987,64z"/>
	</g>
</g>
<g>
	<g>
		<path d="M458.987,0h-0.235c-5.867,0-10.539,4.779-10.539,10.667s4.885,10.667,10.773,10.667s10.667-4.779,10.667-10.667
			S464.853,0,458.987,0z"/>
	</g>
</g>
<g>
	<g>
		<path d="M458.987,128h-0.235c-5.867,0-10.539,4.779-10.539,10.667s4.885,10.667,10.773,10.667s10.667-4.779,10.667-10.667
			S464.853,128,458.987,128z"/>
	</g>
</g>
<g>
	<g>
		<path d="M458.987,192h-0.235c-5.867,0-10.539,4.779-10.539,10.667s4.885,10.667,10.773,10.667s10.667-4.779,10.667-10.667
			S464.853,192,458.987,192z"/>
	</g>
</g>
<g>
	<g>
		<path d="M416.32,21.333h-0.235c-5.867,0-10.539,4.779-10.539,10.667s4.885,10.667,10.773,10.667S426.987,37.888,426.987,32
			S422.187,21.333,416.32,21.333z"/>
	</g>
</g>
<g>
	<g>
		<path d="M416.32,85.333h-0.235c-5.867,0-10.539,4.779-10.539,10.667s4.885,10.667,10.773,10.667s10.667-4.779,10.667-10.667
			S422.187,85.333,416.32,85.333z"/>
	</g>
</g>
<g>
	<g>
		<path d="M394.987,128h-0.235c-5.867,0-10.539,4.779-10.539,10.667s4.885,10.667,10.773,10.667s10.667-4.779,10.667-10.667
			S400.853,128,394.987,128z"/>
	</g>
</g>
<g>
	<g>
		<path d="M181.013,106.667c-5.888,0-10.667,4.779-10.667,10.667v32h-21.333v-32c0-5.888-4.779-10.667-10.667-10.667
			s-10.667,4.779-10.667,10.667V160c0,5.888,4.779,10.667,10.667,10.667h42.667c5.888,0,10.667-4.779,10.667-10.667v-42.667
			C191.68,111.445,186.901,106.667,181.013,106.667z"/>
	</g>
</g>
<g>
	<g>
		<path d="M223.68,149.333h-128c-29.419,0-53.333,23.936-53.333,53.333v256C42.347,488.064,66.261,512,95.68,512h128
			c29.419,0,53.333-23.936,53.333-53.333v-256C277.013,173.269,253.099,149.333,223.68,149.333z M255.68,458.667
			c0,17.643-14.357,32-32,32h-128c-17.643,0-32-14.357-32-32v-256c0-17.643,14.357-32,32-32h128c17.643,0,32,14.357,32,32V458.667z"
			/>
	</g>
</g>
<g>
	<g>
		<path d="M202.347,21.333H159.68c-29.419,0-53.333,23.936-53.333,53.333v42.667c0,5.888,4.779,10.667,10.667,10.667h85.333
			c5.888,0,10.667-4.779,10.667-10.667V32C213.013,26.112,208.235,21.333,202.347,21.333z M191.68,106.667h-64v-32
			c0-17.643,14.357-32,32-32h32V106.667z"/>
	</g>
</g>
<g>
	<g>
		<path d="M266.347,256H53.013c-5.888,0-10.667,4.779-10.667,10.667v128c0,5.888,4.779,10.667,10.667,10.667h213.333
			c5.888,0,10.667-4.779,10.667-10.667v-128C277.013,260.779,272.235,256,266.347,256z M255.68,384h-192V277.333h192V384z"/>
	</g>
</g>
<g>
</g>
<g>
</g>
<g>
</g>
<g>
</g>
<g>
</g>
<g>
</g>
<g>
</g>
<g>
</g>
<g>
</g>
<g>
</g>
<g>
</g>
<g>
</g>
<g>
</g>
<g>
</g>
<g>
</g>
</svg>
