<?xml version="1.0" encoding="iso-8859-1"?>
<!-- Generator: Adobe Illustrator 19.0.0, SVG Export Plug-In . SVG Version: 6.00 Build 0)  -->
<svg version="1.1" id="Capa_1" xmlns="http://www.w3.org/2000/svg" xmlns:xlink="http://www.w3.org/1999/xlink" x="0px" y="0px"
	 viewBox="0 0 512.018 512.018" style="enable-background:new 0 0 512.018 512.018;" xml:space="preserve">
<g>
	<g>
		<path d="M309.342,490.668h-288V192.001h181.333c5.888,0,10.667-4.779,10.667-10.667s-4.779-10.667-10.667-10.667h-192
			c-5.888,0-10.667,4.779-10.667,10.667v320c0,5.888,4.779,10.667,10.667,10.667h298.667c5.888,0,10.667-4.779,10.667-10.667
			C320.009,495.446,315.23,490.668,309.342,490.668z"/>
	</g>
</g>
<g>
	<g>
		<path d="M510.644,176.065c-1.899-3.328-5.461-5.397-9.301-5.397H202.676c-3.755,0-7.232,1.963-9.152,5.184l-192,320
			c-1.984,3.307-2.027,7.403-0.149,10.752c1.899,3.328,5.461,5.397,9.301,5.397h298.667c3.755,0,7.232-1.963,9.152-5.184l192-320
			C512.478,183.51,512.521,179.414,510.644,176.065z M303.305,490.668H29.513l179.2-298.667h273.792L303.305,490.668z"/>
	</g>
</g>
<g>
	<g>
		<path d="M423.561,67.137l-64-64c-4.16-4.16-10.923-4.16-15.083,0c-4.16,4.16-4.16,10.923,0,15.083l45.781,45.781H96.009
			c-5.888,0-10.667,4.779-10.667,10.667s4.779,10.667,10.667,10.667h320c4.309,0,8.192-2.581,9.856-6.571
			C427.529,74.774,426.612,70.188,423.561,67.137z"/>
	</g>
</g>
<g>
	<g>
		<path d="M423.54,67.137c-4.16-4.16-10.923-4.16-15.083,0l-64,64c-4.16,4.16-4.16,10.923,0,15.083
			c2.091,2.069,4.821,3.115,7.552,3.115c2.731,0,5.461-1.045,7.531-3.115l64-64C427.7,78.06,427.7,71.297,423.54,67.137z"/>
	</g>
</g>
<g>
</g>
<g>
</g>
<g>
</g>
<g>
</g>
<g>
</g>
<g>
</g>
<g>
</g>
<g>
</g>
<g>
</g>
<g>
</g>
<g>
</g>
<g>
</g>
<g>
</g>
<g>
</g>
<g>
</g>
</svg>
