<?xml version="1.0" encoding="iso-8859-1"?>
<!-- Generator: Adobe Illustrator 19.0.0, SVG Export Plug-In . SVG Version: 6.00 Build 0)  -->
<svg version="1.1" id="Capa_1" xmlns="http://www.w3.org/2000/svg" xmlns:xlink="http://www.w3.org/1999/xlink" x="0px" y="0px"
	 viewBox="0 0 490.667 490.667" style="enable-background:new 0 0 490.667 490.667;" xml:space="preserve">
<g>
	<g>
		<path d="M457.6,255.979H448v-21.333h9.621c0.085,0,0.149,0,0.213,0c5.376-0.341,10.88-4.715,10.88-10.667
			c0-1.429-0.299-2.795-0.811-4.053C456.128,115.669,372.416,32.832,267.733,22.443c-2.965-0.213-5.973,0.704-8.213,2.709
			c-2.24,2.027-3.52,4.907-3.52,7.915v9.6h-21.333v-9.6c0-3.008-1.28-5.888-3.52-7.915c-2.24-2.005-5.184-2.944-8.213-2.709
			C117.248,32.939,32.939,117.248,22.443,222.933c-0.299,3.008,0.683,5.995,2.709,8.213c2.027,2.24,4.907,3.52,7.915,3.52h9.6V256
			h-9.6c-3.008,0-5.888,1.28-7.915,3.52c-2.027,2.24-3.008,5.205-2.709,8.213c10.496,105.685,94.805,189.995,200.491,200.491
			c3.051,0.277,5.995-0.683,8.213-2.709c2.24-2.027,3.52-4.907,3.52-7.915V448H256v9.6c0,3.008,1.28,5.888,3.52,7.915
			c1.963,1.771,4.501,2.752,7.147,2.752c0.363,0,0.704-0.021,1.067-0.064c105.685-10.496,189.995-94.805,200.491-200.491
			c0.299-3.008-0.683-5.995-2.709-8.213C463.488,257.259,460.608,255.979,457.6,255.979z M437.333,277.333h8.128
			c-13.675,86.187-81.941,154.432-168.128,168.128v-8.128c0-5.888-4.779-10.667-10.667-10.667H224
			c-5.888,0-10.667,4.779-10.667,10.667v8.128C127.147,431.787,58.901,363.52,45.205,277.333h8.128
			c5.888,0,10.667-4.779,10.667-10.667V224c0-5.888-4.779-10.667-10.667-10.667h-8.128C58.88,127.147,127.147,58.88,213.333,45.205
			v8.128C213.333,59.221,218.112,64,224,64h42.667c5.888,0,10.667-4.779,10.667-10.667v-8.128
			c86.187,13.675,154.453,81.941,168.128,168.128h-8.128c-5.888,0-10.667,4.779-10.667,10.667v42.667
			C426.667,272.555,431.445,277.333,437.333,277.333z"/>
	</g>
</g>
<g>
	<g>
		<path d="M266.667,0H224c-5.888,0-10.667,4.779-10.667,10.667v42.667C213.333,59.221,218.112,64,224,64h42.667
			c5.888,0,10.667-4.779,10.667-10.667V10.667C277.333,4.779,272.555,0,266.667,0z M256,42.667h-21.333V21.333H256V42.667z"/>
	</g>
</g>
<g>
	<g>
		<path d="M53.333,213.333H10.667C4.779,213.333,0,218.112,0,224v42.667c0,5.888,4.779,10.667,10.667,10.667h42.667
			c5.888,0,10.667-4.779,10.667-10.667V224C64,218.112,59.221,213.333,53.333,213.333z M42.667,256H21.333v-21.333h21.333V256z"/>
	</g>
</g>
<g>
	<g>
		<path d="M480,213.333h-42.667c-5.888,0-10.667,4.779-10.667,10.667v42.667c0,5.888,4.779,10.667,10.667,10.667H480
			c5.888,0,10.667-4.779,10.667-10.667V224C490.667,218.112,485.888,213.333,480,213.333z M469.333,256H448v-21.333h21.333V256z"/>
	</g>
</g>
<g>
	<g>
		<path d="M266.667,426.667H224c-5.888,0-10.667,4.779-10.667,10.667V480c0,5.888,4.779,10.667,10.667,10.667h42.667
			c5.888,0,10.667-4.779,10.667-10.667v-42.667C277.333,431.445,272.555,426.667,266.667,426.667z M256,469.333h-21.333V448H256
			V469.333z"/>
	</g>
</g>
<g>
</g>
<g>
</g>
<g>
</g>
<g>
</g>
<g>
</g>
<g>
</g>
<g>
</g>
<g>
</g>
<g>
</g>
<g>
</g>
<g>
</g>
<g>
</g>
<g>
</g>
<g>
</g>
<g>
</g>
</svg>
