<?xml version="1.0" encoding="iso-8859-1"?>
<!-- Generator: Adobe Illustrator 19.0.0, SVG Export Plug-In . SVG Version: 6.00 Build 0)  -->
<svg version="1.1" id="Capa_1" xmlns="http://www.w3.org/2000/svg" xmlns:xlink="http://www.w3.org/1999/xlink" x="0px" y="0px"
	 viewBox="0 0 512 512" style="enable-background:new 0 0 512 512;" xml:space="preserve">
<g>
	<g>
		<path d="M501.333,0H160c-5.888,0-10.667,4.779-10.667,10.667V352c0,5.888,4.779,10.667,10.667,10.667h341.333
			c5.888,0,10.667-4.779,10.667-10.667V10.667C512,4.779,507.221,0,501.333,0z M490.667,341.333h-320v-320h320V341.333z"/>
	</g>
</g>
<g>
	<g>
		<path d="M266.667,341.333c-5.888,0-10.667,4.779-10.667,10.667v138.667H21.333V256H160c5.888,0,10.667-4.779,10.667-10.667
			s-4.779-10.667-10.667-10.667H10.667C4.779,234.667,0,239.445,0,245.333v256C0,507.221,4.779,512,10.667,512h256
			c5.888,0,10.667-4.779,10.667-10.667V352C277.333,346.112,272.555,341.333,266.667,341.333z"/>
	</g>
</g>
<g>
	<g>
		<path d="M441.408,64.832c-3.968-1.685-8.555-0.768-11.627,2.304L216.448,280.469c-4.16,4.16-4.16,10.923,0,15.083
			c2.091,2.069,4.821,3.115,7.552,3.115s5.461-1.045,7.552-3.136l195.115-195.115V160c0,5.888,4.779,10.667,10.667,10.667
			c5.888,0,10.667-4.779,10.667-10.667V74.667C448,70.357,445.397,66.453,441.408,64.832z"/>
	</g>
</g>
<g>
	<g>
		<path d="M437.333,64H352c-5.888,0-10.667,4.779-10.667,10.667S346.112,85.333,352,85.333h85.333
			c5.888,0,10.667-4.779,10.667-10.667S443.221,64,437.333,64z"/>
	</g>
</g>
<g>
	<g>
		<path d="M224,234.667h-21.333c-5.888,0-10.667,4.779-10.667,10.667S196.779,256,202.667,256H224
			c5.888,0,10.667-4.779,10.667-10.667S229.888,234.667,224,234.667z"/>
	</g>
</g>
<g>
	<g>
		<path d="M266.667,277.333c-5.888,0-10.667,4.779-10.667,10.667v21.333c0,5.888,4.779,10.667,10.667,10.667
			s10.667-4.779,10.667-10.667V288C277.333,282.112,272.555,277.333,266.667,277.333z"/>
	</g>
</g>
<g>
</g>
<g>
</g>
<g>
</g>
<g>
</g>
<g>
</g>
<g>
</g>
<g>
</g>
<g>
</g>
<g>
</g>
<g>
</g>
<g>
</g>
<g>
</g>
<g>
</g>
<g>
</g>
<g>
</g>
</svg>
