<?xml version="1.0" encoding="iso-8859-1"?>
<!-- Generator: Adobe Illustrator 19.0.0, SVG Export Plug-In . SVG Version: 6.00 Build 0)  -->
<svg version="1.1" id="Capa_1" xmlns="http://www.w3.org/2000/svg" xmlns:xlink="http://www.w3.org/1999/xlink" x="0px" y="0px"
	 viewBox="0 0 512.008 512.008" style="enable-background:new 0 0 512.008 512.008;" xml:space="preserve">
<g>
	<g>
		<path d="M458.667,64.004c-5.888,0-10.667,4.779-10.667,10.667v272.917L347.584,448.004H74.667
			c-5.888,0-10.667,4.779-10.667,10.667s4.779,10.667,10.667,10.667H352c2.837,0,5.547-1.131,7.552-3.115l106.667-106.667
			c1.984-2.005,3.115-4.715,3.115-7.552V74.671C469.333,68.783,464.555,64.004,458.667,64.004z"/>
	</g>
</g>
<g>
	<g>
		<path d="M509.995,4.441c-2.005-2.795-5.227-4.437-8.661-4.437H10.667C4.779,0.004,0,4.783,0,10.671v490.667
			c0,3.435,1.643,6.656,4.437,8.661c1.835,1.323,4.011,2.005,6.229,2.005c1.131,0,2.261-0.171,3.371-0.555l64-21.333
			c4.352-1.451,7.296-5.525,7.296-10.112V85.337H480c4.587,0,8.661-2.944,10.112-7.275l21.333-64
			C512.555,10.799,512,7.215,509.995,4.441z M472.32,64.004H74.667C68.779,64.004,64,68.783,64,74.671v397.632l-42.667,14.229
			V21.337h465.216L472.32,64.004z"/>
	</g>
</g>
<g>
	<g>
		<path d="M74.667,0.004C68.779,0.004,64,4.783,64,10.671v53.333H10.667C4.779,64.004,0,68.783,0,74.671s4.779,10.667,10.667,10.667
			h64c5.888,0,10.667-4.779,10.667-10.667v-64C85.333,4.783,80.555,0.004,74.667,0.004z"/>
	</g>
</g>
<g>
	<g>
		<path d="M74.667,448.004H53.333c-5.888,0-10.667,4.779-10.667,10.667s4.779,10.667,10.667,10.667h21.333
			c5.888,0,10.667-4.779,10.667-10.667S80.555,448.004,74.667,448.004z"/>
	</g>
</g>
<g>
	<g>
		<path d="M74.667,384.004H53.333c-5.888,0-10.667,4.779-10.667,10.667s4.779,10.667,10.667,10.667h21.333
			c5.888,0,10.667-4.779,10.667-10.667S80.555,384.004,74.667,384.004z"/>
	</g>
</g>
<g>
	<g>
		<path d="M74.667,320.004H53.333c-5.888,0-10.667,4.779-10.667,10.667s4.779,10.667,10.667,10.667h21.333
			c5.888,0,10.667-4.779,10.667-10.667S80.555,320.004,74.667,320.004z"/>
	</g>
</g>
<g>
	<g>
		<path d="M74.667,256.004H53.333c-5.888,0-10.667,4.779-10.667,10.667s4.779,10.667,10.667,10.667h21.333
			c5.888,0,10.667-4.779,10.667-10.667S80.555,256.004,74.667,256.004z"/>
	</g>
</g>
<g>
	<g>
		<path d="M74.667,192.004H53.333c-5.888,0-10.667,4.779-10.667,10.667s4.779,10.667,10.667,10.667h21.333
			c5.888,0,10.667-4.779,10.667-10.667S80.555,192.004,74.667,192.004z"/>
	</g>
</g>
<g>
	<g>
		<path d="M74.667,128.004H53.333c-5.888,0-10.667,4.779-10.667,10.667s4.779,10.667,10.667,10.667h21.333
			c5.888,0,10.667-4.779,10.667-10.667S80.555,128.004,74.667,128.004z"/>
	</g>
</g>
<g>
	<g>
		<path d="M138.667,42.671c-5.888,0-10.667,4.779-10.667,10.667v21.333c0,5.888,4.779,10.667,10.667,10.667
			s10.667-4.779,10.667-10.667V53.337C149.333,47.449,144.555,42.671,138.667,42.671z"/>
	</g>
</g>
<g>
	<g>
		<path d="M202.667,42.671c-5.888,0-10.667,4.779-10.667,10.667v21.333c0,5.888,4.779,10.667,10.667,10.667
			s10.667-4.779,10.667-10.667V53.337C213.333,47.449,208.555,42.671,202.667,42.671z"/>
	</g>
</g>
<g>
	<g>
		<path d="M266.667,42.671c-5.888,0-10.667,4.779-10.667,10.667v21.333c0,5.888,4.779,10.667,10.667,10.667
			s10.667-4.779,10.667-10.667V53.337C277.333,47.449,272.555,42.671,266.667,42.671z"/>
	</g>
</g>
<g>
	<g>
		<path d="M330.667,42.671c-5.888,0-10.667,4.779-10.667,10.667v21.333c0,5.888,4.779,10.667,10.667,10.667
			s10.667-4.779,10.667-10.667V53.337C341.333,47.449,336.555,42.671,330.667,42.671z"/>
	</g>
</g>
<g>
	<g>
		<path d="M394.667,42.671c-5.888,0-10.667,4.779-10.667,10.667v21.333c0,5.888,4.779,10.667,10.667,10.667
			s10.667-4.779,10.667-10.667V53.337C405.333,47.449,400.555,42.671,394.667,42.671z"/>
	</g>
</g>
<g>
	<g>
		<path d="M458.667,42.671c-5.888,0-10.667,4.779-10.667,10.667v21.333c0,5.888,4.779,10.667,10.667,10.667
			s10.667-4.779,10.667-10.667V53.337C469.333,47.449,464.555,42.671,458.667,42.671z"/>
	</g>
</g>
<g>
	<g>
		<path d="M458.667,341.337H352c-5.888,0-10.667,4.779-10.667,10.667v106.667c0,5.888,4.779,10.667,10.667,10.667
			c5.888,0,10.667-4.779,10.667-10.667v-96h96c5.888,0,10.667-4.779,10.667-10.667C469.333,346.116,464.555,341.337,458.667,341.337
			z"/>
	</g>
</g>
<g>
	<g>
		<path d="M138.667,256.004h-21.333c-5.888,0-10.667,4.779-10.667,10.667s4.779,10.667,10.667,10.667h21.333
			c5.888,0,10.667-4.779,10.667-10.667S144.555,256.004,138.667,256.004z"/>
	</g>
</g>
<g>
	<g>
		<path d="M202.667,256.004h-21.333c-5.888,0-10.667,4.779-10.667,10.667s4.779,10.667,10.667,10.667h21.333
			c5.888,0,10.667-4.779,10.667-10.667S208.555,256.004,202.667,256.004z"/>
	</g>
</g>
<g>
	<g>
		<path d="M266.667,234.671c-5.888,0-10.667,4.779-10.667,10.667v10.667h-10.667c-5.888,0-10.667,4.779-10.667,10.667
			s4.779,10.667,10.667,10.667h21.333c5.888,0,10.667-4.779,10.667-10.667v-21.333C277.333,239.449,272.555,234.671,266.667,234.671
			z"/>
	</g>
</g>
<g>
	<g>
		<path d="M266.667,170.671c-5.888,0-10.667,4.779-10.667,10.667v21.333c0,5.888,4.779,10.667,10.667,10.667
			s10.667-4.779,10.667-10.667v-21.333C277.333,175.449,272.555,170.671,266.667,170.671z"/>
	</g>
</g>
<g>
	<g>
		<path d="M266.667,106.671c-5.888,0-10.667,4.779-10.667,10.667v21.333c0,5.888,4.779,10.667,10.667,10.667
			s10.667-4.779,10.667-10.667v-21.333C277.333,111.449,272.555,106.671,266.667,106.671z"/>
	</g>
</g>
<g>
</g>
<g>
</g>
<g>
</g>
<g>
</g>
<g>
</g>
<g>
</g>
<g>
</g>
<g>
</g>
<g>
</g>
<g>
</g>
<g>
</g>
<g>
</g>
<g>
</g>
<g>
</g>
<g>
</g>
</svg>
