<?xml version="1.0" encoding="iso-8859-1"?>
<!-- Generator: Adobe Illustrator 19.0.0, SVG Export Plug-In . SVG Version: 6.00 Build 0)  -->
<svg version="1.1" id="Capa_1" xmlns="http://www.w3.org/2000/svg" xmlns:xlink="http://www.w3.org/1999/xlink" x="0px" y="0px"
	 viewBox="0 0 512.005 512.005" style="enable-background:new 0 0 512.005 512.005;" xml:space="preserve">
<g>
	<g>
		<path d="M508.872,493.786L18.206,3.119C15.155,0.09,10.59-0.849,6.6,0.815c-3.989,1.643-6.592,5.547-6.592,9.856v490.667
			c0,5.888,4.779,10.667,10.667,10.667h490.667c4.309,0,8.213-2.603,9.835-6.592C512.84,501.423,511.923,496.837,508.872,493.786z
			 M21.342,490.671V36.421l454.251,454.251H21.342z"/>
	</g>
</g>
<g>
	<g>
		<path d="M293.982,406.874L103.56,216.453c-3.051-3.029-7.616-3.968-11.627-2.304c-3.989,1.643-6.592,5.547-6.592,9.856v192
			c0,5.888,4.779,10.667,10.667,10.667h192c0.149,0,0.299,0,0.427,0c5.888,0,10.667-4.779,10.667-10.688
			C299.102,412.122,297.054,408.751,293.982,406.874z M106.675,405.338V249.754l155.584,155.584H106.675z"/>
	</g>
</g>
<g>
	<g>
		<path d="M74.675,469.338c-5.888,0-10.667,4.779-10.667,10.667v21.333c0,5.888,4.779,10.667,10.667,10.667
			s10.667-4.779,10.667-10.667v-21.333C85.342,474.117,80.563,469.338,74.675,469.338z"/>
	</g>
</g>
<g>
	<g>
		<path d="M138.675,448.005c-5.888,0-10.667,4.779-10.667,10.667v42.667c0,5.888,4.779,10.667,10.667,10.667
			s10.667-4.779,10.667-10.667v-42.667C149.342,452.783,144.563,448.005,138.675,448.005z"/>
	</g>
</g>
<g>
	<g>
		<path d="M202.675,469.338c-5.888,0-10.667,4.779-10.667,10.667v21.333c0,5.888,4.779,10.667,10.667,10.667
			s10.667-4.779,10.667-10.667v-21.333C213.342,474.117,208.563,469.338,202.675,469.338z"/>
	</g>
</g>
<g>
	<g>
		<path d="M266.675,448.005c-5.888,0-10.667,4.779-10.667,10.667v42.667c0,5.888,4.779,10.667,10.667,10.667
			s10.667-4.779,10.667-10.667v-42.667C277.342,452.783,272.563,448.005,266.675,448.005z"/>
	</g>
</g>
<g>
	<g>
		<path d="M330.675,469.338c-5.888,0-10.667,4.779-10.667,10.667v21.333c0,5.888,4.779,10.667,10.667,10.667
			s10.667-4.779,10.667-10.667v-21.333C341.342,474.117,336.563,469.338,330.675,469.338z"/>
	</g>
</g>
<g>
	<g>
		<path d="M394.675,448.005c-5.888,0-10.667,4.779-10.667,10.667v42.667c0,5.888,4.779,10.667,10.667,10.667
			s10.667-4.779,10.667-10.667v-42.667C405.342,452.783,400.563,448.005,394.675,448.005z"/>
	</g>
</g>
<g>
</g>
<g>
</g>
<g>
</g>
<g>
</g>
<g>
</g>
<g>
</g>
<g>
</g>
<g>
</g>
<g>
</g>
<g>
</g>
<g>
</g>
<g>
</g>
<g>
</g>
<g>
</g>
<g>
</g>
</svg>
