<?xml version="1.0" encoding="iso-8859-1"?>
<!-- Generator: Adobe Illustrator 19.0.0, SVG Export Plug-In . SVG Version: 6.00 Build 0)  -->
<svg version="1.1" id="Capa_1" xmlns="http://www.w3.org/2000/svg" xmlns:xlink="http://www.w3.org/1999/xlink" x="0px" y="0px"
	 viewBox="0 0 512 512" style="enable-background:new 0 0 512 512;" xml:space="preserve">
<g>
	<g>
		<path d="M153.749,448H160c23.531,0,42.667-19.136,42.667-42.667c0-23.531-19.136-42.667-42.667-42.667h-32
			c-5.888,0-10.667,4.779-10.667,10.667v63.915c0,0.043,0,0.107,0,0.149v63.936c0,5.888,4.779,10.667,10.667,10.667
			s10.667-4.779,10.667-10.667v-38.251l45.781,45.803c2.091,2.069,4.821,3.115,7.552,3.115s5.461-1.045,7.531-3.136
			c4.16-4.16,4.16-10.923,0-15.083L153.749,448z M138.667,384H160c11.776,0,21.333,9.579,21.333,21.333
			c0,11.755-9.557,21.333-21.333,21.333h-21.333V384z"/>
	</g>
</g>
<g>
	<g>
		<path d="M401.515,437.333c8.875-7.829,14.485-19.264,14.485-32c0-23.531-19.136-42.667-42.667-42.667h-32
			c-5.888,0-10.667,4.779-10.667,10.667v128c0,5.888,4.779,10.667,10.667,10.667h32C396.864,512,416,492.864,416,469.333
			C416,456.597,410.389,445.163,401.515,437.333z M373.333,490.667H352V448h21.333c11.776,0,21.333,9.579,21.333,21.333
			C394.667,481.088,385.109,490.667,373.333,490.667z M373.333,426.667H352V384h21.333c11.776,0,21.333,9.579,21.333,21.333
			C394.667,417.088,385.109,426.667,373.333,426.667z"/>
	</g>
</g>
<g>
	<g>
		<path d="M298.667,448h-21.333c-5.888,0-10.667,4.779-10.667,10.667s4.779,10.667,10.667,10.667H288
			c0,11.755-9.557,21.333-21.333,21.333c-11.776,0-21.333-9.579-21.333-21.333v-64c0-11.755,9.557-21.333,21.333-21.333
			c11.776,0,21.333,9.579,21.333,21.333c0,5.888,4.779,10.667,10.667,10.667s10.667-4.779,10.667-10.667
			c0-23.531-19.136-42.667-42.667-42.667c-23.531,0-42.667,19.136-42.667,42.667v64C224,492.864,243.136,512,266.667,512
			c23.531,0,42.667-19.136,42.667-42.667v-10.667C309.333,452.779,304.555,448,298.667,448z"/>
	</g>
</g>
<g>
	<g>
		<path d="M192,106.667c-64.683,0-117.333,52.629-117.333,117.333S127.317,341.333,192,341.333S309.333,288.704,309.333,224
			S256.683,106.667,192,106.667z M192,320c-52.928,0-96-43.072-96-96s43.072-96,96-96s96,43.072,96,96S244.928,320,192,320z"/>
	</g>
</g>
<g>
	<g>
		<path d="M320,106.667c-64.683,0-117.333,52.629-117.333,117.333S255.317,341.333,320,341.333S437.333,288.704,437.333,224
			S384.683,106.667,320,106.667z M320,320c-52.928,0-96-43.072-96-96s43.072-96,96-96c52.928,0,96,43.072,96,96S372.928,320,320,320
			z"/>
	</g>
</g>
<g>
	<g>
		<path d="M256,0c-64.683,0-117.333,52.629-117.333,117.333S191.317,234.667,256,234.667s117.333-52.629,117.333-117.333
			S320.683,0,256,0z M256,213.333c-52.928,0-96-43.072-96-96c0-52.928,43.072-96,96-96s96,43.072,96,96
			C352,170.261,308.928,213.333,256,213.333z"/>
	</g>
</g>
<g>
</g>
<g>
</g>
<g>
</g>
<g>
</g>
<g>
</g>
<g>
</g>
<g>
</g>
<g>
</g>
<g>
</g>
<g>
</g>
<g>
</g>
<g>
</g>
<g>
</g>
<g>
</g>
<g>
</g>
</svg>
