<?xml version="1.0" encoding="iso-8859-1"?>
<!-- Generator: Adobe Illustrator 19.0.0, SVG Export Plug-In . SVG Version: 6.00 Build 0)  -->
<svg version="1.1" id="Capa_1" xmlns="http://www.w3.org/2000/svg" xmlns:xlink="http://www.w3.org/1999/xlink" x="0px" y="0px"
	 viewBox="0 0 490.667 490.667" style="enable-background:new 0 0 490.667 490.667;" xml:space="preserve">
<g>
	<g>
		<path d="M352,277.333H10.667C4.779,277.333,0,282.112,0,288s4.779,10.667,10.667,10.667H352c5.888,0,10.667-4.779,10.667-10.667
			S357.888,277.333,352,277.333z"/>
	</g>
</g>
<g>
	<g>
		<path d="M309.333,405.333H138.667c-5.888,0-10.667,4.779-10.667,10.667s4.779,10.667,10.667,10.667h170.667
			c5.888,0,10.667-4.779,10.667-10.667S315.221,405.333,309.333,405.333z"/>
	</g>
</g>
<g>
	<g>
		<path d="M458.667,170.667h-85.333c-17.643,0-32,14.357-32,32v192c0,17.643,14.357,32,32,32h85.333c17.643,0,32-14.357,32-32v-192
			C490.667,185.024,476.309,170.667,458.667,170.667z M469.333,394.667c0,5.888-4.779,10.667-10.667,10.667h-85.333
			c-5.888,0-10.667-4.779-10.667-10.667v-192c0-5.888,4.779-10.667,10.667-10.667h85.333c5.888,0,10.667,4.779,10.667,10.667
			V394.667z"/>
	</g>
</g>
<g>
	<g>
		<path d="M480,213.333H352c-5.888,0-10.667,4.779-10.667,10.667s4.779,10.667,10.667,10.667h128
			c5.888,0,10.667-4.779,10.667-10.667S485.888,213.333,480,213.333z"/>
	</g>
</g>
<g>
	<g>
		<path d="M480,362.667H352c-5.888,0-10.667,4.779-10.667,10.667c0,5.888,4.779,10.667,10.667,10.667h128
			c5.888,0,10.667-4.779,10.667-10.667C490.667,367.445,485.888,362.667,480,362.667z"/>
	</g>
</g>
<g>
	<g>
		<path d="M394.667,64H53.333C23.936,64,0,87.936,0,117.333v192c0,29.397,23.936,53.333,53.333,53.333H352
			c5.888,0,10.667-4.779,10.667-10.667V202.667c0-5.888,4.779-10.667,10.667-10.667h64c5.888,0,10.667-4.779,10.667-10.667v-64
			C448,87.936,424.064,64,394.667,64z M426.667,170.667h-53.333c-17.643,0-32,14.357-32,32v138.667h-288c-17.643,0-32-14.357-32-32
			v-192c0-17.643,14.357-32,32-32h341.333c17.643,0,32,14.357,32,32V170.667z"/>
	</g>
</g>
<g>
	<g>
		<path d="M437.333,256h-42.667c-5.888,0-10.667,4.779-10.667,10.667s4.779,10.667,10.667,10.667h42.667
			c5.888,0,10.667-4.779,10.667-10.667S443.221,256,437.333,256z"/>
	</g>
</g>
<g>
	<g>
		<path d="M224,341.333c-5.888,0-10.667,4.779-10.667,10.667v64c0,5.888,4.779,10.667,10.667,10.667s10.667-4.779,10.667-10.667v-64
			C234.667,346.112,229.888,341.333,224,341.333z"/>
	</g>
</g>
<g>
	<g>
		<path d="M437.333,298.667h-42.667c-5.888,0-10.667,4.779-10.667,10.667S388.779,320,394.667,320h42.667
			c5.888,0,10.667-4.779,10.667-10.667S443.221,298.667,437.333,298.667z"/>
	</g>
</g>
<g>
	<g>
		<path d="M352,128H96c-5.888,0-10.667,4.779-10.667,10.667S90.112,149.333,96,149.333h256c5.888,0,10.667-4.779,10.667-10.667
			S357.888,128,352,128z"/>
	</g>
</g>
<g>
	<g>
		<path d="M309.333,192H96c-5.888,0-10.667,4.779-10.667,10.667S90.112,213.333,96,213.333h213.333
			c5.888,0,10.667-4.779,10.667-10.667S315.221,192,309.333,192z"/>
	</g>
</g>
<g>
</g>
<g>
</g>
<g>
</g>
<g>
</g>
<g>
</g>
<g>
</g>
<g>
</g>
<g>
</g>
<g>
</g>
<g>
</g>
<g>
</g>
<g>
</g>
<g>
</g>
<g>
</g>
<g>
</g>
</svg>
