<?xml version="1.0" encoding="iso-8859-1"?>
<!-- Generator: Adobe Illustrator 19.0.0, SVG Export Plug-In . SVG Version: 6.00 Build 0)  -->
<svg version="1.1" id="Capa_1" xmlns="http://www.w3.org/2000/svg" xmlns:xlink="http://www.w3.org/1999/xlink" x="0px" y="0px"
	 viewBox="0 0 490.667 490.667" style="enable-background:new 0 0 490.667 490.667;" xml:space="preserve">
<g>
	<g>
		<path d="M415.68,85.653c-99.456-99.456-238.443-99.477-337.899,0c-4.16,4.16-4.16,10.923,0,15.083c4.16,4.16,10.923,4.16,15.083,0
			c92.032-92.011,215.68-92.032,307.733,0c2.091,2.069,4.821,3.115,7.552,3.115c2.731,0,5.461-1.045,7.531-3.115
			C419.84,96.576,419.84,89.813,415.68,85.653z"/>
	</g>
</g>
<g>
	<g>
		<path d="M416,10.667c-5.888,0-10.667,4.779-10.667,10.667V96h-74.667C324.779,96,320,100.779,320,106.667
			s4.779,10.667,10.667,10.667H416c5.888,0,10.667-4.779,10.667-10.667V21.333C426.667,15.445,421.888,10.667,416,10.667z"/>
	</g>
</g>
<g>
	<g>
		<path d="M210.219,269.781l-192-192c-3.051-3.029-7.68-3.968-11.627-2.304C2.603,77.12,0,81.024,0,85.333v384
			c0,4.309,2.603,8.213,6.592,9.856C7.893,479.744,9.301,480,10.667,480c2.773,0,5.504-1.088,7.552-3.136l192-192
			C214.379,280.704,214.379,273.941,210.219,269.781z M21.333,443.584V111.083l166.251,166.251L21.333,443.584z"/>
	</g>
</g>
<g>
	<g>
		<path d="M484.075,75.499c-3.989-1.685-8.576-0.747-11.627,2.304l-192,192c-4.16,4.16-4.16,10.923,0,15.083l192,192
			c2.048,2.027,4.779,3.115,7.552,3.115c1.365,0,2.773-0.256,4.075-0.811c3.989-1.643,6.592-5.547,6.592-9.856v-384
			C490.667,81.024,488.064,77.12,484.075,75.499z M469.333,443.584L303.083,277.333l166.251-166.251V443.584z"/>
	</g>
</g>
<g>
	<g>
		<path d="M245.333,416c-5.888,0-10.667,4.779-10.667,10.667v42.667c0,5.888,4.779,10.667,10.667,10.667S256,475.221,256,469.333
			v-42.667C256,420.779,251.221,416,245.333,416z"/>
	</g>
</g>
<g>
	<g>
		<path d="M245.333,309.333c-5.888,0-10.667,4.779-10.667,10.667v42.667c0,5.888,4.779,10.667,10.667,10.667
			S256,368.555,256,362.667V320C256,314.112,251.221,309.333,245.333,309.333z"/>
	</g>
</g>
<g>
	<g>
		<path d="M245.333,202.667c-5.888,0-10.667,4.779-10.667,10.667V256c0,5.888,4.779,10.667,10.667,10.667S256,261.888,256,256
			v-42.667C256,207.445,251.221,202.667,245.333,202.667z"/>
	</g>
</g>
<g>
	<g>
		<path d="M245.333,96c-5.888,0-10.667,4.779-10.667,10.667v42.667c0,5.888,4.779,10.667,10.667,10.667S256,155.221,256,149.333
			v-42.667C256,100.779,251.221,96,245.333,96z"/>
	</g>
</g>
<g>
</g>
<g>
</g>
<g>
</g>
<g>
</g>
<g>
</g>
<g>
</g>
<g>
</g>
<g>
</g>
<g>
</g>
<g>
</g>
<g>
</g>
<g>
</g>
<g>
</g>
<g>
</g>
<g>
</g>
</svg>
