<?xml version="1.0" encoding="iso-8859-1"?>
<!-- Generator: Adobe Illustrator 19.0.0, SVG Export Plug-In . SVG Version: 6.00 Build 0)  -->
<svg version="1.1" id="Capa_1" xmlns="http://www.w3.org/2000/svg" xmlns:xlink="http://www.w3.org/1999/xlink" x="0px" y="0px"
	 viewBox="0 0 512 512" style="enable-background:new 0 0 512 512;" xml:space="preserve">
<g>
	<g>
		<path d="M469.333,298.667H42.667c-17.643,0-32,14.357-32,32c0,17.643,14.357,32,32,32h426.667c17.643,0,32-14.357,32-32
			C501.333,313.024,486.976,298.667,469.333,298.667z M469.333,341.333H42.667c-5.888,0-10.667-4.779-10.667-10.667
			S36.779,320,42.667,320h426.667c5.888,0,10.667,4.779,10.667,10.667S475.221,341.333,469.333,341.333z"/>
	</g>
</g>
<g>
	<g>
		<path d="M469.333,42.667H298.667c-5.888,0-10.667,4.779-10.667,10.667S283.221,64,277.333,64h-42.667
			C228.779,64,224,59.221,224,53.333s-4.779-10.667-10.667-10.667H42.667C36.779,42.667,32,47.445,32,53.333v256
			C32,315.221,36.779,320,42.667,320h426.667c5.888,0,10.667-4.779,10.667-10.667v-256C480,47.445,475.221,42.667,469.333,42.667z
			 M458.667,298.667H53.333V64H204.48c4.416,12.416,16.277,21.333,30.187,21.333h42.667c13.909,0,25.771-8.917,30.187-21.333
			h151.147V298.667z"/>
	</g>
</g>
<g>
	<g>
		<path d="M277.333,21.333h-42.667c-17.643,0-32,14.357-32,32c0,17.643,14.357,32,32,32h42.667c17.643,0,32-14.357,32-32
			C309.333,35.691,294.976,21.333,277.333,21.333z M277.333,64h-42.667C228.779,64,224,59.221,224,53.333
			s4.779-10.667,10.667-10.667h42.667c5.888,0,10.667,4.779,10.667,10.667S283.221,64,277.333,64z"/>
	</g>
</g>
<g>
	<g>
		<path d="M218.112,342.443c-5.291-2.603-11.669-0.491-14.315,4.779l-64,128c-2.624,5.269-0.491,11.669,4.779,14.315
			c1.536,0.768,3.157,1.131,4.757,1.131c3.904,0,7.659-2.155,9.557-5.909l64-128C225.515,351.488,223.381,345.088,218.112,342.443z"
			/>
	</g>
</g>
<g>
	<g>
		<path d="M372.203,475.243l-64-128c-2.645-5.269-9.045-7.381-14.315-4.779c-5.269,2.645-7.424,9.045-4.779,14.315l64,128
			c1.877,3.733,5.632,5.888,9.557,5.888c1.621,0,3.243-0.363,4.757-1.109C372.693,486.912,374.848,480.512,372.203,475.243z"/>
	</g>
</g>
<g>
	<g>
		<path d="M256,341.333c-5.888,0-10.667,4.779-10.667,10.667v149.333c0,5.888,4.779,10.667,10.667,10.667
			c5.888,0,10.667-4.779,10.667-10.667V352C266.667,346.112,261.888,341.333,256,341.333z"/>
	</g>
</g>
<g>
	<g>
		<path d="M256,0c-5.888,0-10.667,4.779-10.667,10.667V32c0,5.888,4.779,10.667,10.667,10.667c5.888,0,10.667-4.779,10.667-10.667
			V10.667C266.667,4.779,261.888,0,256,0z"/>
	</g>
</g>
<g>
</g>
<g>
</g>
<g>
</g>
<g>
</g>
<g>
</g>
<g>
</g>
<g>
</g>
<g>
</g>
<g>
</g>
<g>
</g>
<g>
</g>
<g>
</g>
<g>
</g>
<g>
</g>
<g>
</g>
</svg>
