<?xml version="1.0" encoding="iso-8859-1"?>
<!-- Generator: Adobe Illustrator 19.0.0, SVG Export Plug-In . SVG Version: 6.00 Build 0)  -->
<svg version="1.1" id="Capa_1" xmlns="http://www.w3.org/2000/svg" xmlns:xlink="http://www.w3.org/1999/xlink" x="0px" y="0px"
	 viewBox="0 0 512 512" style="enable-background:new 0 0 512 512;" xml:space="preserve">
<g>
	<g>
		<path d="M444.885,227.117l-192-192c-4.16-4.16-10.923-4.16-15.083,0L34.368,238.552C12.203,260.717,0,290.179,0,321.517
			c0,31.339,12.203,60.8,34.368,82.965l41.152,41.152c22.144,22.165,51.627,34.368,82.965,34.368
			c31.339,0,60.8-12.203,82.965-34.368L444.885,242.2C449.045,238.04,449.045,231.277,444.885,227.117z M226.368,430.552
			c-18.133,18.133-42.24,28.117-67.883,28.117c-25.643,0-49.749-9.984-67.883-28.117L49.451,389.4
			c-18.133-18.133-28.117-42.24-28.117-67.883c0-25.643,9.984-49.749,28.117-67.883L245.333,57.752l176.917,176.917L226.368,430.552
			z"/>
	</g>
</g>
<g>
	<g>
		<path d="M288,74.669c-5.888,0-10.667,4.779-10.667,10.667S282.112,96.003,288,96.003c119.317,0,202.667,74.56,202.667,181.333
			c0,27.947-12.245,63.616-20.757,76.864c-0.256-1.088-0.469-2.347-0.704-3.819c-3.755-24.384-14.72-33.963-23.531-41.664
			c-10.197-8.896-19.008-16.597-19.008-52.715c0-5.888-4.779-10.667-10.667-10.667c-5.888,0-10.667,4.779-10.667,10.667
			c0,42.453,11.413,55.787,26.325,68.779c8.064,7.061,13.888,12.16,16.469,28.843c3.285,21.397,12.181,26.261,19.563,26.261
			c0.469,0,0.896-0.021,1.344-0.043C493.419,377.965,512,310.424,512,277.336C512,159.896,417.792,74.669,288,74.669z"/>
	</g>
</g>
<g>
	<g>
		<path d="M499.712,398.253c-8.405-9.536-17.579-31.595-20.416-39.275c-1.472-3.989-5.163-6.72-9.408-6.955
			c-4.587-0.384-8.235,2.069-10.133,5.867c-4.459,8.875-17.173,33.579-22.357,41.131c-14.592,21.227-14.315,48.277,1.152,66.325
			c8.107,9.451,19.029,14.656,30.741,14.656c11.712,0,22.635-5.205,30.763-14.656C516.032,446.701,515.883,416.6,499.712,398.253z
			 M483.84,451.459c-7.979,9.28-20.672,9.835-29.568-0.533c-9.707-11.349-6.997-28.608,0.704-39.808
			c3.371-4.885,8.661-14.485,13.419-23.467c4.224,8.704,9.557,18.176,15.296,24.704C492.949,422.851,493.013,440.771,483.84,451.459
			z"/>
	</g>
</g>
<g>
	<g>
		<path d="M388.629,170.883c-4.16-4.16-10.923-4.16-15.083,0c-34.24,34.261-79.787,53.12-128.213,53.12
			c-48.427,0-93.973-18.88-128.213-53.12c-4.16-4.16-10.923-4.16-15.083,0c-4.16,4.16-4.16,10.923,0,15.083
			c38.272,38.293,89.152,59.371,143.296,59.371c54.144,0,105.024-21.077,143.296-59.371
			C392.789,181.805,392.789,175.043,388.629,170.883z"/>
	</g>
</g>
<g>
</g>
<g>
</g>
<g>
</g>
<g>
</g>
<g>
</g>
<g>
</g>
<g>
</g>
<g>
</g>
<g>
</g>
<g>
</g>
<g>
</g>
<g>
</g>
<g>
</g>
<g>
</g>
<g>
</g>
</svg>
