<?xml version="1.0" encoding="iso-8859-1"?>
<!-- Generator: Adobe Illustrator 19.0.0, SVG Export Plug-In . SVG Version: 6.00 Build 0)  -->
<svg version="1.1" id="Capa_1" xmlns="http://www.w3.org/2000/svg" xmlns:xlink="http://www.w3.org/1999/xlink" x="0px" y="0px"
	 viewBox="0 0 512.009 512.009" style="enable-background:new 0 0 512.009 512.009;" xml:space="preserve">
<g>
	<g>
		<path d="M316.873,280.107l-85.333-85.333c-4.16-4.16-10.923-4.16-15.083,0L58.292,352.939
			c-10.069,10.069-15.616,23.467-15.616,37.717v12.075c0,6.336-1.856,12.48-5.397,17.771L1.78,473.75
			c-2.795,4.224-2.261,9.877,1.344,13.461l21.333,21.333c2.069,2.048,4.8,3.115,7.552,3.115c2.048,0,4.096-0.576,5.909-1.792
			l53.248-35.541c5.269-3.499,11.392-5.355,17.749-5.355h9.813c14.635,0,28.736-6.059,38.699-16.64
			c37.184-39.552,158.08-155.84,159.296-157.013c2.048-1.984,3.243-4.715,3.264-7.573
			C320.009,284.886,318.9,282.134,316.873,280.107z M141.918,437.718c-6.016,6.4-14.251,9.92-23.168,9.92h-9.813
			c-10.581,0-20.821,3.115-29.589,8.96l-45.973,30.656l-8.96-8.96l30.635-45.973c5.845-8.789,8.96-19.008,8.96-29.568v-12.075
			c0-8.555,3.328-16.597,9.365-22.635l150.635-150.635l70.123,70.08C266.547,314.112,173.897,403.734,141.918,437.718z"/>
	</g>
</g>
<g>
	<g>
		<path d="M380.873,258.795l-128-128c-4.16-4.16-10.923-4.16-15.083,0l-42.667,42.667c-4.16,4.16-4.16,10.923,0,15.083l128,128
			c2.091,2.069,4.821,3.115,7.552,3.115c2.731,0,5.461-1.045,7.531-3.115l42.667-42.667
			C385.033,269.718,385.033,262.955,380.873,258.795z M330.676,293.91L217.758,180.992l27.584-27.584L358.26,266.326L330.676,293.91
			z"/>
	</g>
</g>
<g>
	<g>
		<path d="M490.121,21.547C461.918-6.677,412.83-6.805,384.393,21.696L258.974,152.278c-4.011,4.203-3.947,10.837,0.149,14.933
			l85.333,85.333c2.091,2.069,4.821,3.115,7.552,3.115c2.667,0,5.312-0.981,7.403-2.965l130.731-125.568
			c14.101-14.101,21.867-32.853,21.867-52.8S504.244,35.627,490.121,21.547z M475.209,111.872L352.158,230.059l-70.549-70.549
			L399.646,36.608c20.117-20.117,55.253-20.16,75.413,0c10.069,10.091,15.616,23.488,15.616,37.717
			C490.676,88.555,485.129,101.952,475.209,111.872z"/>
	</g>
</g>
<g>
	<g>
		<path d="M167.54,312.128c-4.16-4.16-10.923-4.16-15.083,0l-51.499,51.499c-10.069,10.069-15.616,23.467-15.616,37.717v14.315
			c0,5.888,4.779,10.667,10.667,10.667s10.667-4.779,10.667-10.667v-14.315c0-8.555,3.328-16.597,9.365-22.635l51.499-51.499
			C171.7,323.051,171.7,316.288,167.54,312.128z"/>
	</g>
</g>
<g>
</g>
<g>
</g>
<g>
</g>
<g>
</g>
<g>
</g>
<g>
</g>
<g>
</g>
<g>
</g>
<g>
</g>
<g>
</g>
<g>
</g>
<g>
</g>
<g>
</g>
<g>
</g>
<g>
</g>
</svg>
