<?xml version="1.0" encoding="iso-8859-1"?>
<!-- Generator: Adobe Illustrator 19.0.0, SVG Export Plug-In . SVG Version: 6.00 Build 0)  -->
<svg version="1.1" id="Capa_1" xmlns="http://www.w3.org/2000/svg" xmlns:xlink="http://www.w3.org/1999/xlink" x="0px" y="0px"
	 viewBox="0 0 512 512" style="enable-background:new 0 0 512 512;" xml:space="preserve">
<g>
	<g>
		<path d="M458.667,10.667H53.333C23.936,10.667,0,34.603,0,64v277.333c0,29.397,23.936,53.333,53.333,53.333h405.333
			c29.397,0,53.333-23.936,53.333-53.333V64C512,34.603,488.064,10.667,458.667,10.667z M490.667,341.333c0,17.643-14.357,32-32,32
			H53.333c-17.643,0-32-14.357-32-32V64c0-17.643,14.357-32,32-32h405.333c17.643,0,32,14.357,32,32V341.333z"/>
	</g>
</g>
<g>
	<g>
		<path d="M426.56,487.339c-1.707-27.861-24.939-50.005-53.227-50.005H160c-29.397,0-53.333,23.936-53.333,53.333
			c0,5.888,4.779,10.667,10.667,10.667H416c0.149,0,0.299,0,0.427,0c5.888,0,10.667-4.779,10.667-10.667
			C427.093,489.493,426.901,488.384,426.56,487.339z M129.813,480c4.416-12.416,16.277-21.333,30.165-21.333h213.333
			c13.909,0,25.771,8.917,30.187,21.333H129.813z"/>
	</g>
</g>
<g>
	<g>
		<path d="M501.333,288H10.667C4.779,288,0,292.779,0,298.667s4.779,10.667,10.667,10.667h490.667
			c5.888,0,10.667-4.779,10.667-10.667S507.221,288,501.333,288z"/>
	</g>
</g>
<g>
	<g>
		<path d="M416.64,330.667h-0.213c-5.888,0-10.56,4.779-10.56,10.667c0,5.888,4.885,10.667,10.773,10.667
			c5.888,0,10.667-4.779,10.667-10.667C427.307,335.445,422.528,330.667,416.64,330.667z"/>
	</g>
</g>
<g>
	<g>
		<path d="M501.333,53.333H10.667C4.779,53.333,0,58.112,0,64s4.779,10.667,10.667,10.667h490.667C507.221,74.667,512,69.888,512,64
			S507.221,53.333,501.333,53.333z"/>
	</g>
</g>
<g>
	<g>
		<circle cx="266.667" cy="341.333" r="21.333"/>
	</g>
</g>
<g>
	<g>
		<path d="M245.333,373.333c-5.888,0-10.667,4.779-10.667,10.667v64c0,5.888,4.779,10.667,10.667,10.667S256,453.888,256,448v-64
			C256,378.112,251.221,373.333,245.333,373.333z"/>
	</g>
</g>
<g>
	<g>
		<path d="M288,373.333c-5.888,0-10.667,4.779-10.667,10.667v64c0,5.888,4.779,10.667,10.667,10.667s10.667-4.779,10.667-10.667v-64
			C298.667,378.112,293.888,373.333,288,373.333z"/>
	</g>
</g>
<g>
	<g>
		<path d="M181.333,202.667h-42.667c-5.888,0-10.667,4.779-10.667,10.667V256c0,5.888,4.779,10.667,10.667,10.667h42.667
			c5.888,0,10.667-4.779,10.667-10.667v-42.667C192,207.445,187.221,202.667,181.333,202.667z M170.667,245.333h-21.333V224h21.333
			V245.333z"/>
	</g>
</g>
<g>
	<g>
		<path d="M373.333,96h-42.667C324.779,96,320,100.779,320,106.667v42.667c0,5.888,4.779,10.667,10.667,10.667h42.667
			c5.888,0,10.667-4.779,10.667-10.667v-42.667C384,100.779,379.221,96,373.333,96z M362.667,138.667h-21.333v-21.333h21.333
			V138.667z"/>
	</g>
</g>
<g>
	<g>
		<path d="M339.904,133.376c-2.944-5.12-9.451-6.933-14.549-3.968l-149.333,85.333c-5.12,2.923-6.891,9.429-3.968,14.549
			c1.984,3.456,5.568,5.376,9.28,5.376c1.792,0,3.627-0.448,5.269-1.408l149.333-85.333
			C341.056,145.003,342.827,138.496,339.904,133.376z"/>
	</g>
</g>
<g>
</g>
<g>
</g>
<g>
</g>
<g>
</g>
<g>
</g>
<g>
</g>
<g>
</g>
<g>
</g>
<g>
</g>
<g>
</g>
<g>
</g>
<g>
</g>
<g>
</g>
<g>
</g>
<g>
</g>
</svg>
