<?xml version="1.0" encoding="iso-8859-1"?>
<!-- Generator: Adobe Illustrator 19.0.0, SVG Export Plug-In . SVG Version: 6.00 Build 0)  -->
<svg version="1.1" id="Capa_1" xmlns="http://www.w3.org/2000/svg" xmlns:xlink="http://www.w3.org/1999/xlink" x="0px" y="0px"
	 viewBox="0 0 512 512" style="enable-background:new 0 0 512 512;" xml:space="preserve">
<g>
	<g>
		<path d="M437.333,0H74.667C33.493,0,0,33.493,0,74.667v362.667C0,478.507,33.493,512,74.667,512h362.667
			C478.507,512,512,478.507,512,437.333V74.667C512,33.493,478.507,0,437.333,0z M490.667,437.333
			c0,29.397-23.936,53.333-53.333,53.333H74.667c-29.397,0-53.333-23.936-53.333-53.333V74.667
			c0-29.397,23.936-53.333,53.333-53.333h362.667c29.397,0,53.333,23.936,53.333,53.333V437.333z"/>
	</g>
</g>
<g>
	<g>
		<path d="M501.333,85.333H10.667C4.779,85.333,0,90.112,0,96s4.779,10.667,10.667,10.667h490.667
			c5.888,0,10.667-4.779,10.667-10.667S507.221,85.333,501.333,85.333z"/>
	</g>
</g>
<g>
	<g>
		<path d="M75.307,42.667h-0.213c-5.888,0-10.56,4.779-10.56,10.667S69.419,64,75.307,64s10.667-4.779,10.667-10.667
			S81.195,42.667,75.307,42.667z"/>
	</g>
</g>
<g>
	<g>
		<path d="M117.973,42.667h-0.213c-5.888,0-10.56,4.779-10.56,10.667S112.085,64,117.973,64s10.667-4.779,10.667-10.667
			S123.861,42.667,117.973,42.667z"/>
	</g>
</g>
<g>
	<g>
		<path d="M160.64,42.667h-0.213c-5.888,0-10.56,4.779-10.56,10.667S154.752,64,160.64,64s10.667-4.779,10.667-10.667
			S166.528,42.667,160.64,42.667z"/>
	</g>
</g>
<g>
	<g>
		<path d="M138.667,341.333H96c-5.888,0-10.667,4.779-10.667,10.667v42.667c0,5.888,4.779,10.667,10.667,10.667h42.667
			c5.888,0,10.667-4.779,10.667-10.667V352C149.333,346.112,144.555,341.333,138.667,341.333z M128,384h-21.333v-21.333H128V384z"/>
	</g>
</g>
<g>
	<g>
		<path d="M416,170.667h-42.667c-5.888,0-10.667,4.779-10.667,10.667V224c0,5.888,4.779,10.667,10.667,10.667H416
			c5.888,0,10.667-4.779,10.667-10.667v-42.667C426.667,175.445,421.888,170.667,416,170.667z M405.333,213.333H384V192h21.333
			V213.333z"/>
	</g>
</g>
<g>
	<g>
		<path d="M382.315,207.616c-3.157-4.949-9.707-6.4-14.72-3.264L132.928,353.685c-4.971,3.157-6.421,9.749-3.264,14.72
			c2.027,3.179,5.461,4.928,9.003,4.928c1.963,0,3.947-0.533,5.717-1.664l234.667-149.333
			C384.021,219.179,385.472,212.587,382.315,207.616z"/>
	</g>
</g>
<g>
</g>
<g>
</g>
<g>
</g>
<g>
</g>
<g>
</g>
<g>
</g>
<g>
</g>
<g>
</g>
<g>
</g>
<g>
</g>
<g>
</g>
<g>
</g>
<g>
</g>
<g>
</g>
<g>
</g>
</svg>
