<?xml version="1.0" encoding="iso-8859-1"?>
<!-- Generator: Adobe Illustrator 19.0.0, SVG Export Plug-In . SVG Version: 6.00 Build 0)  -->
<svg version="1.1" id="Capa_1" xmlns="http://www.w3.org/2000/svg" xmlns:xlink="http://www.w3.org/1999/xlink" x="0px" y="0px"
	 viewBox="0 0 511.995 511.995" style="enable-background:new 0 0 511.995 511.995;" xml:space="preserve">
<g>
	<g>
		<path d="M495.504,37.372c-21.035-21.056-57.728-21.035-78.741,0L109.776,344.188c-1.984,2.005-3.115,4.715-3.115,7.552
			c0,2.816,1.131,5.525,3.115,7.552l64,64c2.091,2.069,4.821,3.115,7.552,3.115c0.064,0,0.149,0,0.213,0
			c3.84-0.235,8.597-2.773,10.176-6.827c18.731-21.568,183.915-184.747,273.984-273.707l29.781-29.419
			c10.603-10.496,16.469-24.469,16.512-39.381C512.038,62.14,506.235,48.082,495.504,37.372z M480.486,101.287l-29.781,29.419
			c-186.965,184.683-249.109,246.677-269.76,269.568l-48.533-48.533L431.846,52.455c12.971-12.992,35.435-13.141,48.725,0.149
			c6.528,6.528,10.112,15.189,10.091,24.405C490.64,86.183,487.035,94.823,480.486,101.287z"/>
	</g>
</g>
<g>
	<g>
		<path d="M434.192,162.876l-64-64c-4.16-4.16-10.923-4.16-15.083,0s-4.16,10.923,0,15.083l64,64
			c2.091,2.069,4.821,3.115,7.552,3.115s5.461-1.045,7.531-3.115C438.352,173.799,438.352,167.036,434.192,162.876z"/>
	</g>
</g>
<g>
	<g>
		<path d="M178.214,397.522l-42.667-42.667c-4.16-4.16-10.923-4.16-15.083,0L3.131,472.188c-3.285,3.285-4.075,8.32-1.941,12.437
			c1.835,3.584,5.525,5.781,9.472,5.781c0.576,0,1.173-0.064,1.749-0.149l128-21.333c3.093-0.512,5.803-2.368,7.403-5.035l32-53.333
			C182.331,406.354,181.67,400.978,178.214,397.522z M132.048,448.679L41.744,463.74l86.251-86.251l29.248,29.227L132.048,448.679z"
			/>
	</g>
</g>
<g>
	<g>
		<path d="M156.859,376.21c-4.16-4.16-10.923-4.16-15.083,0l-32,32c-4.16,4.16-4.16,10.923,0,15.083
			c2.091,2.069,4.821,3.115,7.552,3.115c2.731,0,5.461-1.045,7.531-3.115l32-32C161.019,387.132,161.019,380.37,156.859,376.21z"/>
	</g>
</g>
<g>
</g>
<g>
</g>
<g>
</g>
<g>
</g>
<g>
</g>
<g>
</g>
<g>
</g>
<g>
</g>
<g>
</g>
<g>
</g>
<g>
</g>
<g>
</g>
<g>
</g>
<g>
</g>
<g>
</g>
</svg>
