<?xml version="1.0" encoding="iso-8859-1"?>
<!-- Generator: Adobe Illustrator 19.0.0, SVG Export Plug-In . SVG Version: 6.00 Build 0)  -->
<svg version="1.1" id="Capa_1" xmlns="http://www.w3.org/2000/svg" xmlns:xlink="http://www.w3.org/1999/xlink" x="0px" y="0px"
	 viewBox="0 0 512 512" style="enable-background:new 0 0 512 512;" xml:space="preserve">
<g>
	<g>
		<path d="M138.667,0H53.333c-5.888,0-10.667,4.779-10.667,10.667v42.667C42.667,59.221,47.445,64,53.333,64h85.333
			c5.888,0,10.667-4.779,10.667-10.667V10.667C149.333,4.779,144.555,0,138.667,0z M128,42.667H64V21.333h64V42.667z"/>
	</g>
</g>
<g>
	<g>
		<path d="M373.333,362.667h-224v-224c0-5.888-4.779-10.667-10.667-10.667H53.333c-5.888,0-10.667,4.779-10.667,10.667v320
			c0,5.888,4.779,10.667,10.667,10.667h320c5.888,0,10.667-4.779,10.667-10.667v-85.333
			C384,367.445,379.221,362.667,373.333,362.667z M362.667,448H64V149.333h64v224c0,5.888,4.779,10.667,10.667,10.667h224V448z"/>
	</g>
</g>
<g>
	<g>
		<path d="M501.333,362.667h-42.667c-5.888,0-10.667,4.779-10.667,10.667v85.333c0,5.888,4.779,10.667,10.667,10.667h42.667
			c5.888,0,10.667-4.779,10.667-10.667v-85.333C512,367.445,507.221,362.667,501.333,362.667z M490.667,448h-21.333v-64h21.333V448z
			"/>
	</g>
</g>
<g>
	<g>
		<path d="M458.667,42.667h-448C4.779,42.667,0,47.445,0,53.333v85.333c0,5.888,4.779,10.667,10.667,10.667h352v352
			c0,5.888,4.779,10.667,10.667,10.667h85.333c5.888,0,10.667-4.779,10.667-10.667v-448
			C469.333,47.445,464.555,42.667,458.667,42.667z M448,490.667h-64v-352c0-5.888-4.779-10.667-10.667-10.667h-352V64H448V490.667z"
			/>
	</g>
</g>
<g>
	<g>
		<path d="M380.864,365.803L146.197,131.136c-4.16-4.16-10.923-4.16-15.083,0c-4.16,4.16-4.16,10.923,0,15.083l234.667,234.667
			c2.091,2.069,4.821,3.115,7.552,3.115c2.731,0,5.461-1.045,7.531-3.115C385.024,376.725,385.024,369.963,380.864,365.803z"/>
	</g>
</g>
<g>
</g>
<g>
</g>
<g>
</g>
<g>
</g>
<g>
</g>
<g>
</g>
<g>
</g>
<g>
</g>
<g>
</g>
<g>
</g>
<g>
</g>
<g>
</g>
<g>
</g>
<g>
</g>
<g>
</g>
</svg>
