<?xml version="1.0" encoding="iso-8859-1"?>
<!-- Generator: Adobe Illustrator 19.0.0, SVG Export Plug-In . SVG Version: 6.00 Build 0)  -->
<svg version="1.1" id="Capa_1" xmlns="http://www.w3.org/2000/svg" xmlns:xlink="http://www.w3.org/1999/xlink" x="0px" y="0px"
	 viewBox="0 0 512.017 512.017" style="enable-background:new 0 0 512.017 512.017;" xml:space="preserve">
<g>
	<g>
		<path d="M96.009,458.667c-5.888,0-10.667,4.779-10.667,10.667c0,11.755-9.557,21.333-21.333,21.333s-21.333-9.579-21.333-21.333
			v-64c0-11.755,9.557-21.333,21.333-21.333s21.333,9.579,21.333,21.333c0,5.909,4.779,10.667,10.667,10.667
			s10.667-4.779,10.667-10.667c0-23.531-19.136-42.667-42.667-42.667s-42.667,19.136-42.667,42.667v64
			c0,23.531,19.136,42.667,42.667,42.667c23.531,0,42.667-19.115,42.667-42.667C106.676,463.445,101.897,458.667,96.009,458.667z"/>
	</g>
</g>
<g>
	<g>
		<path d="M202.676,106.667c-64.683,0-117.333,52.629-117.333,117.333s52.651,117.333,117.333,117.333S320.009,288.704,320.009,224
			S267.359,106.667,202.676,106.667z M202.676,320c-52.928,0-96-43.072-96-96c0-52.928,43.072-96,96-96c52.928,0,96,43.072,96,96
			C298.676,276.928,255.604,320,202.676,320z"/>
	</g>
</g>
<g>
	<g>
		<path d="M330.676,106.667c-64.683,0-117.333,52.629-117.333,117.333s52.651,117.333,117.333,117.333S448.009,288.704,448.009,224
			S395.359,106.667,330.676,106.667z M330.676,320c-52.928,0-96-43.072-96-96c0-52.928,43.072-96,96-96s96,43.072,96,96
			C426.676,276.928,383.604,320,330.676,320z"/>
	</g>
</g>
<g>
	<g>
		<path d="M202.676,0C137.993,0,85.343,52.629,85.343,117.333s52.651,117.333,117.333,117.333s117.333-52.629,117.333-117.333
			S267.359,0,202.676,0z M202.676,213.333c-52.928,0-96-43.072-96-96s43.072-96,96-96c52.928,0,96,43.072,96,96
			S255.604,213.333,202.676,213.333z"/>
	</g>
</g>
<g>
	<g>
		<path d="M330.676,0c-64.683,0-117.333,52.629-117.333,117.333s52.651,117.333,117.333,117.333s117.333-52.629,117.333-117.333
			S395.359,0,330.676,0z M330.676,213.333c-52.928,0-96-43.072-96-96s43.072-96,96-96s96,43.072,96,96
			S383.604,213.333,330.676,213.333z"/>
	</g>
</g>
<g>
	<g>
		<path d="M277.193,499.605l-21.333-128c-0.747-4.565-4.373-8.128-8.939-8.811c-4.501-0.64-9.024,1.664-11.115,5.781l-33.131,66.24
			l-33.131-66.261c-2.069-4.117-6.549-6.443-11.115-5.781c-4.565,0.704-8.192,4.245-8.939,8.811l-21.333,128
			c-0.981,5.803,2.965,11.307,8.768,12.267c5.653,1.045,11.285-2.965,12.267-8.768l15.936-95.637l27.989,56
			c3.627,7.232,15.467,7.232,19.093,0l28.011-56l15.936,95.637c0.875,5.227,5.397,8.917,10.496,8.917
			c0.576,0,1.195-0.021,1.771-0.128C274.228,510.912,278.175,505.408,277.193,499.605z"/>
	</g>
</g>
<g>
	<g>
		<path d="M379.252,364.459c-4.864-3.243-11.499-1.941-14.784,2.965l-33.792,50.688l-33.792-50.688
			c-3.285-4.928-9.941-6.229-14.784-2.965c-4.907,3.264-6.229,9.877-2.965,14.784l42.667,64c1.984,2.987,5.312,4.757,8.875,4.757
			c3.563,0,6.891-1.771,8.875-4.757l42.667-64C385.481,374.336,384.137,367.723,379.252,364.459z"/>
	</g>
</g>
<g>
	<g>
		<path d="M330.676,426.667c-5.888,0-10.667,4.779-10.667,10.667v64c0,5.888,4.779,10.667,10.667,10.667s10.667-4.757,10.667-10.667
			v-64C341.343,431.445,336.564,426.667,330.676,426.667z"/>
	</g>
</g>
<g>
	<g>
		<path d="M416.009,362.667c-5.888,0-10.667,4.779-10.667,10.667v128c0,5.888,4.779,10.667,10.667,10.667
			c5.888,0,10.667-4.757,10.667-10.667v-128C426.676,367.445,421.897,362.667,416.009,362.667z"/>
	</g>
</g>
<g>
	<g>
		<path d="M486.388,364.8c-4.693-3.499-11.371-2.603-14.933,2.133l-64,85.333c-3.52,4.715-2.56,11.392,2.155,14.933
			c1.92,1.429,4.181,2.133,6.4,2.133c3.221,0,6.443-1.451,8.533-4.267l64-85.333C492.063,375.019,491.103,368.341,486.388,364.8z"/>
	</g>
</g>
<g>
	<g>
		<path d="M488.884,495.424l-42.667-64c-3.285-4.928-9.92-6.208-14.784-2.965c-4.907,3.264-6.229,9.877-2.965,14.784l42.667,64
			c2.069,3.093,5.44,4.757,8.875,4.757c2.048,0,4.096-0.576,5.909-1.792C490.825,506.944,492.148,500.331,488.884,495.424z"/>
	</g>
</g>
<g>
</g>
<g>
</g>
<g>
</g>
<g>
</g>
<g>
</g>
<g>
</g>
<g>
</g>
<g>
</g>
<g>
</g>
<g>
</g>
<g>
</g>
<g>
</g>
<g>
</g>
<g>
</g>
<g>
</g>
</svg>
