<?xml version="1.0" encoding="iso-8859-1"?>
<!-- Generator: Adobe Illustrator 19.0.0, SVG Export Plug-In . SVG Version: 6.00 Build 0)  -->
<svg version="1.1" id="Capa_1" xmlns="http://www.w3.org/2000/svg" xmlns:xlink="http://www.w3.org/1999/xlink" x="0px" y="0px"
	 viewBox="0 0 490.746 490.746" style="enable-background:new 0 0 490.746 490.746;" xml:space="preserve">
<g>
	<g>
		<path d="M477.258,13.349c-17.429-17.429-47.701-17.515-65.323,0.085L131.082,301.711c-4.096,4.224-4.011,10.987,0.213,15.083
			c4.203,4.117,10.944,4.032,15.083-0.192L427.103,28.41c9.387-9.344,25.664-9.344,35.051,0c9.643,9.664,9.643,25.387,0.107,34.944
			L173.983,344.165c-4.224,4.117-4.309,10.88-0.213,15.104c2.091,2.155,4.864,3.221,7.637,3.221c2.688,0,5.376-1.003,7.445-3.029
			L477.258,78.565C495.242,60.559,495.242,31.312,477.258,13.349z"/>
	</g>
</g>
<g>
	<g>
		<path d="M114.89,298.49c-42.539,0-77.163,34.56-77.163,77.056c0,25.024-13.547,47.531-24.448,65.621
			c-9.941,16.533-17.131,28.48-11.029,39.296c5.077,8.981,16.149,10.027,24,10.027c12.587,0,31.851-2.987,62.421-9.685
			c54.101-11.883,103.403-62.059,103.403-105.259C192.074,333.05,157.45,298.49,114.89,298.49z M84.084,459.962
			c-28.224,6.187-47.147,9.195-57.835,9.195c-1.685,0-3.008-0.064-4.011-0.171c1.792-4.288,6.037-11.349,9.344-16.832
			c11.584-19.264,27.477-45.653,27.477-76.608c0-30.72,25.045-55.723,55.829-55.723s55.851,25.003,55.851,55.723
			C170.74,405.178,132.084,449.423,84.084,459.962z"/>
	</g>
</g>
<g>
	<g>
		<path d="M149.407,426.49c-28.395,0-35.52-12.757-44.523-28.928c-8.725-15.616-19.563-35.072-51.477-35.072
			c-5.888,0-10.667,4.779-10.667,10.667s4.779,10.667,10.667,10.667c19.371,0,24.725,9.6,32.832,24.128
			c9.92,17.749,22.251,39.872,63.168,39.872c5.888,0,10.667-4.779,10.667-10.667C160.074,431.269,155.295,426.49,149.407,426.49z"/>
	</g>
</g>
<g>
	<g>
		<path d="M284.938,248.293l-42.667-42.667c-4.16-4.16-10.923-4.16-15.083,0c-4.16,4.16-4.16,10.923,0,15.083l42.667,42.667
			c2.091,2.069,4.821,3.115,7.552,3.115s5.461-1.045,7.531-3.115C289.098,259.215,289.098,252.453,284.938,248.293z"/>
	</g>
</g>
<g>
</g>
<g>
</g>
<g>
</g>
<g>
</g>
<g>
</g>
<g>
</g>
<g>
</g>
<g>
</g>
<g>
</g>
<g>
</g>
<g>
</g>
<g>
</g>
<g>
</g>
<g>
</g>
<g>
</g>
</svg>
