<?xml version="1.0" encoding="iso-8859-1"?>
<!-- Generator: Adobe Illustrator 19.0.0, SVG Export Plug-In . SVG Version: 6.00 Build 0)  -->
<svg version="1.1" id="Capa_1" xmlns="http://www.w3.org/2000/svg" xmlns:xlink="http://www.w3.org/1999/xlink" x="0px" y="0px"
	 viewBox="0 0 512 512" style="enable-background:new 0 0 512 512;" xml:space="preserve">
<g>
	<g>
		<path d="M490.667,320H21.333c-5.888,0-10.667,4.779-10.667,10.667s4.779,10.667,10.667,10.667h469.333
			c5.888,0,10.667-4.779,10.667-10.667S496.555,320,490.667,320z"/>
	</g>
</g>
<g>
	<g>
		<path d="M277.333,405.333c-5.888,0-10.667,4.779-10.667,10.667v85.333c0,5.888,4.779,10.667,10.667,10.667
			S288,507.221,288,501.333V416C288,410.112,283.221,405.333,277.333,405.333z"/>
	</g>
</g>
<g>
	<g>
		<path d="M384,405.333c-5.888,0-10.667,4.779-10.667,10.667v85.333c0,5.888,4.779,10.667,10.667,10.667
			c5.888,0,10.667-4.779,10.667-10.667V416C394.667,410.112,389.888,405.333,384,405.333z"/>
	</g>
</g>
<g>
	<g>
		<path d="M405.333,192h-94.08l19.413-117.333C330.667,33.493,297.173,0,256,0s-74.667,33.493-74.517,76.416L200.747,192h-94.08
			c-52.928,0-96,43.072-96,96v213.333c0,5.888,4.779,10.667,10.667,10.667H128c4.885,0,9.173-3.328,10.347-8.064l10.987-43.947
			l10.987,43.925c1.173,4.757,5.461,8.085,10.347,8.085h320c5.888,0,10.667-4.779,10.667-10.667V288
			C501.333,235.072,458.261,192,405.333,192z M480,490.667H179.008l-19.328-77.248c-2.389-9.493-18.347-9.493-20.715,0
			l-19.307,77.248H32V288c0-41.173,33.493-74.667,74.667-74.667h106.667c3.136,0,6.101-1.365,8.149-3.776
			c2.005-2.389,2.88-5.547,2.368-8.64L202.667,74.667c0-29.397,23.915-53.333,53.333-53.333s53.333,23.936,53.483,51.584
			l-21.333,128c-0.533,3.093,0.341,6.251,2.368,8.64c2.048,2.411,5.013,3.776,8.149,3.776h106.667
			C446.507,213.333,480,246.827,480,288V490.667z"/>
	</g>
</g>
<g>
</g>
<g>
</g>
<g>
</g>
<g>
</g>
<g>
</g>
<g>
</g>
<g>
</g>
<g>
</g>
<g>
</g>
<g>
</g>
<g>
</g>
<g>
</g>
<g>
</g>
<g>
</g>
<g>
</g>
</svg>
