<?xml version="1.0" encoding="iso-8859-1"?>
<!-- Generator: Adobe Illustrator 19.0.0, SVG Export Plug-In . SVG Version: 6.00 Build 0)  -->
<svg version="1.1" id="Capa_1" xmlns="http://www.w3.org/2000/svg" xmlns:xlink="http://www.w3.org/1999/xlink" x="0px" y="0px"
	 viewBox="0 0 512 512" style="enable-background:new 0 0 512 512;" xml:space="preserve">
<g>
	<g>
		<path d="M362.667,213.333c-82.347,0-149.333,66.987-149.333,149.333S280.32,512,362.667,512S512,445.013,512,362.667
			S445.013,213.333,362.667,213.333z M362.667,490.667c-70.592,0-128-57.408-128-128s57.408-128,128-128s128,57.408,128,128
			S433.259,490.667,362.667,490.667z"/>
	</g>
</g>
<g>
	<g>
		<path d="M288,0H10.667C4.779,0,0,4.779,0,10.667V288c0,5.888,4.779,10.667,10.667,10.667h106.667
			c5.888,0,10.667-4.779,10.667-10.667v-85.333C128,161.493,161.493,128,202.667,128H288c5.888,0,10.667-4.779,10.667-10.667V10.667
			C298.667,4.779,293.888,0,288,0z M277.333,106.667h-74.667c-52.928,0-96,43.072-96,96v74.667H21.333v-256h256V106.667z"/>
	</g>
</g>
<g>
	<g>
		<path d="M309.333,106.667H202.667c-52.928,0-96,43.072-96,96v106.667c0,52.928,43.072,96,96,96h25.195
			c3.243,0,6.336-1.493,8.341-4.053c2.027-2.56,2.773-5.909,2.027-9.067c-7.253-30.699-3.477-59.349,11.563-87.573
			c12.288-23.061,31.765-42.539,54.848-54.827c28.288-15.083,56.661-18.88,87.573-11.563c3.136,0.704,6.507,0.021,9.067-2.027
			c2.56-2.027,4.053-5.099,4.053-8.363v-25.195C405.333,149.739,362.261,106.667,309.333,106.667z M384,214.955
			c-31.04-4.629-60.821,0.789-89.387,16.021c-26.773,14.272-49.387,36.864-63.637,63.637
			c-15.424,28.949-20.715,58.304-16.043,89.387h-12.267C161.493,384,128,350.507,128,309.333V202.667
			C128,161.493,161.493,128,202.667,128h106.667C350.507,128,384,161.493,384,202.667V214.955z"/>
	</g>
</g>
<g>
</g>
<g>
</g>
<g>
</g>
<g>
</g>
<g>
</g>
<g>
</g>
<g>
</g>
<g>
</g>
<g>
</g>
<g>
</g>
<g>
</g>
<g>
</g>
<g>
</g>
<g>
</g>
<g>
</g>
</svg>
