<?xml version="1.0" encoding="iso-8859-1"?>
<!-- Generator: Adobe Illustrator 19.0.0, SVG Export Plug-In . SVG Version: 6.00 Build 0)  -->
<svg version="1.1" id="Capa_1" xmlns="http://www.w3.org/2000/svg" xmlns:xlink="http://www.w3.org/1999/xlink" x="0px" y="0px"
	 viewBox="0 0 512 512" style="enable-background:new 0 0 512 512;" xml:space="preserve">
<g>
	<g>
		<path d="M416,85.333H96c-5.888,0-10.667,4.779-10.667,10.667v320c0,5.888,4.779,10.667,10.667,10.667h320
			c5.888,0,10.667-4.779,10.667-10.667V96C426.667,90.112,421.888,85.333,416,85.333z M405.333,405.333H106.667V106.667h298.667
			V405.333z"/>
	</g>
</g>
<g>
	<g>
		<path d="M96,0c-5.888,0-10.667,4.779-10.667,10.667v42.667C85.333,59.221,90.112,64,96,64s10.667-4.779,10.667-10.667V10.667
			C106.667,4.779,101.888,0,96,0z"/>
	</g>
</g>
<g>
	<g>
		<path d="M96,448c-5.888,0-10.667,4.779-10.667,10.667v42.667C85.333,507.221,90.112,512,96,512s10.667-4.779,10.667-10.667
			v-42.667C106.667,452.779,101.888,448,96,448z"/>
	</g>
</g>
<g>
	<g>
		<path d="M53.333,405.333H10.667C4.779,405.333,0,410.112,0,416c0,5.888,4.779,10.667,10.667,10.667h42.667
			C59.221,426.667,64,421.888,64,416C64,410.112,59.221,405.333,53.333,405.333z"/>
	</g>
</g>
<g>
	<g>
		<path d="M53.333,85.333H10.667C4.779,85.333,0,90.112,0,96s4.779,10.667,10.667,10.667h42.667C59.221,106.667,64,101.888,64,96
			S59.221,85.333,53.333,85.333z"/>
	</g>
</g>
<g>
	<g>
		<path d="M501.333,85.333h-42.667C452.779,85.333,448,90.112,448,96s4.779,10.667,10.667,10.667h42.667
			c5.888,0,10.667-4.779,10.667-10.667S507.221,85.333,501.333,85.333z"/>
	</g>
</g>
<g>
	<g>
		<path d="M416,0c-5.888,0-10.667,4.779-10.667,10.667v42.667C405.333,59.221,410.112,64,416,64c5.888,0,10.667-4.779,10.667-10.667
			V10.667C426.667,4.779,421.888,0,416,0z"/>
	</g>
</g>
<g>
	<g>
		<path d="M416,448c-5.888,0-10.667,4.779-10.667,10.667v42.667c0,5.888,4.779,10.667,10.667,10.667
			c5.888,0,10.667-4.779,10.667-10.667v-42.667C426.667,452.779,421.888,448,416,448z"/>
	</g>
</g>
<g>
	<g>
		<path d="M501.333,405.333h-42.667c-5.888,0-10.667,4.779-10.667,10.667c0,5.888,4.779,10.667,10.667,10.667h42.667
			c5.888,0,10.667-4.779,10.667-10.667C512,410.112,507.221,405.333,501.333,405.333z"/>
	</g>
</g>
<g>
</g>
<g>
</g>
<g>
</g>
<g>
</g>
<g>
</g>
<g>
</g>
<g>
</g>
<g>
</g>
<g>
</g>
<g>
</g>
<g>
</g>
<g>
</g>
<g>
</g>
<g>
</g>
<g>
</g>
</svg>
