<svg height="512pt" viewBox="-40 0 512 512" width="512pt" xmlns="http://www.w3.org/2000/svg"><path d="m376.5 96.398438c-9.0625 0-17.613281 2.210937-25.167969 6.101562v-15.199219c0-30.417969-24.746093-55.164062-55.167969-55.164062-9.988281 0-19.359374 2.679687-27.449218 7.34375-6.777344-22.800781-27.910156-39.480469-52.882813-39.480469-24.96875 0-46.105469 16.679688-52.882812 39.480469-8.089844-4.664063-17.460938-7.34375-27.449219-7.34375-30.417969 0-55.167969 24.746093-55.167969 55.164062v95.535157c-7.550781-3.890626-16.101562-6.101563-25.164062-6.101563-30.421875 0-55.167969 24.746094-55.167969 55.164063v64.265624c0 41.132813 11.617188 81.136719 33.601562 115.6875 19.683594 30.945313 46.824219 56.3125 78.867188 73.816407v11.332031c0 8.285156 6.714844 15 15 15h176.730469c8.285156 0 15-6.714844 15-15v-11.332031c32.042969-17.503907 59.179687-42.871094 78.867187-73.8125 21.980469-34.554688 33.597656-74.558594 33.597656-115.691407v-144.597656c0-30.417968-24.746093-55.167968-55.164062-55.167968zm25.164062 199.765624c0 71.453126-39.878906 135.414063-104.074218 166.921876-5.136719 2.519531-8.390625 7.742187-8.390625 13.464843v5.449219h-146.730469v-5.449219c0-5.722656-3.257812-10.945312-8.394531-13.464843-64.195313-31.507813-104.074219-95.46875-104.074219-166.921876v-64.265624c0-13.875 11.289062-25.164063 25.167969-25.164063 13.875 0 25.164062 11.289063 25.164062 25.164063v24.101562c0 8.285156 6.71875 15 15 15 8.285157 0 15-6.714844 15-15v-168.699219c0-13.878906 11.289063-25.167969 25.167969-25.167969s25.164062 11.289063 25.164062 25.167969v96.398438c0 8.285156 6.71875 15 15 15 8.285157 0 15-6.714844 15-15v-128.53125c0-13.878907 11.292969-25.167969 25.167969-25.167969 13.878907 0 25.167969 11.289062 25.167969 25.167969v128.53125c0 8.285156 6.714844 15 15 15s15-6.714844 15-15v-96.398438c0-13.875 11.289062-25.164062 25.164062-25.164062 13.878907 0 25.167969 11.289062 25.167969 25.164062v144.597657c0 8.285156 6.71875 15 15 15 8.285157 0 15-6.714844 15-15v-80.332032c0-13.875 11.289063-25.167968 25.167969-25.167968 13.875 0 25.164062 11.289062 25.164062 25.167968zm0 0"/></svg>