<svg xmlns="http://www.w3.org/2000/svg" viewBox="0 0 25.628 14.684"><defs><style>.a{fill:#fff;}</style></defs><g transform="translate(-1 -1.979)"><g transform="translate(1 1.979)"><path class="a" d="M.186,36.26,5.149,25.041A1.938,1.938,0,0,1,6.983,23.8h.186a1.912,1.912,0,0,1,1.808,1.241L13.949,36.26a1.572,1.572,0,0,1,.16.629A1.49,1.49,0,0,1,12.619,38.4a1.589,1.589,0,0,1-1.507-1.081l-.957-2.242H3.89l-1,2.34a1.541,1.541,0,0,1-1.444.975A1.425,1.425,0,0,1,0,36.933,1.606,1.606,0,0,1,.186,36.26ZM9,32.307l-1.976-4.7-1.976,4.7Z" transform="translate(0 -23.8)"/><path class="a" d="M176,70.5V70.46c0-2.384,1.817-3.483,4.4-3.483a7.713,7.713,0,0,1,2.667.452v-.186c0-1.285-.8-1.994-2.34-1.994a7.238,7.238,0,0,0-2.136.3,1.282,1.282,0,0,1-.452.08,1.263,1.263,0,0,1-1.285-1.258,1.291,1.291,0,0,1,.833-1.205,9.572,9.572,0,0,1,3.483-.567,5.045,5.045,0,0,1,3.687,1.223,4.762,4.762,0,0,1,1.179,3.483v4.971a1.49,1.49,0,0,1-1.507,1.489,1.387,1.387,0,0,1-1.489-1.285v-.018a4.2,4.2,0,0,1-3.3,1.382C177.693,73.846,176,72.658,176,70.5Zm7.107-.718v-.549a4.753,4.753,0,0,0-1.976-.408c-1.32,0-2.136.532-2.136,1.507v.044c0,.833.691,1.32,1.693,1.32C182.132,71.7,183.107,70.912,183.107,69.787Z" transform="translate(-160.403 -59.162)"/></g></g></svg>