<svg xmlns="http://www.w3.org/2000/svg" width="20" height="20.008" viewBox="0 0 20 20.008"><g transform="translate(-257 -141)"><g transform="translate(257 141)"><g transform="translate(0 0)"><path d="M.129,207.531a1.328,1.328,0,0,0,.283,1.448,1.312,1.312,0,0,0,1.448.283L6.7,207.234,2.163,202.7Z" transform="translate(-0.026 -189.358)" fill="#fff"/><path d="M66.975,3.636,63.7.365a1.307,1.307,0,0,0-1.862,0L50.707,11.5l-.007.007,5.14,5.14.007-.007L66.975,5.5A1.307,1.307,0,0,0,66.975,3.636Z" transform="translate(-47.365 0.025)" fill="#fff"/></g></g></g></svg>