<svg xmlns="http://www.w3.org/2000/svg" width="21.631" height="25" viewBox="0 0 21.631 25"><g transform="translate(-117 -211)"><g transform="translate(117 211)"><path d="M18.825,2.019h-.181V1.887a1.888,1.888,0,0,0-3.775,0v.131H12.7V1.887a1.888,1.888,0,0,0-3.775,0v.131H6.756V1.887a1.884,1.884,0,1,0-3.769,0v.131H2.806A2.806,2.806,0,0,0,0,4.825V22.2A2.8,2.8,0,0,0,2.806,25H18.825a2.806,2.806,0,0,0,2.806-2.806V4.819A2.8,2.8,0,0,0,18.825,2.019Zm-2.587-.131a.512.512,0,1,1,1.025,0V4.394a.512.512,0,1,1-1.025,0Zm-5.937,0a.512.512,0,1,1,1.025,0V4.394a.512.512,0,0,1-1.025,0V1.887Zm-5.937,0a.512.512,0,1,1,1.025,0V4.394a.512.512,0,1,1-1.025,0ZM19.381,22.094a.616.616,0,0,1-.562.663H2.806a.624.624,0,0,1-.562-.663V7.437H19.381V22.094Z" transform="translate(0 0)" fill="#fff"/><path d="M116.724,161.775h5.487a.835.835,0,0,0,.831-.831V160.7a.835.835,0,0,0-.831-.831H118.83l1.919-2.137a5.151,5.151,0,0,0,1.669-3.238,2.6,2.6,0,0,0-.938-2.075,3.509,3.509,0,0,0-2.269-.719,4.376,4.376,0,0,0-3.075,1.35.832.832,0,0,0,.013,1.162l.169.169a.837.837,0,0,0,.594.244h0a.823.823,0,0,0,.594-.256,2.477,2.477,0,0,1,1.713-.769c.862,0,1.3.3,1.3.888a3.624,3.624,0,0,1-1.144,1.931l-3.262,3.625a.824.824,0,0,0-.213.556v.337A.823.823,0,0,0,116.724,161.775Z" transform="translate(-108.655 -142.219)" fill="#fff"/></g></g></svg>