<svg xmlns="http://www.w3.org/2000/svg" viewBox="0 0 20.712 25.5">
  <defs>
    <style>
      .cls-1 {
        fill: #fff;
        stroke: #fff;
        stroke-width: 0.5px;
      }
    </style>
  </defs>
  <g id="Delete" transform="translate(-309.75 -723.75)">
    <g id="Groupe_29" data-name="Groupe 29" transform="translate(310 724)">
      <path id="Union_12" data-name="Union 12" class="cls-1" d="M4.658,25A2.857,2.857,0,0,1,1.8,22.145V8.649A2.863,2.863,0,0,1,0,6V5.85A2.857,2.857,0,0,1,2.855,3h3.9A3.381,3.381,0,0,1,13.47,3h3.892a2.85,2.85,0,0,1,2.85,2.855V6a2.855,2.855,0,0,1-1.8,2.653v13.5A2.857,2.857,0,0,1,15.552,25Zm-1.5-2.855a1.5,1.5,0,0,0,1.5,1.5H15.552a1.5,1.5,0,0,0,1.5-1.5V8.856H3.157ZM1.353,5.85V6a1.5,1.5,0,0,0,1.5,1.5H17.362a1.5,1.5,0,0,0,1.5-1.5V5.85a1.5,1.5,0,0,0-1.5-1.5H2.855A1.5,1.5,0,0,0,1.353,5.85ZM8.116,3H12.1A2.03,2.03,0,0,0,8.116,3ZM13.06,21.238V13.609a.679.679,0,0,1,1.358,0v7.629a.679.679,0,0,1-1.358,0Zm-3.627,0V13.609a.679.679,0,0,1,1.358,0v7.629a.679.679,0,0,1-1.358,0Zm-3.634,0V13.609a.679.679,0,0,1,1.358,0v7.629a.679.679,0,0,1-1.358,0Z"/>
    </g>
  </g>
</svg>
