<svg xmlns="http://www.w3.org/2000/svg" viewBox="0 0 20 20"><defs><style>.a{fill:#fff;}</style></defs><path class="a" d="M18.674,1.32a4.411,4.411,0,0,0-6.243,0L.985,12.763a.573.573,0,0,0-.162.328l-.848,6.282a.571.571,0,0,0,.162.482.582.582,0,0,0,.4.17.463.463,0,0,0,.077,0L4.4,19.509a.576.576,0,0,0-.153-1.142l-3.034.409L1.807,14.4l4.611,4.611a.582.582,0,0,0,.4.17.564.564,0,0,0,.4-.17L18.674,7.563a4.409,4.409,0,0,0,0-6.244ZM12.653,2.726l1.922,1.922L4.13,15.094,2.208,13.172ZM6.827,17.788,4.948,15.908,15.393,5.462l1.879,1.879ZM18.073,6.519l-4.6-4.6a3.267,3.267,0,0,1,4.6,4.6Z" transform="translate(0.031 -0.025)"/></svg>