<svg xmlns="http://www.w3.org/2000/svg" width="25" height="18.313" viewBox="0 0 25 18.313"><g transform="translate(-255 -215)"><path d="M21.053,0H3.947A3.951,3.951,0,0,0,0,3.947V14.358a3.953,3.953,0,0,0,3.947,3.954H21.053A3.951,3.951,0,0,0,25,14.365V3.947A3.951,3.951,0,0,0,21.053,0Zm-.122,2.381L12.507,8.6,4.076,2.381Zm.122,13.551H3.947a1.572,1.572,0,0,1-1.567-1.567V4.09l9.414,6.945a1.194,1.194,0,0,0,1.411,0L22.619,4.09V14.365A1.567,1.567,0,0,1,21.053,15.932Z" transform="translate(255 215)" fill="#fff"/></g></svg>