<svg xmlns="http://www.w3.org/2000/svg" viewBox="0 0 26 21.417">
  <defs>
    <style>
      .cls-1 {
        fill: #fff;
        stroke: #fff;
      }
    </style>
  </defs>
  <g id="Folder" transform="translate(-259 -724)">
    <path id="Créer_un_dossier" data-name="Créer un dossier" class="cls-1" d="M23.958,6.667H22.5V4.042a1.12,1.12,0,0,0-1.125-1.125H11.042L8.958,0H1.125A1.12,1.12,0,0,0,0,1.125V19.333H0A1.259,1.259,0,0,0,.208,20a1.088,1.088,0,0,0,.833.417H19.708a1.089,1.089,0,0,0,1.042-.75L25,8V7.917A1.144,1.144,0,0,0,23.958,6.667ZM.833,1.125A.285.285,0,0,1,1.125.833H8.542L10.625,3.75h10.75a.285.285,0,0,1,.292.292V6.667H5.125a1.034,1.034,0,0,0-.833.75L.833,16.833ZM19.958,19.417a.277.277,0,0,1-.208.167H1.083c-.083,0-.167-.042-.167-.083a.316.316,0,0,1-.083-.167L5.083,7.667A.277.277,0,0,1,5.292,7.5H23.958c.167,0,.208.208.208.333Z" transform="translate(259.5 724.5)"/>
  </g>
</svg>
