<svg xmlns="http://www.w3.org/2000/svg" width="14.021" height="20" viewBox="0 0 14.021 20"><g transform="translate(-189 -141)"><g transform="translate(189 141)"><path d="M11.265,5.578A49.137,49.137,0,0,0,7.456.214a.567.567,0,0,0-.887,0A49.851,49.851,0,0,0,2.76,5.583C.929,8.594,0,11.093,0,12.992a7.01,7.01,0,0,0,14.02,0C14.02,11.088,13.092,8.594,11.265,5.578ZM7.973,17.422a5.1,5.1,0,0,1-1.263.157,4.593,4.593,0,0,1-4.748-4.414,5.694,5.694,0,0,1,.459-2.04.3.3,0,0,1,.344-.172.28.28,0,0,1,.23.292c-.016.162-.026.324-.026.475a5.336,5.336,0,0,0,4.962,5.155.284.284,0,0,1,.261.25A.292.292,0,0,1,7.973,17.422Z" transform="translate(0 0)" fill="#fff"/></g></g></svg>