<svg xmlns="http://www.w3.org/2000/svg" viewBox="0 0 26 26.049"><defs><style>.a{fill:#fff;}</style></defs><g transform="translate(-0.061)"><g transform="translate(0.061)"><path class="a" d="M24.677,1.384A4.8,4.8,0,0,0,21.258,0a4.941,4.941,0,0,0-3.419,1.384L3.512,15.711a.423.423,0,0,0-.163.326L.093,24.991a.89.89,0,0,0,.163.814.739.739,0,0,0,.57.244H1.07l8.059-2.524a.423.423,0,0,0,.326-.163L24.677,8.14A4.75,4.75,0,0,0,26.061,4.8,4.8,4.8,0,0,0,24.677,1.384ZM8.233,22.142l-3.012.9a4.765,4.765,0,0,0-.814-1.384,5.778,5.778,0,0,0-1.14-.814l1.384-3.745H6.524v1.628a.769.769,0,0,0,.814.814H8.8ZM20.2,10.338,10.268,20.27l.326-1.3a.633.633,0,0,0-.163-.651.67.67,0,0,0-.651-.407H8.152V16.281a.769.769,0,0,0-.814-.814h-1.3l9.687-9.606h0a3.093,3.093,0,0,1,5.291,2.2A2.938,2.938,0,0,1,20.2,10.338ZM23.537,7l-.733.733A4.925,4.925,0,0,0,21.421,4.64a4.925,4.925,0,0,0-3.093-1.384l.733-.733h0a3.145,3.145,0,0,1,4.4,0A3.08,3.08,0,0,1,24.432,4.8,3.145,3.145,0,0,1,23.537,7Zm-5.373-.244-8.14,8.14a.787.787,0,0,0,0,1.14.787.787,0,0,0,1.14,0L19.3,7.9a.806.806,0,1,0-1.14-1.14Z" transform="translate(-0.061)"/></g></g></svg>