<svg xmlns="http://www.w3.org/2000/svg" viewBox="0 0 22.464 20.95"><defs><style>.a{fill:#fff;stroke:#fff;stroke-width:0.5px;}</style></defs><g transform="translate(0.25 0.25)"><g transform="translate(0 0)"><path class="a" d="M11.606,182.865a.616.616,0,0,0,0,.871,2.558,2.558,0,0,1,0,3.611L6.373,192.58a2.558,2.558,0,0,1-3.611,0l-.785-.785a2.558,2.558,0,0,1,0-3.611l5.233-5.233a.616.616,0,0,0-.871-.871l-5.233,5.233a3.774,3.774,0,0,0,0,5.344l.785.785a3.79,3.79,0,0,0,5.353,0l5.233-5.233a3.785,3.785,0,0,0,0-5.348A.617.617,0,0,0,11.606,182.865Z" transform="translate(0 -174.098)"/><path class="a" d="M207.872,1.891l-.785-.785a3.785,3.785,0,0,0-5.348,0l-5.233,5.233a3.785,3.785,0,0,0,0,5.348.616.616,0,0,0,.871-.871,2.558,2.558,0,0,1,0-3.611l5.233-5.233a2.558,2.558,0,0,1,3.611,0l.785.789a2.558,2.558,0,0,1,0,3.611l-5.233,5.233a.614.614,0,1,0,.866.871l5.233-5.233a3.779,3.779,0,0,0,0-5.353Z" transform="translate(-187.019 0)"/></g></g></svg>