<svg xmlns="http://www.w3.org/2000/svg" viewBox="0 0 35 32.6">
  <defs>
    <style>
      .cls-1 {
        fill: #fff;
      }
    </style>
  </defs>
  <g id="LOGO" transform="translate(-41 -43)">
    <path id="Tracé_44" data-name="Tracé 44" class="cls-1" d="M35,.6H28.1V22.3q0,2.55-1.8,3.3h-.1a3.093,3.093,0,0,1-3-.9,5.237,5.237,0,0,1-1.1-2.6L19.2,7.9A9.935,9.935,0,0,0,16,2,9.8,9.8,0,0,0,9.6,0a9.915,9.915,0,0,0-7,2.4A7.922,7.922,0,0,0,0,8.6V18.7H6.9V10.2A3.262,3.262,0,0,1,8.7,6.9h.1a2.2,2.2,0,0,1,.8-.1,2.7,2.7,0,0,1,2.2,1,5.235,5.235,0,0,1,1.1,2.7l2.9,14.2A9.719,9.719,0,0,0,19,30.6a9.8,9.8,0,0,0,6.4,2,10.085,10.085,0,0,0,7-2.4A7.922,7.922,0,0,0,35,24Z" transform="translate(41 43)"/>
  </g>
</svg>
