<svg xmlns="http://www.w3.org/2000/svg" viewBox="0 0 30 30">
  <defs>
    <style>
      .cls-1 {
        fill: #fff;
      }
    </style>
  </defs>
  <g id="ICON-Library" transform="translate(-38 -301)">
    <g id="Groupe_14" data-name="Groupe 14" transform="translate(38 301)">
      <ellipse id="Ellipse_60" data-name="Ellipse 60" class="cls-1" cx="1.705" cy="1.705" rx="1.705" ry="1.705" transform="translate(16.305 7.571)"/>
      <path id="Tracé_66" data-name="Tracé 66" class="cls-1" d="M.026,29.2h0a1.523,1.523,0,0,1,.1.207c0,.026.026.026.026.052s.026.026.026.052l.026.026c.026.052.078.078.1.129l.026.026.052.052a.025.025,0,0,1,.026.026c.026.026.052.026.078.052l.026.026a.025.025,0,0,1,.026.026c.026.026.078.026.1.052.026,0,.026,0,.052.026a.09.09,0,0,1,.052.026A.715.715,0,0,0,.982,30H28.941A1.048,1.048,0,0,0,30,28.941V1.059A1.048,1.048,0,0,0,28.941,0H1.059A1.048,1.048,0,0,0,0,1.059V28.889c0,.078.026.181.026.258V29.2Zm27.933-1.344H4.6L21.86,16.563l6.1,5.814v5.478ZM2.119,2.119h25.84V19.457l-5.245-5.013a1.092,1.092,0,0,0-1.318-.129L16.46,17.571l-3.437-3.463a1.06,1.06,0,0,0-1.318-.155L2.119,20Zm0,20.388,10-6.3,2.532,2.558L2.119,26.951Z" transform="translate(0)"/>
    </g>
  </g>
</svg>
