<?xml version="1.0" encoding="utf-8"?>
<!-- Generator: Adobe Illustrator 22.0.1, SVG Export Plug-In . SVG Version: 6.00 Build 0)  -->
<svg version="1.1" id="Calque_1" xmlns="http://www.w3.org/2000/svg" xmlns:xlink="http://www.w3.org/1999/xlink" x="0px" y="0px"
	 viewBox="0 0 30 30" style="enable-background:new 0 0 30 30;" xml:space="preserve">
<g id="Tracé_315">
	<path style="fill:none;" d="M5,0h20c2.8,0,5,2.2,5,5v20c0,2.8-2.2,5-5,5H5c-2.8,0-5-2.2-5-5V5C0,2.2,2.2,0,5,0z"/>
	<path style="fill:#FFFFFF;" d="M5,1.5C3.1,1.5,1.5,3.1,1.5,5v20c0,1.9,1.6,3.5,3.5,3.5h20c1.9,0,3.5-1.6,3.5-3.5V5
		c0-1.9-1.6-3.5-3.5-3.5H5 M5,0h20c2.8,0,5,2.2,5,5v20c0,2.8-2.2,5-5,5H5c-2.8,0-5-2.2-5-5V5C0,2.2,2.2,0,5,0z"/>
</g>
</svg>
