<svg xmlns="http://www.w3.org/2000/svg" xmlns:xlink="http://www.w3.org/1999/xlink" width="18.5" height="16.6" viewBox="0 0 18.5 16.6">
  <defs>
    <clipPath id="clip-path">
      <rect width="18" height="16.6" fill="none"/>
    </clipPath>
  </defs>
  <g id="Composant_104_54" data-name="Composant 104 – 54" transform="translate(0.5)">
    <g id="Symbole_2_3" data-name="Symbole 2 – 3" clip-path="url(#clip-path)">
      <path id="Tracé_44" data-name="Tracé 44" d="M18,.306H14.451v11.05a1.615,1.615,0,0,1-.926,1.68h-.051a1.6,1.6,0,0,1-1.543-.458,2.654,2.654,0,0,1-.566-1.324L9.874,4.023a5.046,5.046,0,0,0-1.646-3A5.072,5.072,0,0,0,4.937,0a5.131,5.131,0,0,0-3.6,1.222A4.015,4.015,0,0,0,0,4.379V9.522H3.549V5.194a1.658,1.658,0,0,1,.926-1.68h.051a1.143,1.143,0,0,1,.411-.051,1.394,1.394,0,0,1,1.131.509,2.652,2.652,0,0,1,.566,1.375l1.491,7.231a4.936,4.936,0,0,0,1.646,3A5.072,5.072,0,0,0,13.063,16.6a5.219,5.219,0,0,0,3.6-1.222A4.015,4.015,0,0,0,18,12.221Z" transform="translate(0 0)" fill="#40f1a6"/>
    </g>
    <g id="Groupe_843" data-name="Groupe 843" transform="translate(0 15.333) rotate(-90)">
      <g id="Groupe_438" data-name="Groupe 438" transform="translate(0)">
        <path id="Tracé_305" data-name="Tracé 305" d="M5.512,4.569a.588.588,0,0,0-.568,0L3.213,5.617V.25c0-.139-.179-.25-.4-.25s-.4.111-.4.25V5.617L.683,4.565a.594.594,0,0,0-.568,0,.191.191,0,0,0,.006.353L2.532,6.388a.588.588,0,0,0,.568,0l2.4-1.461A.192.192,0,0,0,5.512,4.569Z" fill="#40f1a6" stroke="#40f1a6" stroke-width="1"/>
      </g>
    </g>
  </g>
</svg>
