<svg xmlns="http://www.w3.org/2000/svg" width="50" height="46.702" viewBox="0 0 50 46.702"><g transform="translate(0 0)"><g transform="translate(0 0)"><g transform="translate(0 0)"><path d="M50.041,17.63a.733.733,0,0,0-.049-.254,1.236,1.236,0,0,0-.508-.713l-7.147-4.97V6.353a1.283,1.283,0,0,0-1.279-1.279H32.828L25.818.2a1.279,1.279,0,0,0-1.455,0L17.313,5.074h-8.2A1.283,1.283,0,0,0,7.833,6.353v5.272L.647,16.6A1.262,1.262,0,0,0,.1,17.63v.02L.139,45.4a1.283,1.283,0,0,0,1.289,1.279h0l47.393-.068A1.283,1.283,0,0,0,50.1,45.33Zm-7.7-2.822,4.091,2.841-4.091,2.841ZM25.085,2.819l3.251,2.265H21.815ZM10.391,7.642H39.77V22.278l-9.861,6.854-4.023-3.124c-.01,0-.01-.01-.02-.01a1.275,1.275,0,0,0-1.552.01l-4.052,3.144-9.871-6.815Zm-2.558,7.1v5.819L3.625,17.65ZM2.658,20.1l15.5,10.711L2.687,42.791Zm2.5,24.019L25.1,28.644,44.984,44.061Zm26.87-13.337,15.456-10.74L47.513,42.8Z" transform="translate(-0.1 0.025)" fill="#fff"/></g></g><g transform="translate(15.036 12.783)"><path d="M172.719,130.9h-17.34a1.279,1.279,0,1,0,0,2.558H172.71a1.279,1.279,0,0,0,.01-2.558Z" transform="translate(-154.1 -130.9)" fill="#fff"/></g><g transform="translate(15.036 19.442)"><path d="M172.719,199.1h-17.34a1.279,1.279,0,1,0,0,2.558H172.71a1.279,1.279,0,0,0,.01-2.558Z" transform="translate(-154.1 -199.1)" fill="#fff"/></g></g></svg>