<svg xmlns="http://www.w3.org/2000/svg" xmlns:xlink="http://www.w3.org/1999/xlink" width="21.5" height="18.833" viewBox="0 0 21.5 18.833">
  <defs>
    <clipPath id="clip-path">
      <rect width="21" height="18.6" fill="none"/>
    </clipPath>
  </defs>
  <g id="Composant_104_4" data-name="Composant 104 – 4" transform="translate(0.5)">
    <g id="Symbole_2_3" data-name="Symbole 2 – 3" clip-path="url(#clip-path)">
      <path id="Tracé_44" data-name="Tracé 44" d="M21,.342H16.86V12.723a1.8,1.8,0,0,1-1.08,1.883h-.06a1.916,1.916,0,0,1-1.8-.513,2.917,2.917,0,0,1-.66-1.483l-1.74-8.1A5.6,5.6,0,0,0,9.6,1.141,6.084,6.084,0,0,0,5.76,0a6.141,6.141,0,0,0-4.2,1.369A4.418,4.418,0,0,0,0,4.907v5.763H4.14V5.82A1.846,1.846,0,0,1,5.22,3.937h.06a1.385,1.385,0,0,1,.48-.057,1.656,1.656,0,0,1,1.32.571,2.913,2.913,0,0,1,.66,1.54l1.74,8.1a5.479,5.479,0,0,0,1.92,3.366A6.084,6.084,0,0,0,15.24,18.6a6.247,6.247,0,0,0,4.2-1.369A4.418,4.418,0,0,0,21,13.693Z" transform="translate(0 0)" fill="#fff"/>
    </g>
    <g id="Groupe_843" data-name="Groupe 843" transform="translate(0 18.333) rotate(-90)">
      <g id="Groupe_438" data-name="Groupe 438" transform="translate(0)">
        <path id="Tracé_305" data-name="Tracé 305" d="M7.018,5.818a.749.749,0,0,0-.724,0l-2.2,1.339V.318C4.092.142,3.864,0,3.58,0s-.512.142-.512.318V7.152L.87,5.813a.756.756,0,0,0-.724,0,.244.244,0,0,0,.008.45l3.07,1.866a.749.749,0,0,0,.724,0L7.01,6.268A.245.245,0,0,0,7.018,5.818Z" fill="#fff" stroke="#fff" stroke-width="1"/>
      </g>
    </g>
  </g>
</svg>
