<svg xmlns="http://www.w3.org/2000/svg" width="19.894" height="20" viewBox="0 0 19.894 20"><g transform="translate(0.1)"><g transform="translate(-0.1)"><path d="M11.187,5.636a.417.417,0,0,0-.594,0C9.735,6.428,5.181,10.388.56,11.774H.494a.515.515,0,0,0-.264.264.3.3,0,0,0,0,.33v.066h0A10.141,10.141,0,0,1,1.022,15.8a9.027,9.027,0,0,1-.528,3.5.571.571,0,0,0-.4.2.563.563,0,0,0,0,.858.617.617,0,0,0,.858,0,.75.75,0,0,0,.2-.528L5.577,15.4a.485.485,0,0,0,.132-.4,1.49,1.49,0,0,1,.4-1.452,1.558,1.558,0,0,1,1.056-.462,1.313,1.313,0,0,1,1.056.462,1.558,1.558,0,0,1,.462,1.056,1.313,1.313,0,0,1-.462,1.056,1.558,1.558,0,0,1-1.056.462.837.837,0,0,1-.4-.066.317.317,0,0,0-.4.132L1.946,20.619a.75.75,0,0,0-.528.2.563.563,0,0,0,0,.858.563.563,0,0,0,.858,0,.571.571,0,0,0,.2-.4,9.473,9.473,0,0,1,3.036-.528h.4a8.527,8.527,0,0,1,3.366.792h.066c.066,0,.132.066.2.066a.242.242,0,0,0,.2-.066A.515.515,0,0,0,10,21.279v-.066c1.386-4.62,5.347-9.175,6.139-10.033a.5.5,0,0,0,0-.594Z" transform="translate(0.1 -1.873)" fill="#fff"/><path d="M25.78,5.083,20.83.132A.5.5,0,0,0,20.566,0c-.132,0-.2.066-.33.132L18.124,2.244a.37.37,0,0,0,0,.594l4.95,4.95a.5.5,0,0,0,.33.132c.132,0,.2-.066.33-.132l2.112-2.112A.418.418,0,0,0,25.78,5.083Z" transform="translate(-6.044)" fill="#fff"/></g></g></svg>