<svg xmlns="http://www.w3.org/2000/svg" width="25" height="29.208" viewBox="0 0 25 29.208"><g transform="translate(-185 -208.898)"><g transform="translate(185 208.898)"><path d="M21.8,101H3.189A3.19,3.19,0,0,0,0,104.189v7.523a3.184,3.184,0,0,0,3.189,3.181H5.644v5.171a2.175,2.175,0,0,0,2.171,2.171h9.37a2.175,2.175,0,0,0,2.171-2.171v-5.171h2.455A3.19,3.19,0,0,0,25,111.7v-7.523A3.2,3.2,0,0,0,21.8,101Zm-4.365,19.064a.249.249,0,0,1-.253.253H7.807a.249.249,0,0,1-.253-.253V109.92h9.883v10.144Zm2.494-13.578a1.295,1.295,0,1,1,1.295-1.295A1.3,1.3,0,0,1,19.932,106.486Z" transform="translate(0 -93.027)" fill="#fff"/><path d="M85.2,2.171A2.175,2.175,0,0,0,83.033,0h-9.37A2.168,2.168,0,0,0,71.5,2.171V7.018H85.2Z" transform="translate(-65.856)" fill="#fff"/><path d="M117.06,233.221h5.478a.56.56,0,0,0,0-1.121H117.06a.56.56,0,0,0,0,1.121Z" transform="translate(-107.304 -213.778)" fill="#fff"/><path d="M117.06,261.121h5.478a.56.56,0,1,0,0-1.121H117.06a.56.56,0,1,0,0,1.121Z" transform="translate(-107.304 -239.476)" fill="#fff"/></g></g></svg>