<svg xmlns="http://www.w3.org/2000/svg" width="25.291" height="20" viewBox="0 0 25.291 20"><g transform="translate(-269.978 -94.999)"><g transform="translate(19 -46)"><g transform="translate(250.978 140.999)"><path d="M22.4,2.8H17.724A2.888,2.888,0,0,0,14.842,0H10.449A2.883,2.883,0,0,0,7.567,2.8H2.889A2.884,2.884,0,0,0,0,5.677V17.111A2.886,2.886,0,0,0,2.889,20H22.4a2.886,2.886,0,0,0,2.889-2.889V5.677A2.884,2.884,0,0,0,22.4,2.8ZM6.4,8.246H4.572a1.1,1.1,0,0,1,0-2.21H6.4a1.1,1.1,0,1,1,0,2.21Zm11.168,8.06A4.905,4.905,0,1,1,22.476,11.4,4.905,4.905,0,0,1,17.571,16.306Z" fill="#fff"/><circle cx="2.309" cy="2.309" r="2.309" transform="translate(14.923 13.306) rotate(-80.782)" fill="#fff"/></g></g></g></svg>