<svg xmlns="http://www.w3.org/2000/svg" viewBox="0 0 17.669 21.205"><defs><style>.a{fill:#fff;}</style></defs><path class="a" d="M16.491,0H1.178A1.175,1.175,0,0,0,0,1.165V20.04a1.175,1.175,0,0,0,1.178,1.165H16.491a1.175,1.175,0,0,0,1.178-1.165V1.165A1.175,1.175,0,0,0,16.491,0ZM5.36,18.933a.525.525,0,0,1-.53.524H2.945a.525.525,0,0,1-.53-.524V17.011a.525.525,0,0,1,.53-.524H4.83a.525.525,0,0,1,.53.524Zm0-4.427a.525.525,0,0,1-.53.524H2.945a.525.525,0,0,1-.53-.524V12.583a.525.525,0,0,1,.53-.524H4.83a.525.525,0,0,1,.53.524Zm0-4.427a.525.525,0,0,1-.53.524H2.945a.525.525,0,0,1-.53-.524V8.156a.525.525,0,0,1,.53-.524H4.83a.525.525,0,0,1,.53.524Zm5.065,8.855a.525.525,0,0,1-.53.524H8.01a.525.525,0,0,1-.53-.524V17.011a.525.525,0,0,1,.53-.524H9.895a.525.525,0,0,1,.53.524Zm0-4.427a.525.525,0,0,1-.53.524H8.01a.525.525,0,0,1-.53-.524V12.583a.525.525,0,0,1,.53-.524H9.895a.525.525,0,0,1,.53.524Zm0-4.427a.525.525,0,0,1-.53.524H8.01a.525.525,0,0,1-.53-.524V8.156a.525.525,0,0,1,.53-.524H9.895a.525.525,0,0,1,.53.524Zm5.006,8.855a.525.525,0,0,1-.53.524H13.016a.525.525,0,0,1-.53-.524v-6.35a.525.525,0,0,1,.53-.524H14.9a.525.525,0,0,1,.53.524Zm0-8.855a.525.525,0,0,1-.53.524H13.016a.525.525,0,0,1-.53-.524V8.156a.525.525,0,0,1,.53-.524H14.9a.525.525,0,0,1,.53.524Zm.236-4.894a.588.588,0,0,1-.589.583H2.65a.588.588,0,0,1-.589-.583V2.68A.588.588,0,0,1,2.65,2.1H15.077a.588.588,0,0,1,.589.583Z" transform="translate(0 0)"/></svg>