<svg xmlns="http://www.w3.org/2000/svg" width="19.975" height="20" viewBox="0 0 19.975 20"><g transform="translate(-0.025)"><path d="M19.009,1a3.383,3.383,0,0,0-2.4-1,3.169,3.169,0,0,0-2.4,1L9.542,5.667a1.846,1.846,0,0,0-.6-.067,2.068,2.068,0,0,0-1.467.6,2.03,2.03,0,0,0-.4,2.267l-5.733,5.6a.757.757,0,0,0-.2.533l.067,2.2L.142,18.667a.632.632,0,0,0,.133.867l.267.267a.519.519,0,0,0,.467.2c.133,0,.267,0,.333-.133l1.8-1.133,2.2.133a.757.757,0,0,0,.533-.2L11.542,13a1.775,1.775,0,0,0,.8.2,2.068,2.068,0,0,0,1.467-.6,1.97,1.97,0,0,0,.467-2.067l4.667-4.667A3.4,3.4,0,0,0,19.009,1ZM6.875,14.867l-2.667-.8L8.342,9.933l1.733,1.733Z" transform="translate(0)" fill="#fff"/></g></svg>