<svg xmlns="http://www.w3.org/2000/svg" viewBox="0 0 22.52 20"><defs><style>.a{fill:#fff;}</style></defs><path class="a" d="M8.557,4A4.144,4.144,0,0,0,4.279,0,4.144,4.144,0,0,0,0,4,4.192,4.192,0,0,0,4.279,8a2.865,2.865,0,0,0,1.726-.421L8.557,9.965,6.005,12.421A3.469,3.469,0,0,0,4.279,12,4.192,4.192,0,0,0,0,16a4.192,4.192,0,0,0,4.279,4,4.192,4.192,0,0,0,4.279-4,2.419,2.419,0,0,0-.45-1.614L10.659,12l7.507,7.018H22.52L8.182,5.614A2.881,2.881,0,0,0,8.557,4ZM4.279,6.035A2.111,2.111,0,0,1,2.1,4,2.111,2.111,0,0,1,4.279,1.965,2.111,2.111,0,0,1,6.456,4,2.111,2.111,0,0,1,4.279,6.035Zm0,12a2.04,2.04,0,1,1,0-4.07,2.04,2.04,0,1,1,0,4.07Zm6.456-8.491a.492.492,0,1,1-.525.491A.5.5,0,0,1,10.734,9.544ZM22.52.982H18.241L11.785,7.018l2.177,2.035Z"/></svg>