<svg xmlns="http://www.w3.org/2000/svg" viewBox="0 0 60 60"><defs><style>.a{fill:#6d42c9;}.b,.e{fill:none;}.b{stroke:#fff;stroke-width:1.5px;}.c{fill:#fff;}.d{stroke:none;}</style></defs><g transform="translate(-996 -398)"><path class="a" d="M30,0A30,30,0,1,1,0,30,30,30,0,0,1,30,0Z" transform="translate(996 398)"/><g transform="translate(285.295 -97.238)"><g transform="translate(725.705 509.894)"><g class="b" transform="translate(0)"><rect class="d" width="30" height="30" rx="5"/><rect class="e" x="0.75" y="0.75" width="28.5" height="28.5" rx="4.25"/></g></g><g transform="translate(730.542 519.62)"><g transform="translate(0 0)"><path class="c" d="M.11,31.191l2.944-6.655A1.15,1.15,0,0,1,4.142,23.8h.11a1.134,1.134,0,0,1,1.072.736l2.949,6.655a.932.932,0,0,1,.095.373.884.884,0,0,1-.883.894.942.942,0,0,1-.894-.641l-.568-1.33H2.308l-.594,1.388a.914.914,0,0,1-.857.578A.845.845,0,0,1,0,31.59.952.952,0,0,1,.11,31.191Zm5.23-2.344L4.169,26.06,3,28.846Z" transform="translate(6.162 -30.319)"/><path class="c" d="M176,67.551v-.028c0-1.493,1.138-2.181,2.753-2.181a4.831,4.831,0,0,1,1.671.283v-.117c0-.8-.5-1.249-1.465-1.249a4.533,4.533,0,0,0-1.338.189.8.8,0,0,1-.283.05.791.791,0,0,1-.8-.788.809.809,0,0,1,.522-.755,6,6,0,0,1,2.181-.355,3.16,3.16,0,0,1,2.309.766,2.982,2.982,0,0,1,.738,2.181v3.114a.933.933,0,0,1-.944.932.869.869,0,0,1-.932-.8v-.011a2.629,2.629,0,0,1-2.065.866A2.116,2.116,0,0,1,176,67.551Zm4.451-.45v-.344a2.977,2.977,0,0,0-1.238-.255c-.827,0-1.338.333-1.338.944v.028c0,.522.433.827,1.06.827C179.841,68.3,180.451,67.806,180.451,67.1Z" transform="translate(-168.838 -53.733)"/></g></g><line class="b" x2="28" transform="translate(726.205 524.738)"/></g></g></svg>