<svg xmlns="http://www.w3.org/2000/svg" viewBox="0 0 30 30">
  <defs>
    <style>
      .cls-1, .cls-5 {
        fill: none;
      }

      .cls-1 {
        stroke: #fff;
        stroke-width: 1.5px;
      }

      .cls-2, .cls-3 {
        fill: #fff;
      }

      .cls-3 {
        font-size: 9px;
        font-family: OpenSans-Bold, Open Sans;
        font-weight: 700;
      }

      .cls-4 {
        stroke: none;
      }
    </style>
  </defs>
  <g id="Groupe_163" data-name="Groupe 163" transform="translate(-1011 -483.656)">
    <g id="Groupe_162" data-name="Groupe 162" transform="translate(285.295 -26.238)">
      <g id="Groupe_89" data-name="Groupe 89" transform="translate(725.705 509.894)">
        <g id="Rectangle_568" data-name="Rectangle 568" class="cls-1" transform="translate(0)">
          <rect class="cls-4" width="30" height="30" rx="5"/>
          <rect class="cls-5" x="0.75" y="0.75" width="28.5" height="28.5" rx="4.25"/>
        </g>
      </g>
      <g id="Groupe_88" data-name="Groupe 88" transform="translate(725.047 520.972)">
        <g id="Groupe_87" data-name="Groupe 87" transform="translate(6.162 -6.519)">
          <path id="Tracé_115" data-name="Tracé 115" class="cls-2" d="M.1,30.3l2.589-5.853a1.011,1.011,0,0,1,.957-.647h.1a1,1,0,0,1,.943.647L7.277,30.3a.82.82,0,0,1,.083.328.777.777,0,0,1-.777.786A.829.829,0,0,1,5.8,30.85l-.5-1.17H2.03L1.507,30.9a.8.8,0,0,1-.754.509A.743.743,0,0,1,0,30.651.838.838,0,0,1,.1,30.3Zm4.6-2.062-1.031-2.45-1.031,2.45Z" transform="translate(0 -23.8)"/>
          <path id="Tracé_170" data-name="Tracé 170" class="cls-2" d="M176,66.954V66.93c0-1.313,1-1.918,2.421-1.918a4.249,4.249,0,0,1,1.469.249v-.1c0-.708-.439-1.1-1.289-1.1a3.987,3.987,0,0,0-1.176.166.706.706,0,0,1-.249.044.7.7,0,0,1-.708-.693.711.711,0,0,1,.459-.664,5.273,5.273,0,0,1,1.918-.312,2.779,2.779,0,0,1,2.031.674,2.623,2.623,0,0,1,.649,1.918V67.93a.821.821,0,0,1-.83.82.764.764,0,0,1-.82-.708v-.01a2.312,2.312,0,0,1-1.816.762A1.861,1.861,0,0,1,176,66.954Zm3.915-.4v-.3a2.618,2.618,0,0,0-1.089-.225c-.727,0-1.176.293-1.176.83v.024c0,.459.381.727.932.727C179.378,67.613,179.915,67.179,179.915,66.559Z" transform="translate(-175.121 -49.069)"/>
        </g>
      </g>
      <line id="Ligne_7" data-name="Ligne 7" class="cls-1" x2="28" transform="translate(726.205 524.738)"/>
      <line id="Ligne_8" data-name="Ligne 8" class="cls-1" y2="28" transform="translate(741.205 510.738)"/>
    </g>
    <text id="b" class="cls-3" transform="translate(1030 508)"><tspan x="0" y="0">b</tspan></text>
  </g>
</svg>
