<svg xmlns="http://www.w3.org/2000/svg" viewBox="0 0 30 30">
  <defs>
    <style>
      .cls-1 {
        fill: #fff;
      }
    </style>
  </defs>
  <g id="ICON-Settings" transform="translate(-43 -405)">
    <path id="ICON-Settings-2" data-name="ICON-Settings" class="cls-1" d="M-2055.681,30h-2.645a1.85,1.85,0,0,1-1.83-1.548l-.351-2.106a11.908,11.908,0,0,1-1.981-.815l-1.76,1.253a1.825,1.825,0,0,1-1.072.345,1.842,1.842,0,0,1-1.31-.545l-1.867-1.868a1.843,1.843,0,0,1-.2-2.388l1.235-1.717a11.617,11.617,0,0,1-.858-2.037l-2.131-.363a1.85,1.85,0,0,1-1.548-1.83V13.743a1.85,1.85,0,0,1,1.548-1.83l2.081-.351a11.708,11.708,0,0,1,.833-2.049l-1.253-1.761a1.85,1.85,0,0,1,.2-2.388l1.874-1.868a1.82,1.82,0,0,1,1.31-.545,1.833,1.833,0,0,1,1.078.345l1.723,1.241a11.621,11.621,0,0,1,2.037-.859l.364-2.131A1.85,1.85,0,0,1-2058.375,0h2.638a1.85,1.85,0,0,1,1.83,1.548l.351,2.081a11.794,11.794,0,0,1,2.118.871l1.742-1.241a1.823,1.823,0,0,1,1.072-.345,1.841,1.841,0,0,1,1.31.545l1.868,1.868a1.843,1.843,0,0,1,.2,2.388l-1.241,1.736a11.905,11.905,0,0,1,.846,2.043l2.106.357a1.824,1.824,0,0,1,1.535,1.83v2.638a1.85,1.85,0,0,1-1.548,1.83l-2.106.351a11.841,11.841,0,0,1-.846,2.043l1.241,1.742a1.85,1.85,0,0,1-.2,2.388l-1.867,1.868a1.841,1.841,0,0,1-1.31.545,1.832,1.832,0,0,1-1.078-.345l-1.736-1.241a11.941,11.941,0,0,1-2.043.846l-.357,2.106A1.85,1.85,0,0,1-2055.681,30Zm-6.856-6.292a.872.872,0,0,1,.426.113,10.407,10.407,0,0,0,2.57,1.053.843.843,0,0,1,.62.677l.438,2.632a.163.163,0,0,0,.163.138h2.638a.163.163,0,0,0,.163-.138l.445-2.632a.827.827,0,0,1,.621-.677,10.044,10.044,0,0,0,2.626-1.09.859.859,0,0,1,.434-.118.828.828,0,0,1,.487.156l2.175,1.548a.153.153,0,0,0,.094.031.159.159,0,0,0,.119-.05l1.868-1.868a.171.171,0,0,0,.019-.213l-1.548-2.181a.841.841,0,0,1-.038-.921,10.053,10.053,0,0,0,1.09-2.626.843.843,0,0,1,.677-.62l2.632-.439a.163.163,0,0,0,.138-.163l.006-2.638a.163.163,0,0,0-.138-.163l-2.632-.445a.828.828,0,0,1-.677-.62,10.031,10.031,0,0,0-1.09-2.626.845.845,0,0,1,.038-.921l1.548-2.175a.17.17,0,0,0-.019-.213l-1.868-1.868a.167.167,0,0,0-.119-.05.186.186,0,0,0-.094.031l-2.162,1.554a.845.845,0,0,1-.489.156.855.855,0,0,1-.432-.118,10.184,10.184,0,0,0-2.688-1.1.847.847,0,0,1-.627-.683l-.439-2.613a.163.163,0,0,0-.163-.138h-2.638a.163.163,0,0,0-.163.138l-.451,2.651a.861.861,0,0,1-.621.677,9.92,9.92,0,0,0-2.619,1.1.861.861,0,0,1-.435.118.85.85,0,0,1-.492-.156l-2.162-1.542a.153.153,0,0,0-.094-.031.159.159,0,0,0-.119.05l-1.868,1.868a.171.171,0,0,0-.019.213l1.561,2.193a.838.838,0,0,1,.044.915,10.025,10.025,0,0,0-1.071,2.632.848.848,0,0,1-.683.627l-2.614.439a.163.163,0,0,0-.138.163v2.638a.163.163,0,0,0,.138.163l2.651.451a.86.86,0,0,1,.677.62,9.912,9.912,0,0,0,1.1,2.62.859.859,0,0,1-.038.927l-1.542,2.162a.17.17,0,0,0,.019.213l1.867,1.868a.168.168,0,0,0,.119.05.186.186,0,0,0,.094-.031l2.193-1.56A.826.826,0,0,1-2062.537,23.708Zm5.54-2.237A6.481,6.481,0,0,1-2063.47,15,6.481,6.481,0,0,1-2057,8.523,6.481,6.481,0,0,1-2050.523,15,6.481,6.481,0,0,1-2057,21.471Zm0-11.255A4.787,4.787,0,0,0-2061.778,15,4.787,4.787,0,0,0-2057,19.779,4.787,4.787,0,0,0-2052.215,15,4.787,4.787,0,0,0-2057,10.215Z" transform="translate(2115 405)"/>
  </g>
</svg>
