<svg xmlns="http://www.w3.org/2000/svg" viewBox="0 0 26.036 26.036">
  <defs>
    <style>
      .cls-1 {
        fill: #ffc400;
      }
    </style>
  </defs>
  <g id="Symbole_11_3" data-name="Symbole 11 – 3" transform="translate(-1889 200.665)">
    <path id="Union_11" data-name="Union 11" class="cls-1" d="M15.848,24.9V1.132a1.132,1.132,0,1,1,2.264,0V24.9a1.132,1.132,0,1,1-2.264,0Zm-3.962-3.4V4.528a1.132,1.132,0,1,1,2.264,0v16.98a1.132,1.132,0,1,1-2.264,0Zm7.924-1.7V6.226a1.132,1.132,0,0,1,2.264,0V19.81a1.132,1.132,0,0,1-2.264,0Zm-15.848,0V6.226a1.132,1.132,0,0,1,2.264,0V19.81a1.132,1.132,0,1,1-2.264,0Zm19.81-2.83V9.056a1.132,1.132,0,0,1,2.264,0V16.98a1.132,1.132,0,0,1-2.264,0Zm-15.848,0V9.056a1.132,1.132,0,0,1,2.264,0V16.98a1.132,1.132,0,0,1-2.264,0ZM0,16.414V9.622a1.132,1.132,0,1,1,2.264,0v6.792a1.132,1.132,0,1,1-2.264,0Z" transform="translate(1889 -200.665)"/>
  </g>
</svg>
