<svg xmlns="http://www.w3.org/2000/svg" width="20" height="20" viewBox="0 0 20 20"><g transform="translate(-9 -5)"><g transform="translate(9 5)"><path d="M328.725,326h-.972a.516.516,0,0,0-.514.514v.725h-.725a.516.516,0,0,0-.514.514v.972a.516.516,0,0,0,.514.514h2.211a.516.516,0,0,0,.514-.514v-2.211A.516.516,0,0,0,328.725,326Z" transform="translate(-309.239 -309.239)" fill="#fff"/><path d="M101.637,350.1H98.614a.516.516,0,0,0-.514.514v.972a.516.516,0,0,0,.514.514h3.023a.516.516,0,0,0,.514-.514v-.972A.516.516,0,0,0,101.637,350.1Z" transform="translate(-93.056 -332.1)" fill="#fff"/><path d="M215.637,350.1h-3.023a.516.516,0,0,0-.514.514v.972a.516.516,0,0,0,.514.514h3.023a.516.516,0,0,0,.514-.514v-.972A.516.516,0,0,0,215.637,350.1Z" transform="translate(-201.195 -332.1)" fill="#fff"/><path d="M2.725,327.239H2v-.725A.516.516,0,0,0,1.486,326H.514a.516.516,0,0,0-.514.514v2.211a.516.516,0,0,0,.514.514H2.725a.516.516,0,0,0,.514-.514v-.972A.516.516,0,0,0,2.725,327.239Z" transform="translate(0 -309.239)" fill="#fff"/><path d="M.514,216.151h.972A.516.516,0,0,0,2,215.637v-3.023a.516.516,0,0,0-.514-.514H.514a.516.516,0,0,0-.514.514v3.023A.516.516,0,0,0,.514,216.151Z" transform="translate(0 -201.195)" fill="#fff"/><path d="M.514,102.151h.972A.516.516,0,0,0,2,101.637V98.614a.516.516,0,0,0-.514-.514H.514A.516.516,0,0,0,0,98.614v3.023A.516.516,0,0,0,.514,102.151Z" transform="translate(0 -93.056)" fill="#fff"/><path d="M2.725,0H.514A.516.516,0,0,0,0,.514V2.725a.516.516,0,0,0,.514.514h.972A.516.516,0,0,0,2,2.725V2h.725a.516.516,0,0,0,.514-.514V.514A.516.516,0,0,0,2.725,0Z" fill="#fff"/><path d="M215.637,0h-3.023a.516.516,0,0,0-.514.514v.972a.516.516,0,0,0,.514.514h3.023a.516.516,0,0,0,.514-.514V.514A.516.516,0,0,0,215.637,0Z" transform="translate(-201.195)" fill="#fff"/><path d="M98.614,2h3.023a.516.516,0,0,0,.514-.514V.514A.516.516,0,0,0,101.637,0H98.614A.516.516,0,0,0,98.1.514v.972A.516.516,0,0,0,98.614,2Z" transform="translate(-93.056)" fill="#fff"/><path d="M328.725,0h-2.211A.516.516,0,0,0,326,.514v.972a.516.516,0,0,0,.514.514h.725v.725a.516.516,0,0,0,.514.514h.972a.516.516,0,0,0,.514-.514V.514A.516.516,0,0,0,328.725,0Z" transform="translate(-309.239)" fill="#fff"/><path d="M351.586,212.1h-.972a.516.516,0,0,0-.514.514v3.023a.516.516,0,0,0,.514.514h.972a.516.516,0,0,0,.514-.514v-3.023A.516.516,0,0,0,351.586,212.1Z" transform="translate(-332.1 -201.195)" fill="#fff"/><path d="M351.586,98.1h-.972a.516.516,0,0,0-.514.514v3.023a.516.516,0,0,0,.514.514h.972a.516.516,0,0,0,.514-.514V98.614A.516.516,0,0,0,351.586,98.1Z" transform="translate(-332.1 -93.056)" fill="#fff"/></g></g></svg>