<svg xmlns="http://www.w3.org/2000/svg" width="47.027" height="50" viewBox="0 0 47.027 50"><g transform="translate(0 0)"><path d="M40.62,19.013V17.09A17.561,17.561,0,0,0,36.04,5.042,15.8,15.8,0,0,0,24.317,0H22.731A15.8,15.8,0,0,0,11.008,5.042,17.561,17.561,0,0,0,6.429,17.09v1.922A6.9,6.9,0,0,0,0,25.882v3a6.89,6.89,0,0,0,6.88,6.88h3.876a1.264,1.264,0,0,0,1.261-1.26V20.252a1.264,1.264,0,0,0-1.261-1.261H8.95v-1.9c0-8.309,5.924-14.569,13.771-14.569h1.586c7.857,0,13.771,6.261,13.771,14.569v1.9H36.271a1.264,1.264,0,0,0-1.26,1.261V34.5a1.264,1.264,0,0,0,1.26,1.261h1.765c-.515,6.576-5.042,8.1-7.143,8.445a4.432,4.432,0,0,0-4.212-3.057H23.529a4.428,4.428,0,0,0,0,8.855h3.162a4.433,4.433,0,0,0,4.265-3.256,11.923,11.923,0,0,0,4.275-1.46c2.279-1.334,4.979-4.055,5.336-9.538a6.888,6.888,0,0,0,6.46-6.87v-3A6.863,6.863,0,0,0,40.62,19.013ZM9.517,33.235H6.9a4.362,4.362,0,0,1-4.359-4.359v-3A4.362,4.362,0,0,1,6.9,21.513H9.517ZM26.691,47.479H23.529a1.9,1.9,0,0,1,0-3.8h3.162a1.9,1.9,0,1,1,0,3.8Zm17.826-18.6a4.362,4.362,0,0,1-4.359,4.359H37.542V21.513h2.616a4.362,4.362,0,0,1,4.359,4.359Z" transform="translate(0 0)" fill="#fff"/></g></svg>