<svg xmlns="http://www.w3.org/2000/svg" viewBox="0 0 20.51 21.877"><defs><style>.a{fill:#fff;}</style></defs><path class="a" d="M20.322,1.47,19.04.188A.64.64,0,0,0,18.587,0H5.016A1.91,1.91,0,0,0,3.658.564L.564,3.658A1.91,1.91,0,0,0,0,5.016V19.955a1.926,1.926,0,0,0,1.923,1.923H18.587a1.926,1.926,0,0,0,1.923-1.923V1.923A.64.64,0,0,0,20.322,1.47ZM6.409,1.278c4.837,0,5.728,0,8.973,0V5.768a.64.64,0,0,1-.641.641H7.05a.64.64,0,0,1-.641-.641ZM15.382,20.6H5.127V12.861H15.382Zm0-7.734H5.127v-.641a.644.644,0,0,1,.641-.645h8.973a.644.644,0,0,1,.641.645Zm3.846,7.093a.64.64,0,0,1-.641.641H16.664V12.221A1.926,1.926,0,0,0,14.742,10.3H5.768a1.926,1.926,0,0,0-1.923,1.923V20.6H1.923a.64.64,0,0,1-.641-.641V5.016a.64.64,0,0,1,.188-.453L4.563,1.47a.64.64,0,0,1,.453-.188h.111V5.768A1.922,1.922,0,0,0,7.05,7.687h7.691a1.922,1.922,0,0,0,1.923-1.919V1.282h1.658l.906.906Z"/></svg>