<svg xmlns="http://www.w3.org/2000/svg" viewBox="0 0 23.44 31.5">
  <g id="Groupe_169" data-name="Groupe 169" transform="translate(0.75 0.75)">
    <path id="Tracé_174" data-name="Tracé 174" class="cls-1" fill="none" stroke="#fff" stroke-width="1.5px" d="M16.669,6.874C14.107,3.222,11.509.267,11.481.237a.669.669,0,0,0-1.022,0c-.028.03-2.625,2.985-5.188,6.644C1.771,11.867,0,15.748,0,18.4,0,24.8,4.922,30,10.97,30a10.933,10.933,0,0,0,9.022-5.011,11.763,11.763,0,0,0,1.948-6.6C21.94,15.748,20.162,11.874,16.669,6.874Zm-4.607,19.37a7.428,7.428,0,0,1-1.764.215,7.9,7.9,0,0,1-7.652-8.1,8.775,8.775,0,0,1,1.036-3.548.383.383,0,0,1,.469-.215.428.428,0,0,1,.28.452,4.142,4.142,0,0,0-.028.489,10.6,10.6,0,0,0,2.75,7.045,10.1,10.1,0,0,0,.718.73,9.054,9.054,0,0,0,4.184,2.114.408.408,0,0,1,.315.407A.417.417,0,0,1,12.062,26.244Z"/>
    <path id="Tracé_175" data-name="Tracé 175" class="cls-2" fill="#fff" d="M3.9,14.136S-1.325,27,12.322,25.193C7.146,22.052,3.976,20.016,3.9,14.136Z" transform="translate(0 0.821)"/>
  </g>
</svg>
