<svg xmlns="http://www.w3.org/2000/svg" width="20" height="20" viewBox="0 0 20 20"><path d="M7.879,0h-6.8A1.079,1.079,0,0,0,0,1.074V7.852A1.079,1.079,0,0,0,1.077,8.926h6.8A1.079,1.079,0,0,0,8.956,7.852V1.074A1.079,1.079,0,0,0,7.879,0Z" fill="#fff"/><path d="M171.879,0h-6.8A1.079,1.079,0,0,0,164,1.074V7.852a1.079,1.079,0,0,0,1.077,1.074h6.8a1.079,1.079,0,0,0,1.077-1.074V1.074A1.079,1.079,0,0,0,171.879,0Z" transform="translate(-152.956)" fill="#fff"/><path d="M7.879,165h-6.8A1.079,1.079,0,0,0,0,166.074v6.779a1.079,1.079,0,0,0,1.077,1.074h6.8a1.079,1.079,0,0,0,1.077-1.074v-6.779A1.079,1.079,0,0,0,7.879,165Z" transform="translate(0 -153.926)" fill="#fff"/><path d="M171.879,165h-6.8A1.079,1.079,0,0,0,164,166.074v6.779a1.079,1.079,0,0,0,1.077,1.074h6.8a1.079,1.079,0,0,0,1.077-1.074v-6.779A1.079,1.079,0,0,0,171.879,165Z" transform="translate(-152.956 -153.926)" fill="#fff"/></svg>