<svg xmlns="http://www.w3.org/2000/svg" width="25" height="25" viewBox="0 0 25 25"><g transform="translate(-325 -141)"><path d="M12.5,0A12.5,12.5,0,1,0,25,12.5,12.5,12.5,0,0,0,12.5,0ZM7.66,2.929a10.725,10.725,0,0,0-.641,1,13.317,13.317,0,0,0-.827,1.75c-.519-.141-1.032-.3-1.545-.481A10.8,10.8,0,0,1,7.66,2.929ZM3.353,6.9c.731.276,1.474.519,2.218.724a19.511,19.511,0,0,0-.558,3.853H1.821A10.688,10.688,0,0,1,3.353,6.9Zm0,11.192a10.688,10.688,0,0,1-1.532-4.577H5.006a20,20,0,0,0,.558,3.853C4.827,17.583,4.083,17.821,3.353,18.1ZM4.647,19.8c.513-.179,1.026-.34,1.545-.481a13.763,13.763,0,0,0,.827,1.75,10.725,10.725,0,0,0,.641,1A10.8,10.8,0,0,1,4.647,19.8Zm6.833,2.9a6.578,6.578,0,0,1-3.276-3.84,23.5,23.5,0,0,1,3.276-.372Zm0-6.256a25.3,25.3,0,0,0-3.917.462,17.414,17.414,0,0,1-.506-3.378h4.423Zm0-4.962H7.058A17.841,17.841,0,0,1,7.564,8.1a25.394,25.394,0,0,0,3.917.462Zm0-4.968a23.616,23.616,0,0,1-3.276-.372A6.6,6.6,0,0,1,11.481,2.3ZM21.647,6.9a10.688,10.688,0,0,1,1.532,4.577H19.994a20,20,0,0,0-.558-3.853C20.173,7.423,20.917,7.179,21.647,6.9ZM20.353,5.2c-.513.179-1.026.34-1.545.481a13.763,13.763,0,0,0-.827-1.75,10.725,10.725,0,0,0-.641-1A10.8,10.8,0,0,1,20.353,5.2ZM13.519,2.3a6.578,6.578,0,0,1,3.276,3.84,23.505,23.505,0,0,1-3.276.372Zm0,6.256A25.3,25.3,0,0,0,17.436,8.1a17.414,17.414,0,0,1,.506,3.378H13.519V8.558Zm0,4.962h4.423a17.84,17.84,0,0,1-.506,3.378,25.394,25.394,0,0,0-3.917-.462V13.519Zm0,9.179V18.487a23.616,23.616,0,0,1,3.276.372A6.6,6.6,0,0,1,13.519,22.7Zm3.821-.628a10.725,10.725,0,0,0,.641-1,13.317,13.317,0,0,0,.827-1.75c.519.141,1.032.3,1.545.481A10.8,10.8,0,0,1,17.34,22.071ZM21.647,18.1c-.731-.276-1.474-.519-2.218-.724a19.511,19.511,0,0,0,.558-3.853h3.186A10.6,10.6,0,0,1,21.647,18.1Z" transform="translate(325 141)" fill="#fff"/></g></svg>