<svg xmlns="http://www.w3.org/2000/svg" width="49.414" height="50" viewBox="0 0 49.414 50"><g transform="translate(0 0)"><path d="M41.533,31.182a20.137,20.137,0,1,0-33.652,0L0,42.666l9.014-1.68L10.693,50l7.432-10.83a20.181,20.181,0,0,0,13.164,0L38.721,50l1.68-9.014,9.014,1.68ZM12.285,42.471l-.918-4.912-4.912.918,3.32-4.834a20.4,20.4,0,0,0,5.6,4.346ZM7.52,20.137A17.188,17.188,0,1,1,24.707,37.324,17.207,17.207,0,0,1,7.52,20.137ZM38.047,37.549l-.918,4.912-3.086-4.492a20.4,20.4,0,0,0,5.6-4.346l3.32,4.834Z" fill="#fff"/><path d="M152.675,140.873l-4.795-4.795-2.08,2.08,6.875,6.875,14.053-14.053-2.08-2.08Z" transform="translate(-131.562 -116.312)" fill="#fff"/></g></svg>