<svg id="Calque_1" data-name="Calque 1" xmlns="http://www.w3.org/2000/svg" viewBox="0 0 18.5 16.61"><defs><style>.cls-1,.cls-2{fill:#40f1a6;}.cls-1{stroke:#40f1a6;}</style></defs><title>nemeioSync</title><path id="Tracé_305" data-name="Tracé 305" class="cls-1" d="M5.07,9.82a.58.58,0,0,0,0,.57l1,1.73H.75c-.14,0-.25.18-.25.4s.11.4.25.4H6.12l-1,1.73a.58.58,0,0,0,0,.57.2.2,0,0,0,.25.1.22.22,0,0,0,.1-.11L6.89,12.8a.58.58,0,0,0,0-.57L5.43,9.83a.21.21,0,0,0-.25-.12A.2.2,0,0,0,5.07,9.82Z" transform="translate(0 0.01)"/><path id="Tracé_44" data-name="Tracé 44" class="cls-2" d="M18.5.31H15v11A1.63,1.63,0,0,1,14,13H14a1.61,1.61,0,0,1-1.54-.46,2.59,2.59,0,0,1-.56-1.33L10.37,4A5,5,0,0,0,8.73,1,5.13,5.13,0,0,0,5.44,0a5.13,5.13,0,0,0-3.6,1.22A4,4,0,0,0,.5,4.38V9.52H4.05V5.19A1.66,1.66,0,0,1,5,3.51H5a1.13,1.13,0,0,1,.41,0A1.42,1.42,0,0,1,6.57,4a2.67,2.67,0,0,1,.56,1.38l1.5,7.23a4.91,4.91,0,0,0,1.64,3,5.13,5.13,0,0,0,3.29,1,5.24,5.24,0,0,0,3.6-1.22,4,4,0,0,0,1.34-3.16Z" transform="translate(0 0.01)"/></svg>