<?xml version="1.0" encoding="UTF-8" standalone="no"?>
<!-- Generator: Adobe Illustrator 24.0.0, SVG Export Plug-In . SVG Version: 6.00 Build 0)  -->

<svg
   xmlns:dc="http://purl.org/dc/elements/1.1/"
   xmlns:cc="http://creativecommons.org/ns#"
   xmlns:rdf="http://www.w3.org/1999/02/22-rdf-syntax-ns#"
   xmlns:svg="http://www.w3.org/2000/svg"
   xmlns="http://www.w3.org/2000/svg"
   xmlns:sodipodi="http://sodipodi.sourceforge.net/DTD/sodipodi-0.dtd"
   xmlns:inkscape="http://www.inkscape.org/namespaces/inkscape"
   version="1.1"
   id="Keyboards-selected"
   x="0px"
   y="0px"
   viewBox="0 0 50 50"
   style="enable-background:new 0 0 50 50;"
   xml:space="preserve"
   sodipodi:docname="augmented.svg"
   inkscape:version="0.92.4 (5da689c313, 2019-01-14)"><metadata
   id="metadata21"><rdf:RDF><cc:Work
       rdf:about=""><dc:format>image/svg+xml</dc:format><dc:type
         rdf:resource="http://purl.org/dc/dcmitype/StillImage" /><dc:title></dc:title></cc:Work></rdf:RDF></metadata><defs
   id="defs19" /><sodipodi:namedview
   pagecolor="#ffffff"
   bordercolor="#666666"
   borderopacity="1"
   objecttolerance="10"
   gridtolerance="10"
   guidetolerance="10"
   inkscape:pageopacity="0"
   inkscape:pageshadow="2"
   inkscape:window-width="2560"
   inkscape:window-height="1377"
   id="namedview17"
   showgrid="false"
   inkscape:pagecheckerboard="true"
   inkscape:zoom="18.88"
   inkscape:cx="17.219639"
   inkscape:cy="26.741285"
   inkscape:window-x="1912"
   inkscape:window-y="-8"
   inkscape:window-maximized="1"
   inkscape:current-layer="Keyboards-selected" />
<style
   type="text/css"
   id="style2">
	.st0{fill:#FFC400;}
</style>
<g
   id="Groupe_16">
	<path
   id="Tracé_63"
   class="st0"
   d="M45,32V18c0-0.8-1-1.5-2.3-1.5H7.3C6,16.5,5,17.1,5,18v14c0,0.8,1,1.5,2.3,1.5h35.4   C44,33.5,45,32.9,45,32z M7,32V18c0-0.1,0.1-0.1,0.3-0.1h35.4c0.2,0,0.3,0.1,0.3,0.1v14c0,0.1-0.1,0.1-0.3,0.1H7.3   C7.1,32.1,7,32.1,7,32z" />
	<ellipse
   id="Ellipse_50"
   class="st0"
   cx="18.4"
   cy="21.5"
   rx="1.2"
   ry="1.3" />
	<ellipse
   id="Ellipse_51"
   class="st0"
   cx="21.9"
   cy="21.5"
   rx="1.2"
   ry="1.3" />
	<ellipse
   id="Ellipse_52"
   class="st0"
   cx="25.3"
   cy="21.5"
   rx="1.2"
   ry="1.3" />
	<ellipse
   id="Ellipse_53"
   class="st0"
   cx="28.7"
   cy="21.5"
   rx="1.2"
   ry="1.3" />
	<ellipse
   id="Ellipse_54"
   class="st0"
   cx="32.1"
   cy="21.5"
   rx="1.2"
   ry="1.3" />
	<ellipse
   id="Ellipse_56"
   class="st0"
   cx="20.2"
   cy="25"
   rx="1.2"
   ry="1.3" />
	<ellipse
   id="Ellipse_57"
   class="st0"
   cx="23.6"
   cy="25"
   rx="1.2"
   ry="1.3" />
	<ellipse
   id="Ellipse_58"
   class="st0"
   cx="27"
   cy="25"
   rx="1.2"
   ry="1.3" />
	<ellipse
   id="Ellipse_59"
   class="st0"
   cx="30.4"
   cy="25"
   rx="1.2"
   ry="1.3" />
	<path
   id="Tracé_65"
   class="st0"
   d="M33.9,27.5H16.1c-0.6,0-1,0.5-1,1c0,0.6,0.5,1,1,1h17.8c0.6,0,1-0.5,1-1   C34.9,28,34.5,27.5,33.9,27.5L33.9,27.5z" />
</g>
<path
   style="fill:#ff00ff;stroke-width:0.0529661"
   d="M 6.4815324,33.378334 C 5.8714908,33.214042 5.349266,32.850049 5.1388796,32.442499 5.0403797,32.251689 5.0374354,32.035141 5.0374354,24.981446 v -7.26454 l 0.1423452,-0.261535 c 0.2513968,-0.461899 0.8025723,-0.771468 1.587479,-0.891613 0.2485168,-0.03804 6.0442554,-0.0509 18.4502604,-0.04095 17.478842,0.01402 18.097733,0.01783 18.379238,0.113108 0.661657,0.223944 1.089534,0.544508 1.276625,0.956444 0.09401,0.206996 0.09822,0.519648 0.09933,7.386906 8.58e-4,5.291682 -0.01494,7.224526 -0.06031,7.375932 -0.08746,0.291914 -0.357194,0.582406 -0.720683,0.776144 -0.662664,0.353196 0.867806,0.327356 -19.21255,0.324377 C 9.4729305,33.453419 6.717527,33.44189 6.4815324,33.378334 Z M 42.930349,32.103683 c 0.07582,-0.02909 0.08378,-0.703182 0.08378,-7.09179 0,-6.388609 -0.008,-7.062697 -0.08378,-7.091791 -0.04608,-0.01768 -8.149893,-0.03215 -18.008474,-0.03215 H 6.9971812 v 7.093044 c 0,5.624876 0.013704,7.098573 0.066208,7.119759 0.095395,0.03849 35.7666918,0.0414 35.8669598,0.0029 z"
   id="path3722"
   inkscape:connector-curvature="0" /><path
   style="fill:#ff00ff;stroke-width:0.0529661"
   d="m 17.961164,22.679259 c -0.956562,-0.429143 -0.977075,-1.893832 -0.03268,-2.333566 0.324579,-0.151132 0.619576,-0.159789 0.906622,-0.0266 0.65967,0.306075 0.919435,1.121488 0.573042,1.798805 -0.211939,0.414414 -0.496622,0.606327 -0.931653,0.628055 -0.217576,0.01087 -0.393085,-0.01185 -0.51533,-0.06669 z"
   id="path3724"
   inkscape:connector-curvature="0" /><path
   style="fill:#ff00ff;stroke-width:0.0529661"
   d="m 21.456927,22.679259 c -0.949393,-0.425927 -0.97863,-1.857185 -0.04742,-2.321228 0.331421,-0.165155 0.622796,-0.17747 0.921358,-0.03894 0.665918,0.308974 0.933153,1.149235 0.576085,1.81137 -0.216831,0.402086 -0.508593,0.594208 -0.934696,0.61549 -0.217577,0.01087 -0.393085,-0.01185 -0.51533,-0.06669 z"
   id="path3726"
   inkscape:connector-curvature="0" /><path
   style="fill:#ff00ff;stroke-width:0.0529661"
   d="m 24.788881,22.637625 c -0.597863,-0.315553 -0.837026,-1.10689 -0.523036,-1.730605 0.430094,-0.854347 1.512659,-0.913788 1.995605,-0.109574 0.207179,0.345001 0.260001,0.652714 0.173757,1.01222 -0.184614,0.769559 -0.989778,1.174487 -1.646326,0.827959 z"
   id="path3728"
   inkscape:connector-curvature="0" /><path
   style="fill:#ff00ff;stroke-width:0.0529661"
   d="m 28.194412,22.648111 c -0.409501,-0.202698 -0.647096,-0.633538 -0.64522,-1.170004 0.0014,-0.41306 0.121247,-0.690746 0.410538,-0.951567 0.362693,-0.326999 0.766469,-0.387349 1.209963,-0.180847 0.949779,0.442242 0.921588,1.92944 -0.04422,2.332881 -0.278732,0.116433 -0.659459,0.103977 -0.931059,-0.03046 z"
   id="path3730"
   inkscape:connector-curvature="0" /><path
   style="fill:#ff00ff;stroke-width:0.0529661"
   d="m 31.651102,22.686679 c -0.409295,-0.17831 -0.710176,-0.663977 -0.71208,-1.149404 -0.002,-0.49975 0.161075,-0.834701 0.53983,-1.10907 0.902364,-0.653669 2.069144,0.354184 1.728045,1.492668 -0.07888,0.263285 -0.36987,0.602805 -0.63067,0.735855 -0.23793,0.121383 -0.682232,0.135767 -0.925125,0.02995 z"
   id="path3732"
   inkscape:connector-curvature="0" /><path
   style="fill:#ff00ff;stroke-width:0.0529661"
   d="m 29.886047,26.142251 c -0.250064,-0.123778 -0.495524,-0.419949 -0.593113,-0.715648 -0.03377,-0.102319 -0.05215,-0.349675 -0.04085,-0.549679 0.01689,-0.298915 0.04881,-0.403856 0.179323,-0.589553 0.369271,-0.525408 0.891019,-0.692927 1.413362,-0.453791 0.582666,0.266754 0.862253,0.932073 0.666394,1.585789 -0.07685,0.256499 -0.403118,0.635768 -0.646124,0.751082 -0.259684,0.123228 -0.69861,0.110585 -0.978992,-0.0282 z"
   id="path3734"
   inkscape:connector-curvature="0" /><path
   style="fill:#ff00ff;stroke-width:0.0529661"
   d="m 26.568156,26.183034 c -0.44894,-0.196121 -0.726685,-0.641225 -0.730795,-1.171141 -0.006,-0.76727 0.627742,-1.382725 1.311197,-1.273458 1.168142,0.186755 1.401512,1.868684 0.335373,2.41708 -0.229687,0.118145 -0.677519,0.131602 -0.915775,0.02752 z"
   id="path3736"
   inkscape:connector-curvature="0" /><path
   style="fill:#ff00ff;stroke-width:0.0529661"
   d="m 23.090509,26.149558 c -0.432772,-0.22863 -0.72728,-0.820483 -0.654311,-1.314924 0.146178,-0.990499 1.193693,-1.443645 1.887736,-0.816619 0.520645,0.470371 0.600428,1.228042 0.187039,1.776235 -0.327165,0.433851 -0.968251,0.594209 -1.420464,0.355308 z"
   id="path3738"
   inkscape:connector-curvature="0" /><path
   style="fill:#ff00ff;stroke-width:0.0529661"
   d="m 19.735529,26.171655 c -0.731016,-0.398145 -0.931907,-1.345673 -0.425945,-2.009023 0.155538,-0.203921 0.617796,-0.448532 0.846832,-0.448113 0.452752,8.26e-4 0.91182,0.304941 1.099898,0.728637 0.242585,0.546488 0.04575,1.30149 -0.424021,1.626456 -0.187232,0.129518 -0.290124,0.160059 -0.582627,0.172941 -0.252809,0.01113 -0.401056,-0.0093 -0.514137,-0.0709 z"
   id="path3740"
   inkscape:connector-curvature="0" /><path
   style="fill:#00d455;stroke-width:0.0529661"
   d="m 15.771291,29.410269 c -0.478393,-0.17057 -0.744446,-0.66889 -0.614591,-1.151135 0.0738,-0.274078 0.382863,-0.610278 0.62543,-0.680349 0.13246,-0.03826 3.055029,-0.05082 9.337788,-0.04011 l 9.144982,0.01559 0.203535,0.162664 c 0.262735,0.209977 0.38873,0.462593 0.388834,0.779594 1.59e-4,0.432292 -0.232923,0.776658 -0.618764,0.914266 -0.302046,0.107723 -18.165039,0.10722 -18.467214,-5.19e-4 z"
   id="path3742"
   inkscape:connector-curvature="0" /><path
   style="fill:#00d455;stroke-width:0.0529661"
   d="m 19.680305,26.10785 c -0.203434,-0.127708 -0.442762,-0.409666 -0.53543,-0.630803 -0.03928,-0.09374 -0.07142,-0.311302 -0.07142,-0.483468 0,-0.528227 0.205782,-0.876172 0.651876,-1.102225 0.481144,-0.243814 0.948239,-0.137168 1.3245,0.302408 0.442142,0.516544 0.349468,1.379036 -0.195576,1.820176 -0.179414,0.145212 -0.245155,0.164595 -0.606998,0.178964 -0.327026,0.01299 -0.437074,-0.0035 -0.566949,-0.08505 z"
   id="path3744"
   inkscape:connector-curvature="0" /><path
   style="fill:#00d455;stroke-width:0.0529661"
   d="m 23.238562,26.181087 c -0.616028,-0.22586 -0.956727,-1.082441 -0.676175,-1.700031 0.369124,-0.81257 1.302888,-0.958331 1.87293,-0.292366 0.514701,0.601312 0.34823,1.560524 -0.331328,1.909118 -0.269979,0.138491 -0.622354,0.1724 -0.865427,0.08328 z"
   id="path3746"
   inkscape:connector-curvature="0" /><path
   style="fill:#00d455;stroke-width:0.0529661"
   d="m 18.384893,29.440876 c -1.903718,-0.02381 -2.652473,-0.05038 -2.733732,-0.09698 -0.06155,-0.0353 -0.185507,-0.148006 -0.275459,-0.250456 -0.376165,-0.428428 -0.246919,-1.093227 0.27433,-1.41107 0.161751,-0.09863 0.402451,-0.10123 9.393505,-0.101422 l 9.227501,-1.98e-4 0.18993,0.16676 c 0.259323,0.227689 0.357613,0.439659 0.354689,0.764921 -0.0043,0.478149 -0.260955,0.805079 -0.685529,0.87322 -0.337657,0.05419 -12.435678,0.09663 -15.745235,0.05523 z"
   id="path3748"
   inkscape:connector-curvature="0" /><path
   style="fill:#00d455;stroke-width:0.0529661"
   d="m 17.881715,22.61134 c -0.524576,-0.336453 -0.734484,-0.929288 -0.548653,-1.549538 0.175572,-0.586006 0.89352,-0.947306 1.45887,-0.734161 0.201898,0.07612 0.478489,0.348494 0.615241,0.605862 0.257467,0.484557 0.07935,1.257305 -0.368548,1.59894 -0.167703,0.127915 -0.251931,0.151191 -0.59664,0.164876 -0.324305,0.01288 -0.431881,-0.0036 -0.56027,-0.08598 z"
   id="path3750"
   inkscape:connector-curvature="0" /><path
   style="fill:#00d455;stroke-width:0.0529661"
   d="m 21.377478,22.608448 c -0.405224,-0.252529 -0.609406,-0.622871 -0.608593,-1.103858 0.0013,-0.798442 0.643784,-1.352621 1.402936,-1.210203 0.232553,0.04363 0.577442,0.342623 0.721951,0.625884 0.305243,0.598325 0.07537,1.396573 -0.484414,1.682153 -0.277202,0.141418 -0.809631,0.144527 -1.03188,0.006 z"
   id="path3752"
   inkscape:connector-curvature="0" /><path
   style="fill:#00d455;stroke-width:0.0529661"
   d="m 25.085105,22.711168 c -0.390557,-0.09474 -0.642658,-0.308353 -0.816524,-0.69186 -0.2689,-0.593131 -0.01005,-1.370012 0.546186,-1.639283 0.764492,-0.370085 1.623538,0.22451 1.61981,1.121162 -0.0013,0.303449 -0.142116,0.675834 -0.333162,0.880797 -0.239111,0.256529 -0.700182,0.405871 -1.01631,0.329184 z"
   id="path3754"
   inkscape:connector-curvature="0" /><path
   style="fill:#00d455;stroke-width:0.0529661"
   d="m 28.210105,22.624573 c -0.414319,-0.215483 -0.618457,-0.588539 -0.618457,-1.130208 0,-0.450898 0.09839,-0.675753 0.4193,-0.958228 0.259934,-0.228804 0.473827,-0.292303 0.844039,-0.250575 0.937589,0.10568 1.312832,1.460357 0.593048,2.140985 -0.09824,0.09289 -0.245705,0.194187 -0.327713,0.225105 -0.220474,0.08312 -0.727321,0.06804 -0.910217,-0.02708 z"
   id="path3756"
   inkscape:connector-curvature="0" /><path
   style="fill:#00d455;stroke-width:0.0529661"
   d="m 31.600054,22.624424 c -0.231554,-0.120735 -0.312248,-0.206216 -0.47234,-0.500357 -0.27806,-0.510889 -0.164391,-1.207778 0.257407,-1.578117 0.254566,-0.223509 0.39244,-0.274523 0.741938,-0.274523 0.60184,0 1.094963,0.558818 1.094963,1.240836 0,0.213183 -0.03318,0.406413 -0.08869,0.516515 -0.111762,0.221675 -0.377713,0.506494 -0.564136,0.604159 -0.193237,0.101235 -0.768351,0.09618 -0.969143,-0.0085 z"
   id="path3758"
   inkscape:connector-curvature="0" /><path
   style="fill:#00d455;stroke-width:0.0529661"
   d="m 29.984469,26.165413 c -0.183316,-0.06888 -0.393019,-0.25803 -0.535958,-0.483422 -0.134284,-0.211743 -0.152601,-0.28983 -0.152601,-0.650537 0,-0.478241 0.03823,-0.600847 0.269509,-0.864255 0.724933,-0.825653 1.968309,-0.296014 1.968309,0.838437 0,0.202738 -0.03361,0.395175 -0.08706,0.498547 -0.122111,0.236137 -0.391427,0.531908 -0.567006,0.622703 -0.145358,0.07517 -0.730644,0.100357 -0.895192,0.03853 z"
   id="path3760"
   inkscape:connector-curvature="0" /><path
   style="fill:#00d455;stroke-width:0.0529661"
   d="m 26.51519,26.120336 c -0.228561,-0.118872 -0.391422,-0.283555 -0.520001,-0.525816 -0.158631,-0.298883 -0.157014,-0.868926 0.0033,-1.172805 0.148489,-0.281416 0.509553,-0.590455 0.740466,-0.633775 0.909188,-0.170565 1.601296,0.678797 1.334888,1.638189 -0.0631,0.227216 -0.362833,0.586367 -0.585438,0.701481 -0.197509,0.102135 -0.771119,0.09785 -0.973242,-0.0073 z"
   id="path3762"
   inkscape:connector-curvature="0" /><path
   style="fill:#00d455;stroke-width:0.0529661"
   d="M 6.622003,33.355032 C 6.0348016,33.279385 5.3751125,32.852013 5.1660391,32.411803 5.0787148,32.227939 5.0711025,31.751282 5.0478422,25.010708 l -0.024861,-7.204575 0.1135183,-0.222514 c 0.2382202,-0.46695 0.762535,-0.820007 1.4263188,-0.960439 0.3128629,-0.06619 35.1920387,-0.07971 36.4013887,-0.01411 0.606314,0.03289 0.696309,0.05143 1.017899,0.209752 0.44367,0.218418 0.809071,0.57579 0.893058,0.873437 0.0469,0.166218 0.06236,2.023126 0.06139,7.372601 -0.0015,8.052797 0.03248,7.409407 -0.411568,7.800273 -0.398958,0.351177 -0.643012,0.438982 -1.366283,0.491557 C 42.39168,33.41245 7.0552258,33.41084 6.6220054,33.35499 Z M 42.980746,32.01666 c 0.04174,-0.155749 0.04174,-13.853786 0,-14.009534 l -0.03194,-0.119174 H 24.972995 6.9971812 v 7.040159 c 0,3.872088 0.014467,7.077862 0.03215,7.123941 0.029229,0.07617 1.6623999,0.08378 17.9758138,0.08378 h 17.943664 z"
   id="path3764"
   inkscape:connector-curvature="0" /></svg>