<?xml version="1.0" encoding="UTF-8" standalone="no"?>
<!-- Generator: Adobe Illustrator 24.0.0, SVG Export Plug-In . SVG Version: 6.00 Build 0)  -->

<svg
   xmlns:dc="http://purl.org/dc/elements/1.1/"
   xmlns:cc="http://creativecommons.org/ns#"
   xmlns:rdf="http://www.w3.org/1999/02/22-rdf-syntax-ns#"
   xmlns:svg="http://www.w3.org/2000/svg"
   xmlns="http://www.w3.org/2000/svg"
   xmlns:sodipodi="http://sodipodi.sourceforge.net/DTD/sodipodi-0.dtd"
   xmlns:inkscape="http://www.inkscape.org/namespaces/inkscape"
   version="1.1"
   id="Calque_1"
   x="0px"
   y="0px"
   viewBox="0 0 40 40"
   style="enable-background:new 0 0 40 40;"
   xml:space="preserve"
   sodipodi:docname="battery-080.svg"
   inkscape:version="0.92.4 (5da689c313, 2019-01-14)"><metadata
   id="metadata15"><rdf:RDF><cc:Work
       rdf:about=""><dc:format>image/svg+xml</dc:format><dc:type
         rdf:resource="http://purl.org/dc/dcmitype/StillImage" /><dc:title></dc:title></cc:Work></rdf:RDF></metadata><defs
   id="defs13" /><sodipodi:namedview
   pagecolor="#ffffff"
   bordercolor="#666666"
   borderopacity="1"
   objecttolerance="10"
   gridtolerance="10"
   guidetolerance="10"
   inkscape:pageopacity="0"
   inkscape:pageshadow="2"
   inkscape:window-width="730"
   inkscape:window-height="480"
   id="namedview11"
   showgrid="false"
   inkscape:pagecheckerboard="true"
   inkscape:zoom="5.9"
   inkscape:cx="20"
   inkscape:cy="20"
   inkscape:window-x="0"
   inkscape:window-y="0"
   inkscape:window-maximized="0"
   inkscape:current-layer="Calque_1" />
<style
   type="text/css"
   id="style2">
	.st0{fill:#40F1A6;}
</style>
<g
   id="battery"
   transform="translate(0 -124.9)">
	<path
   id="Tracé_430"
   class="st0"
   d="M33.7,140.3h-1.9v-1.7c0-0.8-0.6-1.4-1.4-1.4H6.3c-0.8,0-1.4,0.6-1.4,1.4v12.7   c0,0.8,0.6,1.4,1.4,1.4h24.2c0.8,0,1.4-0.6,1.4-1.4l0,0v-1.7h1.9c0.8,0,1.4-0.6,1.4-1.4v-6.4C35.1,140.9,34.5,140.3,33.7,140.3z    M28.7,149c0,0.5-0.4,0.9-0.9,0.9c0,0,0,0,0,0h-19c-0.5,0-0.9-0.4-0.9-0.9c0,0,0,0,0,0v-8.2c0-0.5,0.4-0.9,0.9-0.9c0,0,0,0,0,0h19   c0.5,0,0.9,0.4,0.9,0.9c0,0,0,0,0,0L28.7,149z" />
	<path
   id="Tracé_431"
   class="st0"
   d="M8.6,141.3h3.8v7.4H8.6V141.3z" />
	<path
   id="Tracé_432"
   class="st0"
   d="M19.1,141.3h3.8v7.4h-3.8V141.3z" />
	<path
   id="Tracé_433"
   class="st0"
   d="M13.9,141.3h3.8v7.4h-3.8V141.3z" />
	<path
   id="Tracé_434"
   class="st0"
   d="M24.1,141.3h3.8v7.4h-3.8V141.3z" />
</g>
</svg>