<?xml version="1.0" encoding="UTF-8" standalone="no"?>
<!-- Generator: Adobe Illustrator 24.0.0, SVG Export Plug-In . SVG Version: 6.00 Build 0)  -->

<svg
   xmlns:dc="http://purl.org/dc/elements/1.1/"
   xmlns:cc="http://creativecommons.org/ns#"
   xmlns:rdf="http://www.w3.org/1999/02/22-rdf-syntax-ns#"
   xmlns:svg="http://www.w3.org/2000/svg"
   xmlns="http://www.w3.org/2000/svg"
   xmlns:sodipodi="http://sodipodi.sourceforge.net/DTD/sodipodi-0.dtd"
   xmlns:inkscape="http://www.inkscape.org/namespaces/inkscape"
   version="1.1"
   id="Keyboards-selected"
   x="0px"
   y="0px"
   viewBox="0 0 50 50"
   style="enable-background:new 0 0 50 50;"
   xml:space="preserve"
   sodipodi:docname="custom.svg"
   inkscape:version="0.92.4 (5da689c313, 2019-01-14)"><metadata
   id="metadata21"><rdf:RDF><cc:Work
       rdf:about=""><dc:format>image/svg+xml</dc:format><dc:type
         rdf:resource="http://purl.org/dc/dcmitype/StillImage" /><dc:title></dc:title></cc:Work></rdf:RDF></metadata><defs
   id="defs19" /><sodipodi:namedview
   pagecolor="#ffffff"
   bordercolor="#666666"
   borderopacity="1"
   objecttolerance="10"
   gridtolerance="10"
   guidetolerance="10"
   inkscape:pageopacity="0"
   inkscape:pageshadow="2"
   inkscape:window-width="730"
   inkscape:window-height="480"
   id="namedview17"
   showgrid="false"
   inkscape:pagecheckerboard="true"
   inkscape:zoom="4.72"
   inkscape:cx="25"
   inkscape:cy="25"
   inkscape:window-x="0"
   inkscape:window-y="0"
   inkscape:window-maximized="0"
   inkscape:current-layer="Keyboards-selected" />
<style
   type="text/css"
   id="style2">
	.st0{fill:#FFC400;}
</style>
<g
   id="Groupe_16">
	<path
   id="Tracé_63"
   class="st0"
   d="M45,32V18c0-0.8-1-1.5-2.3-1.5H7.3C6,16.5,5,17.1,5,18v14c0,0.8,1,1.5,2.3,1.5h35.4   C44,33.5,45,32.9,45,32z M7,32V18c0-0.1,0.1-0.1,0.3-0.1h35.4c0.2,0,0.3,0.1,0.3,0.1v14c0,0.1-0.1,0.1-0.3,0.1H7.3   C7.1,32.1,7,32.1,7,32z" />
	<ellipse
   id="Ellipse_50"
   class="st0"
   cx="18.4"
   cy="21.5"
   rx="1.2"
   ry="1.3" />
	<ellipse
   id="Ellipse_51"
   class="st0"
   cx="21.9"
   cy="21.5"
   rx="1.2"
   ry="1.3" />
	<ellipse
   id="Ellipse_52"
   class="st0"
   cx="25.3"
   cy="21.5"
   rx="1.2"
   ry="1.3" />
	<ellipse
   id="Ellipse_53"
   class="st0"
   cx="28.7"
   cy="21.5"
   rx="1.2"
   ry="1.3" />
	<ellipse
   id="Ellipse_54"
   class="st0"
   cx="32.1"
   cy="21.5"
   rx="1.2"
   ry="1.3" />
	<ellipse
   id="Ellipse_56"
   class="st0"
   cx="20.2"
   cy="25"
   rx="1.2"
   ry="1.3" />
	<ellipse
   id="Ellipse_57"
   class="st0"
   cx="23.6"
   cy="25"
   rx="1.2"
   ry="1.3" />
	<ellipse
   id="Ellipse_58"
   class="st0"
   cx="27"
   cy="25"
   rx="1.2"
   ry="1.3" />
	<ellipse
   id="Ellipse_59"
   class="st0"
   cx="30.4"
   cy="25"
   rx="1.2"
   ry="1.3" />
	<path
   id="Tracé_65"
   class="st0"
   d="M33.9,27.5H16.1c-0.6,0-1,0.5-1,1c0,0.6,0.5,1,1,1h17.8c0.6,0,1-0.5,1-1   C34.9,28,34.5,27.5,33.9,27.5L33.9,27.5z" />
</g>
</svg>