<?xml version="1.0" encoding="UTF-8" standalone="no"?>
<!-- Created with Inkscape (http://www.inkscape.org/) -->

<svg
   xmlns:dc="http://purl.org/dc/elements/1.1/"
   xmlns:cc="http://creativecommons.org/ns#"
   xmlns:rdf="http://www.w3.org/1999/02/22-rdf-syntax-ns#"
   xmlns:svg="http://www.w3.org/2000/svg"
   xmlns="http://www.w3.org/2000/svg"
   xmlns:sodipodi="http://sodipodi.sourceforge.net/DTD/sodipodi-0.dtd"
   xmlns:inkscape="http://www.inkscape.org/namespaces/inkscape"
   width="1024"
   height="1024"
   viewBox="0 0 270.93333 270.93333"
   version="1.1"
   id="svg30"
   inkscape:version="0.92.4 (5da689c313, 2019-01-14)"
   sodipodi:docname="Debug.svg">
  <defs
     id="defs24" />
  <sodipodi:namedview
     id="base"
     pagecolor="#ffffff"
     bordercolor="#666666"
     borderopacity="1.0"
     inkscape:pageopacity="0.0"
     inkscape:pageshadow="2"
     inkscape:zoom="0.175"
     inkscape:cx="-734.59575"
     inkscape:cy="1088.4296"
     inkscape:document-units="px"
     inkscape:current-layer="layer1"
     showgrid="false"
     units="px"
     inkscape:pagecheckerboard="true"
     inkscape:window-width="1920"
     inkscape:window-height="1001"
     inkscape:window-x="-9"
     inkscape:window-y="-9"
     inkscape:window-maximized="1" />
  <metadata
     id="metadata27">
    <rdf:RDF>
      <cc:Work
         rdf:about="">
        <dc:format>image/svg+xml</dc:format>
        <dc:type
           rdf:resource="http://purl.org/dc/dcmitype/StillImage" />
        <dc:title></dc:title>
      </cc:Work>
    </rdf:RDF>
  </metadata>
  <g
     inkscape:label="Layer 1"
     inkscape:groupmode="layer"
     id="layer1"
     transform="translate(0,-26.06671)">
    <g
       style="fill:#FFFFFF;stroke:none"
       transform="matrix(0.0254,0,0,-0.0254,10.992758,263.11737)"
       id="g8">
      <path
         inkscape:connector-curvature="0"
         d="m 4735,7965 c -181,-41 -283,-96 -414,-220 -124,-118 -211,-262 -248,-408 -21,-86 -38,-104 -194,-199 -291,-177 -522,-395 -615,-583 -47,-95 -53,-149 -24,-206 29,-56 129,-154 203,-197 294,-175 811,-272 1452,-272 772,0 1388,146 1611,382 68,71 91,131 75,195 -23,91 -113,233 -220,347 -112,118 -355,297 -511,376 -83,42 -91,52 -115,150 -32,132 -136,314 -235,411 -112,110 -278,193 -455,230 -116,24 -187,23 -310,-6 z"
         id="path4" />
      <path
         inkscape:connector-curvature="0"
         d="m 1475,7717 c -124,-32 -227,-118 -260,-217 -70,-212 180,-943 479,-1400 196,-299 511,-612 824,-817 62,-41 120,-85 128,-98 14,-22 14,-34 -5,-132 -37,-197 -61,-357 -61,-415 0,-71 -6,-85 -41,-103 -53,-28 -216,-35 -1094,-45 C 961,4484 495,4476 408,4471 216,4459 175,4445 95,4358 -6,4249 -26,4108 40,3974 c 35,-72 82,-115 179,-164 l 65,-32 940,11 c 518,6 1031,12 1141,13 l 199,3 13,-95 c 25,-181 65,-397 98,-531 l 34,-133 -183,-186 C 2329,2660 2210,2518 2095,2345 1761,1843 1600,1263 1600,566 c 0,-94 4,-197 10,-230 21,-129 106,-254 203,-297 73,-32 221,-34 287,-3 80,37 165,136 184,216 3,15 11,186 16,380 10,393 22,504 75,706 67,254 178,494 321,692 59,82 269,320 282,320 4,0 23,-26 41,-57 373,-630 821,-1015 1389,-1193 52,-16 98,-28 100,-25 11,11 21,669 27,1904 l 8,1305 33,51 c 42,66 111,127 183,162 48,24 68,28 146,28 79,0 97,-4 148,-28 74,-37 147,-110 183,-183 26,-54 28,-67 35,-243 4,-102 8,-820 8,-1594 l 1,-1409 33,7 c 81,17 278,90 380,141 415,208 790,569 1062,1023 37,61 70,111 75,111 13,0 164,-163 227,-246 250,-329 381,-654 428,-1067 8,-75 20,-276 25,-445 10,-315 14,-350 45,-416 19,-41 92,-104 159,-138 93,-48 238,-31 344,39 97,65 125,129 143,336 29,325 -21,784 -126,1148 -103,356 -282,702 -511,989 -38,47 -157,175 -266,286 l -198,201 34,159 c 42,190 80,395 96,521 l 13,93 551,-5 c 303,-3 760,-7 1016,-9 256,-3 538,-1 627,3 150,8 166,10 200,33 57,38 110,96 134,145 27,55 37,191 20,259 -13,52 -80,155 -117,179 -81,53 -235,62 -1309,75 -855,10 -1115,17 -1115,29 0,3 -7,44 -15,91 -25,143 -75,495 -75,532 0,43 26,69 170,168 478,330 834,775 1068,1335 116,275 199,563 209,722 5,86 4,96 -21,146 -33,68 -119,150 -193,185 -89,41 -167,38 -265,-10 -111,-55 -147,-99 -191,-234 -20,-60 -50,-161 -67,-224 -126,-455 -325,-817 -604,-1096 -337,-337 -690,-507 -1301,-628 -386,-76 -546,-90 -1055,-90 -438,0 -610,10 -850,50 -282,48 -666,145 -861,218 -264,99 -589,344 -795,598 -197,245 -366,578 -454,898 -17,63 -42,155 -56,203 -30,110 -67,186 -116,242 -72,82 -195,119 -303,92 z"
         id="path6" />
    </g>
  </g>
</svg>
