<?xml version="1.0" encoding="UTF-8" standalone="no"?>
<!-- Generator: Adobe Illustrator 24.0.0, SVG Export Plug-In . SVG Version: 6.00 Build 0)  -->

<svg
   xmlns:dc="http://purl.org/dc/elements/1.1/"
   xmlns:cc="http://creativecommons.org/ns#"
   xmlns:rdf="http://www.w3.org/1999/02/22-rdf-syntax-ns#"
   xmlns:svg="http://www.w3.org/2000/svg"
   xmlns="http://www.w3.org/2000/svg"
   xmlns:sodipodi="http://sodipodi.sourceforge.net/DTD/sodipodi-0.dtd"
   xmlns:inkscape="http://www.inkscape.org/namespaces/inkscape"
   version="1.1"
   id="soft-not-ok"
   x="0px"
   y="0px"
   viewBox="0 0 25 25"
   style="enable-background:new 0 0 25 25;"
   xml:space="preserve"
   sodipodi:docname="disabled.svg"
   inkscape:version="0.92.4 (5da689c313, 2019-01-14)"><metadata
   id="metadata12"><rdf:RDF><cc:Work
       rdf:about=""><dc:format>image/svg+xml</dc:format><dc:type
         rdf:resource="http://purl.org/dc/dcmitype/StillImage" /><dc:title></dc:title></cc:Work></rdf:RDF></metadata><defs
   id="defs10" /><sodipodi:namedview
   pagecolor="#ffffff"
   bordercolor="#666666"
   borderopacity="1"
   objecttolerance="10"
   gridtolerance="10"
   guidetolerance="10"
   inkscape:pageopacity="0"
   inkscape:pageshadow="2"
   inkscape:window-width="730"
   inkscape:window-height="480"
   id="namedview8"
   showgrid="false"
   inkscape:pagecheckerboard="true"
   inkscape:zoom="9.44"
   inkscape:cx="12.5"
   inkscape:cy="12.5"
   inkscape:window-x="0"
   inkscape:window-y="0"
   inkscape:window-maximized="0"
   inkscape:current-layer="soft-not-ok" />
<style
   type="text/css"
   id="style2">
	.st0{fill:#FFFFFF;}
	.st1{fill:#D30202;}
</style>
<g
   id="Groupe_857">
	<path
   id="Tracé_423"
   class="st0"
   d="M21.4,3.7H3.6C2.7,3.7,2.1,4.4,2,5.2c0,0,0,0,0,0v14.5c0,0.8,0.7,1.5,1.5,1.5c0,0,0,0,0,0   h17.8c0.8,0,1.5-0.7,1.5-1.5c0,0,0,0,0,0V5.3C23,4.4,22.3,3.7,21.4,3.7C21.5,3.7,21.4,3.7,21.4,3.7z M8.7,4.2   c0.4,0,0.7,0.3,0.7,0.7c0,0.4-0.3,0.7-0.7,0.7C8.3,5.5,8,5.2,8,4.9C8,4.5,8.3,4.2,8.7,4.2C8.6,4.2,8.6,4.2,8.7,4.2L8.7,4.2z    M6.6,4.2c0.4,0,0.7,0.3,0.7,0.7S7,5.5,6.6,5.5C6.3,5.5,6,5.2,6,4.9C6,4.5,6.3,4.2,6.6,4.2z M4.6,4.2c0.4,0,0.7,0.3,0.7,0.7   S5,5.5,4.6,5.5c-0.4,0-0.7-0.3-0.7-0.7C3.9,4.5,4.2,4.2,4.6,4.2z M21.8,19.1c0,0.6-0.5,1-1,1H4.4c-0.7,0-1.2-0.5-1.2-1.2   c0,0,0,0,0,0V6.5h18.5L21.8,19.1z" />
</g>
<path
   id="Tracé_424"
   class="st1"
   d="M16.5,8l-3.3,3.3c-0.2,0.3-0.6,0.3-0.9,0c0,0,0,0,0,0L9.1,8.1C8.8,7.8,8.4,7.8,8.2,8  c0,0,0,0,0,0L7.4,8.8C7.2,9,7.2,9.4,7.4,9.7c0,0,0,0,0,0l3.2,3.2c0.3,0.2,0.3,0.6,0,0.9c0,0,0,0,0,0l-3.3,3.3  c-0.3,0.2-0.3,0.6,0,0.9c0,0,0,0,0,0l0.7,0.7c0.2,0.3,0.6,0.3,0.9,0c0,0,0,0,0,0l3.3-3.3c0.2-0.3,0.6-0.3,0.9,0c0,0,0,0,0,0l3.3,3.3  c0.2,0.3,0.6,0.3,0.9,0c0,0,0,0,0,0l0.7-0.7c0.3-0.2,0.3-0.6,0-0.9c0,0,0,0,0,0l-3.3-3.3c-0.3-0.2-0.3-0.6,0-0.9c0,0,0,0,0,0  l3.3-3.3c0.3-0.2,0.3-0.6,0-0.9c0,0,0,0,0,0l-0.7-0.7C17.2,7.8,16.8,7.8,16.5,8C16.5,8,16.5,8,16.5,8z" />
</svg>