<?xml version="1.0" encoding="UTF-8" standalone="no"?>
<!-- Generator: Adobe Illustrator 24.0.0, SVG Export Plug-In . SVG Version: 6.00 Build 0)  -->

<svg
   xmlns:dc="http://purl.org/dc/elements/1.1/"
   xmlns:cc="http://creativecommons.org/ns#"
   xmlns:rdf="http://www.w3.org/1999/02/22-rdf-syntax-ns#"
   xmlns:svg="http://www.w3.org/2000/svg"
   xmlns="http://www.w3.org/2000/svg"
   xmlns:sodipodi="http://sodipodi.sourceforge.net/DTD/sodipodi-0.dtd"
   xmlns:inkscape="http://www.inkscape.org/namespaces/inkscape"
   version="1.1"
   id="soft-ok"
   x="0px"
   y="0px"
   viewBox="0 0 25 25"
   style="enable-background:new 0 0 25 25;"
   xml:space="preserve"
   sodipodi:docname="enabled.svg"
   inkscape:version="0.92.4 (5da689c313, 2019-01-14)"><metadata
   id="metadata12"><rdf:RDF><cc:Work
       rdf:about=""><dc:format>image/svg+xml</dc:format><dc:type
         rdf:resource="http://purl.org/dc/dcmitype/StillImage" /><dc:title></dc:title></cc:Work></rdf:RDF></metadata><defs
   id="defs10" /><sodipodi:namedview
   pagecolor="#ffffff"
   bordercolor="#666666"
   borderopacity="1"
   objecttolerance="10"
   gridtolerance="10"
   guidetolerance="10"
   inkscape:pageopacity="0"
   inkscape:pageshadow="2"
   inkscape:window-width="730"
   inkscape:window-height="480"
   id="namedview8"
   showgrid="false"
   inkscape:pagecheckerboard="true"
   inkscape:zoom="9.44"
   inkscape:cx="12.5"
   inkscape:cy="12.5"
   inkscape:window-x="0"
   inkscape:window-y="0"
   inkscape:window-maximized="0"
   inkscape:current-layer="soft-ok" />
<style
   type="text/css"
   id="style2">
	.st0{fill:#FFFFFF;}
	.st1{fill:#00AF36;}
</style>
<g
   id="Groupe_856">
	<path
   id="Tracé_421"
   class="st0"
   d="M21.5,3.7H3.5C2.7,3.7,2,4.3,2,5.2c0,0,0,0,0,0v14.6c0,0.8,0.7,1.5,1.5,1.5c0,0,0,0,0,0h17.9   c0.8,0,1.5-0.7,1.6-1.5c0,0,0,0,0,0V5.2C23,4.4,22.3,3.7,21.5,3.7C21.5,3.7,21.5,3.7,21.5,3.7z M8.6,4.2c0.4,0,0.7,0.3,0.7,0.7   S9,5.5,8.6,5.5S8,5.2,8,4.8v0C8,4.5,8.3,4.2,8.6,4.2C8.6,4.2,8.6,4.2,8.6,4.2L8.6,4.2z M6.6,4.2c0.4,0,0.7,0.3,0.7,0.7   c0,0.4-0.3,0.7-0.7,0.7c-0.4,0-0.7-0.3-0.7-0.7l0,0C5.9,4.5,6.2,4.2,6.6,4.2L6.6,4.2z M4.6,4.2c0.4,0,0.7,0.3,0.7,0.7   c0,0.4-0.3,0.7-0.7,0.7c-0.4,0-0.7-0.3-0.7-0.7l0,0C3.9,4.5,4.2,4.2,4.6,4.2z M21.8,19.1c0,0.6-0.5,1-1,1H4.4   c-0.7,0-1.2-0.5-1.2-1.2c0,0,0,0,0,0V6.4h18.6V19.1z" />
</g>
<path
   id="Tracé_422"
   class="st1"
   d="M19,7.8l-0.4-0.4c-0.4-0.3-0.9-0.2-1.3,0.1L10.6,16c-0.2,0.3-0.6,0.3-0.9,0.1c0,0,0,0,0,0  l-2-1.5c-0.4-0.3-0.9-0.2-1.2,0.1c0,0,0,0,0,0l-0.4,0.4c-0.3,0.4-0.2,0.9,0.1,1.2c0,0,0,0,0,0l3.6,2.8c0.4,0.3,0.9,0.2,1.2-0.1  c0,0,0,0,0,0l0.9-1.2l0,0L19.1,9C19.4,8.7,19.3,8.2,19,7.8C19,7.8,19,7.8,19,7.8z" />
</svg>