<?xml version="1.0" encoding="UTF-8" standalone="no"?>
<!-- Generator: Adobe Illustrator 21.1.0, SVG Export Plug-In . SVG Version: 6.00 Build 0)  -->

<svg
   xmlns:dc="http://purl.org/dc/elements/1.1/"
   xmlns:cc="http://creativecommons.org/ns#"
   xmlns:rdf="http://www.w3.org/1999/02/22-rdf-syntax-ns#"
   xmlns:svg="http://www.w3.org/2000/svg"
   xmlns="http://www.w3.org/2000/svg"
   xmlns:sodipodi="http://sodipodi.sourceforge.net/DTD/sodipodi-0.dtd"
   xmlns:inkscape="http://www.inkscape.org/namespaces/inkscape"
   version="1.1"
   id="Calque_1"
   x="0px"
   y="0px"
   viewBox="0 0 70.9 70.9"
   style="enable-background:new 0 0 70.9 70.9;"
   xml:space="preserve"
   sodipodi:docname="nemeio-violet.svg"
   inkscape:version="0.92.4 (5da689c313, 2019-01-14)"
   inkscape:export-filename="C:\Users\cduperthuy-ext\Documents\ICONES-SVG\Icônes\Good\nemeio-violet-256.png"
   inkscape:export-xdpi="346.63"
   inkscape:export-ydpi="346.63"><metadata
   id="metadata47"><rdf:RDF><cc:Work
       rdf:about=""><dc:format>image/svg+xml</dc:format><dc:type
         rdf:resource="http://purl.org/dc/dcmitype/StillImage" /><dc:title /></cc:Work></rdf:RDF></metadata><defs
   id="defs45" /><sodipodi:namedview
   pagecolor="#ffffff"
   bordercolor="#666666"
   borderopacity="1"
   objecttolerance="10"
   gridtolerance="10"
   guidetolerance="10"
   inkscape:pageopacity="0"
   inkscape:pageshadow="2"
   inkscape:window-width="2560"
   inkscape:window-height="1361"
   id="namedview43"
   showgrid="false"
   inkscape:pagecheckerboard="true"
   inkscape:zoom="11.396333"
   inkscape:cx="18.540639"
   inkscape:cy="39.991268"
   inkscape:window-x="1911"
   inkscape:window-y="-9"
   inkscape:window-maximized="1"
   inkscape:current-layer="Calque_1" />
<style
   type="text/css"
   id="style38">
	.st0{fill:#FFFFFF;}
</style>
<rect
   id="rect4234"
   width="71.075493"
   height="71.075493"
   x="-0.087747514"
   y="-0.087745152"
   style="fill:#5b4a99;stroke-width:1.00000072"
   inkscape:export-xdpi="345.77319"
   inkscape:export-ydpi="345.77319" /><path
   class="st0"
   d="m 62.647501,11.070001 h -10.695 v 33.81 c 0,2.53 -0.92,4.255 -2.76,5.175 l -0.23,0.115 c -1.955,0.345 -3.565,-0.115 -4.6,-1.38 -0.805,-0.92 -1.38,-2.185 -1.725,-4.025 l -4.6,-22.31 c -0.805,-4.025 -2.53,-7.13 -4.945,-9.2 -2.53,-2.07 -5.865,-3.105 -9.89,-3.105 -4.485,0 -8.165,1.265 -10.925,3.68 -2.6450002,2.415 -4.0250002,5.635 -4.0250002,9.66 v 15.755 H 18.947501 v -13.11 c 0,-2.53 0.92,-4.255 2.76,-5.175 l 0.23,-0.115 c 0.46,-0.115 0.805,-0.115 1.265,-0.115 1.38,0 2.53,0.46 3.335,1.495 0.805,0.92 1.38,2.3 1.725,4.14 l 4.485,22.08 c 0.805,4.025 2.53,7.13 5.06,9.2 2.53,2.07 5.865,3.105 9.89,3.105 4.485,0 8.165,-1.265 10.81,-3.68 2.645,-2.415 4.025,-5.635 4.025,-9.66 z"
   id="path40"
   inkscape:connector-curvature="0"
   style="fill:#ffffff;stroke-width:1.14999998" />
</svg>