<?xml version="1.0" encoding="UTF-8" standalone="no"?>
<!-- Generator: Adobe Illustrator 21.1.0, SVG Export Plug-In . SVG Version: 6.00 Build 0)  -->

<svg
   xmlns:dc="http://purl.org/dc/elements/1.1/"
   xmlns:cc="http://creativecommons.org/ns#"
   xmlns:rdf="http://www.w3.org/1999/02/22-rdf-syntax-ns#"
   xmlns:svg="http://www.w3.org/2000/svg"
   xmlns="http://www.w3.org/2000/svg"
   xmlns:sodipodi="http://sodipodi.sourceforge.net/DTD/sodipodi-0.dtd"
   xmlns:inkscape="http://www.inkscape.org/namespaces/inkscape"
   version="1.1"
   id="Calque_1"
   x="0px"
   y="0px"
   viewBox="0 0 70.9 70.9"
   style="enable-background:new 0 0 70.9 70.9;"
   xml:space="preserve"
   sodipodi:docname="nemeio-update-complete.svg"
   inkscape:version="0.92.4 (5da689c313, 2019-01-14)"
   inkscape:export-filename="C:\Users\cduperthuy-ext\Documents\ICONES-SVG\Icônes\Good\nemeio-update-complete-256.png"
   inkscape:export-xdpi="346.63"
   inkscape:export-ydpi="346.63"><metadata
   id="metadata3927"><rdf:RDF><cc:Work
       rdf:about=""><dc:format>image/svg+xml</dc:format><dc:type
         rdf:resource="http://purl.org/dc/dcmitype/StillImage" /><dc:title></dc:title></cc:Work></rdf:RDF></metadata><defs
   id="defs3925" /><sodipodi:namedview
   pagecolor="#ffffff"
   bordercolor="#666666"
   borderopacity="1"
   objecttolerance="10"
   gridtolerance="10"
   guidetolerance="10"
   inkscape:pageopacity="0"
   inkscape:pageshadow="2"
   inkscape:window-width="1920"
   inkscape:window-height="1001"
   id="namedview3923"
   showgrid="false"
   inkscape:pagecheckerboard="true"
   inkscape:zoom="9.4147925"
   inkscape:cx="21.768051"
   inkscape:cy="36.169463"
   inkscape:window-x="-9"
   inkscape:window-y="-9"
   inkscape:window-maximized="1"
   inkscape:current-layer="Calque_1" />
<style
   type="text/css"
   id="style3916">
	.st0{fill:#73BF94;}
	.st1{fill:#FFFFFF;}
</style>

<g
   id="g3931"
   transform="matrix(1.15,0,0,1.15,-7.7325004,-5.834999)"><polygon
     id="polygon3918"
     points="14,57.8 23.2,57.8 23.2,53.8 23.2,53.7 23.2,48.1 29,48.1 18.6,34.8 8.2,48.1 14,48.1 14,53.7 14,53.8 "
     class="st0"
     style="fill:#73bf94" /><path
     id="path3920"
     d="m 61.2,14.7 h -9.3 v 29.4 c 0,2.2 -0.8,3.7 -2.4,4.5 l -0.2,0.1 C 47.6,49 46.2,48.6 45.3,47.5 44.6,46.7 44.1,45.6 43.8,44 l -4,-19.4 c -0.7,-3.5 -2.2,-6.2 -4.3,-8 -2.2,-1.8 -5.1,-2.7 -8.6,-2.7 -3.9,0 -7.1,1.1 -9.5,3.2 -2.3,2.1 -3.5,4.9 -3.5,8.4 v 13.7 l 4.6,-6 4.7,6 V 27.8 c 0,-2.2 0.8,-3.7 2.4,-4.5 l 0.2,-0.1 c 0.4,-0.1 0.7,-0.1 1.1,-0.1 1.2,0 2.2,0.4 2.9,1.3 0.7,0.8 1.2,2 1.5,3.6 l 3.9,19.2 c 0.7,3.5 2.2,6.2 4.4,8 2.2,1.8 5.1,2.7 8.6,2.7 3.9,0 7.1,-1.1 9.4,-3.2 2.3,-2.1 3.5,-4.9 3.5,-8.4 V 14.7 Z"
     class="st1"
     inkscape:connector-curvature="0"
     style="fill:#ffffff" /></g>
</svg>