<?xml version="1.0" encoding="UTF-8" standalone="no"?>
<!-- Generator: Adobe Illustrator 21.1.0, SVG Export Plug-In . SVG Version: 6.00 Build 0)  -->

<svg
   xmlns:dc="http://purl.org/dc/elements/1.1/"
   xmlns:cc="http://creativecommons.org/ns#"
   xmlns:rdf="http://www.w3.org/1999/02/22-rdf-syntax-ns#"
   xmlns:svg="http://www.w3.org/2000/svg"
   xmlns="http://www.w3.org/2000/svg"
   xmlns:sodipodi="http://sodipodi.sourceforge.net/DTD/sodipodi-0.dtd"
   xmlns:inkscape="http://www.inkscape.org/namespaces/inkscape"
   version="1.1"
   id="Calque_1"
   x="0px"
   y="0px"
   viewBox="0 0 70.9 70.9"
   style="enable-background:new 0 0 70.9 70.9;"
   xml:space="preserve"
   sodipodi:docname="nemeio-update-progress.svg"
   inkscape:version="0.92.4 (5da689c313, 2019-01-14)"
   inkscape:export-filename="C:\Users\cduperthuy-ext\Documents\ICONES-SVG\Icônes\Good\nemeio-update-progress-256.png"
   inkscape:export-xdpi="346.63"
   inkscape:export-ydpi="346.63"><metadata
   id="metadata4067"><rdf:RDF><cc:Work
       rdf:about=""><dc:format>image/svg+xml</dc:format><dc:type
         rdf:resource="http://purl.org/dc/dcmitype/StillImage" /><dc:title></dc:title></cc:Work></rdf:RDF></metadata><defs
   id="defs4065" /><sodipodi:namedview
   pagecolor="#ffffff"
   bordercolor="#666666"
   borderopacity="1"
   objecttolerance="10"
   gridtolerance="10"
   guidetolerance="10"
   inkscape:pageopacity="0"
   inkscape:pageshadow="2"
   inkscape:window-width="1920"
   inkscape:window-height="1001"
   id="namedview4063"
   showgrid="false"
   inkscape:pagecheckerboard="true"
   inkscape:zoom="13.314527"
   inkscape:cx="21.668167"
   inkscape:cy="21.191177"
   inkscape:window-x="-9"
   inkscape:window-y="-9"
   inkscape:window-maximized="1"
   inkscape:current-layer="Calque_1" />
<style
   type="text/css"
   id="style4044">
	.st0{fill:#FFFFFF;}
	.st1{fill:#EF781A;}
</style>

<g
   id="g4077"
   transform="translate(-1.542498,1.342501)"><path
     style="fill:#ffffff;stroke-width:1.14999998"
     inkscape:connector-curvature="0"
     id="path4046"
     d="M 64.19,9.7275 H 53.495 v 33.81 c 0,2.53 -0.92,4.255 -2.76,5.175 l -0.23,0.115 c -1.955,0.345 -3.565,-0.115 -4.6,-1.38 -0.805,-0.92 -1.38,-2.185 -1.725,-4.025 l -4.6,-22.31 c -0.805,-4.025 -2.53,-7.13 -4.945,-9.2 -2.53,-2.07 -5.865,-3.105 -9.89,-3.105 -4.485,0 -8.165,1.265 -10.925,3.68 -2.645,2.415 -4.025,5.635 -4.025,9.66 v 15.755 l 5.29,-6.9 5.405,6.9 v -13.225 c 0,-2.53 0.92,-4.255 2.76,-5.175 l 0.23,-0.115 c 0.46,-0.115 0.805,-0.115 1.265,-0.115 1.38,0 2.53,0.46 3.335,1.495 0.805,0.92 1.38,2.3 1.725,4.14 l 4.485,22.08 c 0.805,4.025 2.53,7.13 5.06,9.2 2.53,2.07 5.865,3.105 9.89,3.105 4.485,0 8.165,-1.265 10.81,-3.68 2.645,-2.415 4.025,-5.635 4.025,-9.66 V 9.7275 Z"
     class="st0" /><g
     transform="matrix(1.15,0,0,1.15,-5.04,-5.1075)"
     id="g4060">
	<g
   id="g4056">
		<rect
   style="fill:#ef781a"
   id="rect4048"
   height="0.69999999"
   width="9.1999998"
   class="st1"
   y="53"
   x="12.9" />
		<g
   id="g4054">
			<polygon
   style="fill:#ef781a"
   id="polygon4050"
   points="22,46.1 27.8,46.1 17.4,32.8 7,46.1 12.9,46.1 12.9,51.8 22,51.8 "
   class="st1" />
			<rect
   style="fill:#ef781a"
   id="rect4052"
   height="0.30000001"
   width="9.1999998"
   class="st1"
   y="52.400002"
   x="12.9" />
		</g>
	</g>
	<rect
   style="fill:#ef781a"
   id="rect4058"
   height="1.6"
   width="9.1999998"
   class="st1"
   y="54.200001"
   x="12.9" />
</g></g>
</svg>