<?xml version="1.0" encoding="UTF-8" standalone="no"?>
<!-- Generator: Adobe Illustrator 21.1.0, SVG Export Plug-In . SVG Version: 6.00 Build 0)  -->

<svg
   xmlns:dc="http://purl.org/dc/elements/1.1/"
   xmlns:cc="http://creativecommons.org/ns#"
   xmlns:rdf="http://www.w3.org/1999/02/22-rdf-syntax-ns#"
   xmlns:svg="http://www.w3.org/2000/svg"
   xmlns="http://www.w3.org/2000/svg"
   xmlns:sodipodi="http://sodipodi.sourceforge.net/DTD/sodipodi-0.dtd"
   xmlns:inkscape="http://www.inkscape.org/namespaces/inkscape"
   version="1.1"
   id="Calque_1"
   x="0px"
   y="0px"
   viewBox="0 0 70.9 70.9"
   style="enable-background:new 0 0 70.9 70.9;"
   xml:space="preserve"
   sodipodi:docname="nemeio-wrong.svg"
   inkscape:version="0.92.4 (5da689c313, 2019-01-14)"
   inkscape:export-filename="C:\Users\cduperthuy-ext\Documents\ICONES-SVG\Icônes\Good\nemeio-wrong-256.png"
   inkscape:export-xdpi="346.63"
   inkscape:export-ydpi="346.63"><metadata
   id="metadata3761"><rdf:RDF><cc:Work
       rdf:about=""><dc:format>image/svg+xml</dc:format><dc:type
         rdf:resource="http://purl.org/dc/dcmitype/StillImage" /><dc:title></dc:title></cc:Work></rdf:RDF></metadata><defs
   id="defs3759" /><sodipodi:namedview
   pagecolor="#ffffff"
   bordercolor="#666666"
   borderopacity="1"
   objecttolerance="10"
   gridtolerance="10"
   guidetolerance="10"
   inkscape:pageopacity="0"
   inkscape:pageshadow="2"
   inkscape:window-width="1920"
   inkscape:window-height="1001"
   id="namedview3757"
   showgrid="false"
   inkscape:pagecheckerboard="true"
   inkscape:zoom="8.2369533"
   inkscape:cx="5.9347295"
   inkscape:cy="34.386357"
   inkscape:window-x="-9"
   inkscape:window-y="-9"
   inkscape:window-maximized="1"
   inkscape:current-layer="Calque_1" />
<style
   type="text/css"
   id="style3748">
	.st0{fill:#0082FC;}
	.st1{fill:#BC1818;}
</style>
<path
   class="st0"
   d="m 62.647501,11.070001 h -10.695 v 33.81 c 0,2.53 -0.92,4.255 -2.76,5.175 l -0.23,0.115 c -1.955,0.345 -3.565,-0.115 -4.6,-1.38 -0.805,-0.92 -1.38,-2.185 -1.725,-4.025 l -4.6,-22.31 c -0.805,-4.025 -2.53,-7.13 -4.945,-9.2 -2.53,-2.07 -5.865,-3.105 -9.89,-3.105 -4.485,0 -8.165,1.265 -10.925,3.68 -2.6450002,2.415 -4.0250002,5.635 -4.0250002,9.66 v 15.755 H 18.947501 v -13.11 c 0,-2.53 0.92,-4.255 2.76,-5.175 l 0.23,-0.115 c 0.46,-0.115 0.805,-0.115 1.265,-0.115 1.38,0 2.53,0.46 3.335,1.495 0.805,0.92 1.38,2.3 1.725,4.14 l 4.485,22.08 c 0.805,4.025 2.53,7.13 5.06,9.2 2.53,2.07 5.865,3.105 9.89,3.105 4.485,0 8.165,-1.265 10.81,-3.68 2.645,-2.415 4.025,-5.635 4.025,-9.66 v -36.34 z"
   id="path3750"
   inkscape:connector-curvature="0"
   style="fill:#0082FC;stroke-width:1.14999998" />
<g
   id="g3754"
   transform="matrix(1.15,0,0,1.15,-7.1574992,-2.6724992)">
	<path
   class="st1"
   d="m 32.8,50 c 0,-1.4 0.4,-2.5 1.1,-3.2 0.7,-0.7 1.8,-1.1 3.2,-1.1 1.3,0 2.4,0.4 3.1,1.1 0.7,0.8 1.1,1.8 1.1,3.2 0,1.3 -0.4,2.4 -1.1,3.2 -0.7,0.8 -1.8,1.2 -3.1,1.2 C 35.8,54.4 34.7,54 34,53.3 33.3,52.6 32.8,51.4 32.8,50 Z m 6.8,-9.1 h -5 l -1.5,-29 H 41 Z"
   id="path3752"
   inkscape:connector-curvature="0"
   style="fill:#bc1818" />
</g>
</svg>