<?xml version="1.0" encoding="UTF-8" standalone="no"?>
<!-- Generator: Adobe Illustrator 21.1.0, SVG Export Plug-In . SVG Version: 6.00 Build 0)  -->

<svg
   xmlns:dc="http://purl.org/dc/elements/1.1/"
   xmlns:cc="http://creativecommons.org/ns#"
   xmlns:rdf="http://www.w3.org/1999/02/22-rdf-syntax-ns#"
   xmlns:svg="http://www.w3.org/2000/svg"
   xmlns="http://www.w3.org/2000/svg"
   xmlns:sodipodi="http://sodipodi.sourceforge.net/DTD/sodipodi-0.dtd"
   xmlns:inkscape="http://www.inkscape.org/namespaces/inkscape"
   version="1.1"
   id="Calque_1"
   x="0px"
   y="0px"
   viewBox="0 0 70.9 70.9"
   style="enable-background:new 0 0 70.9 70.9;"
   xml:space="preserve"
   sodipodi:docname="nemeio-synchro.svg"
   inkscape:version="0.92.4 (5da689c313, 2019-01-14)"
   inkscape:export-filename="C:\Users\cduperthuy-ext\Documents\ICONES-SVG\Icônes\Good\nemeio-synchro-256.png"
   inkscape:export-xdpi="346.63"
   inkscape:export-ydpi="346.63"><metadata
   id="metadata4147"><rdf:RDF><cc:Work
       rdf:about=""><dc:format>image/svg+xml</dc:format><dc:type
         rdf:resource="http://purl.org/dc/dcmitype/StillImage" /><dc:title /></cc:Work></rdf:RDF></metadata><defs
   id="defs4145" /><sodipodi:namedview
   pagecolor="#ffffff"
   bordercolor="#666666"
   borderopacity="1"
   objecttolerance="10"
   gridtolerance="10"
   guidetolerance="10"
   inkscape:pageopacity="0"
   inkscape:pageshadow="2"
   inkscape:window-width="2560"
   inkscape:window-height="1361"
   id="namedview4143"
   showgrid="false"
   inkscape:pagecheckerboard="true"
   inkscape:zoom="9.4147925"
   inkscape:cx="47.362502"
   inkscape:cy="29.823911"
   inkscape:window-x="1911"
   inkscape:window-y="-9"
   inkscape:window-maximized="1"
   inkscape:current-layer="Calque_1" />
<style
   type="text/css"
   id="style4134">
	.st0{fill:#E28C03;}
	.st1{fill:none;stroke:#E28C03;stroke-width:5;stroke-miterlimit:10;}
	.st2{fill:#FFFFFF;}
</style>


<g
   id="g4152"
   transform="translate(-0.17436746,0.22304673)"><polygon
     id="polygon4136"
     points="36.5,18.1 17.4,16.4 32.2,3 "
     class="st0"
     style="fill:#e28c03" /><path
     id="path4138"
     d="m 29.2,11.9 c 9,-2.5 19.1,-0.3 26.3,6.7 C 66.2,29 66.4,46.1 56,56.8 45.6,67.5 28.4,67.7 17.8,57.3 10.8,50.4 8.3,40.7 10.3,31.8"
     class="st1"
     inkscape:connector-curvature="0"
     style="fill:none;stroke:#e28c03;stroke-width:5;stroke-miterlimit:10" /><path
     id="path4140"
     d="m 52.4,19.2 h -9.3 v 29.4 c 0,2.2 -0.8,3.7 -2.4,4.5 l -0.2,0.1 C 38.8,53.5 37.4,53.1 36.5,52 35.8,51.2 35.3,50.1 35,48.5 L 31,29.1 c -0.7,-3.5 -2.2,-6.2 -4.3,-8 -2.2,-1.8 -5.1,-2.7 -8.6,-2.7 -3.9,0 -7.1,1.1 -9.5,3.2 -2.3,2.1 -3.5,4.9 -3.5,8.4 v 13.7 h 9.3 V 32.2 c 0,-2.2 0.8,-3.7 2.4,-4.5 L 17,27.6 c 0.4,-0.1 0.7,-0.1 1.1,-0.1 1.2,0 2.2,0.4 2.9,1.3 0.7,0.8 1.2,2 1.5,3.6 l 3.9,19.2 c 0.7,3.5 2.2,6.2 4.4,8 2.2,1.8 5.1,2.7 8.6,2.7 3.9,0 7.1,-1.1 9.4,-3.2 2.3,-2.1 3.5,-4.9 3.5,-8.4 z"
     class="st2"
     inkscape:connector-curvature="0"
     style="fill:#FFFFFF" /></g>
</svg>