<?xml version="1.0" encoding="UTF-8" standalone="no"?>
<!-- Generator: Adobe Illustrator 21.1.0, SVG Export Plug-In . SVG Version: 6.00 Build 0)  -->

<svg
   xmlns:dc="http://purl.org/dc/elements/1.1/"
   xmlns:cc="http://creativecommons.org/ns#"
   xmlns:rdf="http://www.w3.org/1999/02/22-rdf-syntax-ns#"
   xmlns:svg="http://www.w3.org/2000/svg"
   xmlns="http://www.w3.org/2000/svg"
   xmlns:sodipodi="http://sodipodi.sourceforge.net/DTD/sodipodi-0.dtd"
   xmlns:inkscape="http://www.inkscape.org/namespaces/inkscape"
   version="1.1"
   id="Calque_1"
   x="0px"
   y="0px"
   viewBox="0 0 70.9 70.9"
   style="enable-background:new 0 0 70.9 70.9;"
   xml:space="preserve"
   sodipodi:docname="nemeio-update-ready.svg"
   inkscape:version="0.92.4 (5da689c313, 2019-01-14)"
   inkscape:export-filename="C:\Users\cduperthuy-ext\Documents\ICONES-SVG\Icônes\Good\nemeio-update-ready-256.png"
   inkscape:export-xdpi="346.63"
   inkscape:export-ydpi="346.63"><metadata
   id="metadata3985"><rdf:RDF><cc:Work
       rdf:about=""><dc:format>image/svg+xml</dc:format><dc:type
         rdf:resource="http://purl.org/dc/dcmitype/StillImage" /><dc:title></dc:title></cc:Work></rdf:RDF></metadata><defs
   id="defs3983" /><sodipodi:namedview
   pagecolor="#ffffff"
   bordercolor="#666666"
   borderopacity="1"
   objecttolerance="10"
   gridtolerance="10"
   guidetolerance="10"
   inkscape:pageopacity="0"
   inkscape:pageshadow="2"
   inkscape:window-width="1920"
   inkscape:window-height="1001"
   id="namedview3981"
   showgrid="false"
   inkscape:pagecheckerboard="true"
   inkscape:zoom="13.314527"
   inkscape:cx="31.221383"
   inkscape:cy="33.916179"
   inkscape:window-x="-9"
   inkscape:window-y="-9"
   inkscape:window-maximized="1"
   inkscape:current-layer="Calque_1" />
<style
   type="text/css"
   id="style3974">
	.st0{fill:#E52421;}
	.st1{fill:#FFFFFF;}
</style>

<g
   id="g3989"
   transform="matrix(1.15,0,0,1.15,-7.042498,-6.409999)"><polygon
     id="polygon3976"
     points="13.4,48.6 13.4,54.2 13.4,54.3 13.4,58.3 22.6,58.3 22.6,54.3 22.6,54.2 22.6,48.6 28.4,48.6 18,35.3 7.6,48.6 "
     class="st0"
     style="fill:#e52421" /><path
     id="path3978"
     d="m 60.6,15.2 h -9.3 v 29.4 c 0,2.2 -0.8,3.7 -2.4,4.5 l -0.2,0.1 C 47,49.5 45.6,49.1 44.7,48 44,47.2 43.5,46.1 43.2,44.5 l -4,-19.4 c -0.7,-3.5 -2.2,-6.2 -4.3,-8 -2.2,-1.8 -5.1,-2.7 -8.6,-2.7 -3.9,0 -7.1,1.1 -9.5,3.2 -2.3,2.1 -3.5,4.9 -3.5,8.4 v 13.7 l 4.6,-6 4.7,6 V 28.3 c 0,-2.2 0.8,-3.7 2.4,-4.5 l 0.2,-0.1 c 0.4,-0.1 0.7,-0.1 1.1,-0.1 1.2,0 2.2,0.4 2.9,1.3 0.7,0.8 1.2,2 1.5,3.6 l 3.9,19.2 c 0.7,3.5 2.2,6.2 4.4,8 2.2,1.8 5.1,2.7 8.6,2.7 3.9,0 7.1,-1.1 9.4,-3.2 2.3,-2.1 3.5,-4.9 3.5,-8.4 V 15.2 Z"
     class="st1"
     inkscape:connector-curvature="0"
     style="fill:#ffffff" /></g>
</svg>