<?xml version="1.0" encoding="UTF-8" standalone="no"?>
<!-- Generator: Adobe Illustrator 24.0.0, SVG Export Plug-In . SVG Version: 6.00 Build 0)  -->

<svg
   xmlns:dc="http://purl.org/dc/elements/1.1/"
   xmlns:cc="http://creativecommons.org/ns#"
   xmlns:rdf="http://www.w3.org/1999/02/22-rdf-syntax-ns#"
   xmlns:svg="http://www.w3.org/2000/svg"
   xmlns="http://www.w3.org/2000/svg"
   xmlns:sodipodi="http://sodipodi.sourceforge.net/DTD/sodipodi-0.dtd"
   xmlns:inkscape="http://www.inkscape.org/namespaces/inkscape"
   version="1.1"
   id="Calque_1"
   x="0px"
   y="0px"
   viewBox="0 0 256 256"
   style="enable-background:new 0 0 256 256;"
   xml:space="preserve"
   sodipodi:docname="usb.svg"
   inkscape:version="0.92.4 (5da689c313, 2019-01-14)"
   inkscape:export-filename="C:\Users\cduperthuy-ext\Documents\ICONES-SVG\connexion\Usb-48.png"
   inkscape:export-xdpi="18"
   inkscape:export-ydpi="18"><metadata
   id="metadata19"><rdf:RDF><cc:Work
       rdf:about=""><dc:format>image/svg+xml</dc:format><dc:type
         rdf:resource="http://purl.org/dc/dcmitype/StillImage" /><dc:title /></cc:Work></rdf:RDF></metadata><defs
   id="defs17" /><sodipodi:namedview
   pagecolor="#ffffff"
   bordercolor="#666666"
   borderopacity="1"
   objecttolerance="10"
   gridtolerance="10"
   guidetolerance="10"
   inkscape:pageopacity="0"
   inkscape:pageshadow="2"
   inkscape:window-width="2560"
   inkscape:window-height="1361"
   id="namedview15"
   showgrid="false"
   inkscape:pagecheckerboard="true"
   inkscape:zoom="1.84375"
   inkscape:cx="47.609693"
   inkscape:cy="111.8711"
   inkscape:window-x="1911"
   inkscape:window-y="-9"
   inkscape:window-maximized="1"
   inkscape:current-layer="Calque_1" />
<style
   type="text/css"
   id="style2">
	.st0{fill:#FFFFFF;}
</style>
<g
   id="g12"
   transform="matrix(1.7490062,0,0,1.7490062,-94.406736,-95.872794)">
	<path
   class="st0"
   d="m 156.8,91.9 h -4.9 V 67 c 0,-1.2 -1.1,-2.1 -2.5,-2.1 h -44.3 c -1.4,0 -2.5,1 -2.5,2.1 v 24.9 h -4.9 c -1.4,0 -2.5,1 -2.5,2.1 v 63.8 c 0,13.7 11.5,25 26.6,27.3 v 6 h 9.8 v -5.9 c 15.6,-1.9 27.5,-13.4 27.5,-27.4 V 94 c 0.2,-1.2 -0.9,-2.1 -2.3,-2.1 z M 107.6,69.1 H 147 v 22.8 h -39.4 z m 46.8,88.7 c 0,12.9 -12.1,23.4 -27.1,23.4 -15,0 -27.1,-10.5 -27.1,-23.4 V 96.1 h 54.2 z"
   id="path4"
   inkscape:connector-curvature="0"
   style="fill:#ffffff" />
	<path
   class="st0"
   d="m 139.6,74.7 h -7.4 c -1.4,0 -2.5,1.1 -2.5,2.5 v 7.4 c 0,1.4 1.1,2.5 2.5,2.5 h 7.4 c 1.4,0 2.5,-1.1 2.5,-2.5 v -7.4 c 0,-1.4 -1.1,-2.5 -2.5,-2.5 z m -2.4,7.4 h -2.5 v -2.5 h 2.5 z"
   id="path6"
   inkscape:connector-curvature="0"
   style="fill:#ffffff" />
	<path
   class="st0"
   d="M 122.4,74.7 H 115 c -1.4,0 -2.5,1.1 -2.5,2.5 v 7.4 c 0,1.4 1.1,2.5 2.5,2.5 h 7.4 c 1.4,0 2.5,-1.1 2.5,-2.5 v -7.4 c -0.1,-1.4 -1.2,-2.5 -2.5,-2.5 z m -2.5,7.4 h -2.5 v -2.5 h 2.5 z"
   id="path8"
   inkscape:connector-curvature="0"
   style="fill:#ffffff" />
	<path
   class="st0"
   d="m 107.6,136.2 h 2.5 v 7.4 c 0,0.9 0.5,1.8 1.4,2.2 l 13.4,6.7 v 20.6 c 0,1.4 1.1,2.5 2.5,2.5 1.4,0 2.5,-1.1 2.5,-2.5 v -5.9 l 13.4,-6.7 c 0.8,-0.4 1.4,-1.3 1.4,-2.2 V 148 c 2.9,-1 4.9,-3.8 4.9,-6.9 0,-4.1 -3.3,-7.4 -7.4,-7.4 -4.1,0 -7.4,3.3 -7.4,7.4 0,3.1 2,5.9 4.9,7 v 8.8 l -9.8,4.9 v -51.6 l 5.6,5.6 c 1,0.9 2.5,0.9 3.5,-0.1 0.9,-1 0.9,-2.5 0,-3.4 l -9.8,-9.8 c -1,-1 -2.5,-1 -3.5,0 l -9.8,9.8 c -0.9,1 -0.9,2.5 0.1,3.5 1,0.9 2.5,0.9 3.4,0 l 5.6,-5.6 V 147 l -9.8,-4.9 v -5.9 h 2.5 c 1.4,0 2.5,-1.1 2.5,-2.5 v -7.4 c 0,-1.4 -1.1,-2.5 -2.5,-2.5 h -9.8 c -1.4,0 -2.5,1.1 -2.5,2.5 v 7.4 c -0.2,1.4 0.9,2.5 2.2,2.5 z m 34.5,2.5 c 1.4,0 2.5,1.1 2.5,2.5 0,1.4 -1.1,2.5 -2.5,2.5 -1.4,0 -2.5,-1.1 -2.5,-2.5 0,-1.4 1.1,-2.5 2.5,-2.5 z m -32,-9.9 h 4.9 v 2.5 h -4.9 z"
   id="path10"
   inkscape:connector-curvature="0"
   style="fill:#ffffff" />
</g>
</svg>