<?xml version="1.0" encoding="UTF-8" standalone="no"?>
<!-- Generator: Adobe Illustrator 24.0.0, SVG Export Plug-In . SVG Version: 6.00 Build 0)  -->

<svg
   xmlns:dc="http://purl.org/dc/elements/1.1/"
   xmlns:cc="http://creativecommons.org/ns#"
   xmlns:rdf="http://www.w3.org/1999/02/22-rdf-syntax-ns#"
   xmlns:svg="http://www.w3.org/2000/svg"
   xmlns="http://www.w3.org/2000/svg"
   xmlns:xlink="http://www.w3.org/1999/xlink"
   xmlns:sodipodi="http://sodipodi.sourceforge.net/DTD/sodipodi-0.dtd"
   xmlns:inkscape="http://www.inkscape.org/namespaces/inkscape"
   version="1.1"
   id="Calque_1"
   x="0px"
   y="0px"
   viewBox="0 0 60 60"
   style="enable-background:new 0 0 60 60;"
   xml:space="preserve"
   sodipodi:docname="version.svg"
   inkscape:version="0.92.4 (5da689c313, 2019-01-14)"
   inkscape:export-filename="C:\DEV\b2047-ldlc-karmeliet-desktop-app\Resources\Version-48.png"
   inkscape:export-xdpi="76.800003"
   inkscape:export-ydpi="76.800003"><metadata
   id="metadata19"><rdf:RDF><cc:Work
       rdf:about=""><dc:format>image/svg+xml</dc:format><dc:type
         rdf:resource="http://purl.org/dc/dcmitype/StillImage" /><dc:title /></cc:Work></rdf:RDF></metadata><defs
   id="defs17" /><sodipodi:namedview
   pagecolor="#ffffff"
   bordercolor="#666666"
   borderopacity="1"
   objecttolerance="10"
   gridtolerance="10"
   guidetolerance="10"
   inkscape:pageopacity="0"
   inkscape:pageshadow="2"
   inkscape:window-width="1920"
   inkscape:window-height="1001"
   id="namedview15"
   showgrid="false"
   inkscape:pagecheckerboard="true"
   inkscape:zoom="3.9333333"
   inkscape:cx="-14.745763"
   inkscape:cy="30"
   inkscape:window-x="-9"
   inkscape:window-y="-9"
   inkscape:window-maximized="1"
   inkscape:current-layer="Calque_1" />
<style
   type="text/css"
   id="style2">
	.st1{fill:#FFFFFF;}
</style>
<g
   id="g12"
   transform="matrix(2.0554034,0,0,2.0554033,-32.073183,-30.634397)">
	<defs
   id="defs5">
		<rect
   id="SVGID_1_"
   x="16.700001"
   y="16"
   width="27"
   height="27" />
	</defs>
	<clipPath
   id="SVGID_2_">
		<use
   xlink:href="#SVGID_1_"
   style="overflow:visible"
   id="use7"
   x="0"
   y="0"
   width="100%"
   height="100%" />
	</clipPath>
	<g
   id="ICON-Settings"
   transform="translate(18,556)"
   class="st0">
		<path
   id="ICON-Settings-2"
   class="st1"
   d="M 13.4,-513 H 11 c -0.8,0 -1.5,-0.6 -1.6,-1.4 l -0.3,-1.9 c -0.6,-0.2 -1.2,-0.4 -1.8,-0.7 l -1.6,1.1 c -0.7,0.5 -1.6,0.4 -2.1,-0.2 l -1.7,-1.7 c -0.6,-0.6 -0.7,-1.5 -0.2,-2.1 l 1.1,-1.5 C 2.5,-522 2.2,-522.6 2,-523.2 l -1.9,-0.3 c -0.8,-0.1 -1.4,-0.8 -1.4,-1.7 v -2.4 c 0,-0.8 0.6,-1.5 1.4,-1.6 l 1.9,-0.3 c 0.2,-0.6 0.4,-1.3 0.7,-1.8 L 1.6,-533 c -0.5,-0.7 -0.4,-1.6 0.2,-2.1 l 1.7,-1.7 c 0.6,-0.6 1.5,-0.7 2.1,-0.2 l 1.6,1.1 c 0.6,-0.3 1.2,-0.6 1.8,-0.8 l 0.3,-1.9 c 0.1,-0.8 0.8,-1.4 1.6,-1.4 h 2.4 c 0.8,0 1.5,0.6 1.6,1.4 l 0.3,1.9 c 0.7,0.2 1.3,0.5 1.9,0.8 l 1.6,-1.1 c 0.7,-0.5 1.6,-0.4 2.1,0.2 l 1.7,1.7 c 0.6,0.6 0.7,1.5 0.2,2.1 l -1.1,1.6 c 0.3,0.6 0.6,1.2 0.8,1.8 l 1.9,0.3 c 0.8,0.1 1.4,0.8 1.4,1.6 v 2.4 c 0,0.8 -0.6,1.5 -1.4,1.6 l -1.9,0.3 c -0.2,0.6 -0.5,1.3 -0.8,1.8 l 1.1,1.6 c 0.5,0.7 0.4,1.6 -0.2,2.1 l -1.7,1.7 c -0.6,0.6 -1.5,0.7 -2.1,0.2 l -1.6,-1.1 c -0.6,0.3 -1.2,0.6 -1.8,0.8 l -0.3,1.9 c -0.1,0.9 -0.8,1.4 -1.6,1.4 z m -6.1,-5.6 c 0.1,0 0.3,0 0.4,0.1 0.7,0.4 1.5,0.7 2.3,0.9 0.3,0.1 0.5,0.3 0.6,0.6 l 0.4,2.4 c 0,0.1 0.1,0.1 0.1,0.1 h 2.4 c 0.1,0 0.1,-0.1 0.1,-0.1 L 14,-517 c 0,-0.3 0.3,-0.5 0.6,-0.6 0.8,-0.2 1.6,-0.5 2.4,-1 0.1,-0.1 0.3,-0.1 0.4,-0.1 0.2,0 0.3,0 0.4,0.1 l 2,1.4 c 0,0 0.1,0 0.1,0 0,0 0.1,0 0.1,0 l 1.7,-1.7 c 0,-0.1 0.1,-0.1 0,-0.2 l -1.4,-2 c -0.2,-0.2 -0.2,-0.6 0,-0.8 0.4,-0.7 0.8,-1.5 1,-2.4 0.1,-0.3 0.3,-0.5 0.6,-0.6 l 2.4,-0.4 c 0.1,0 0.1,-0.1 0.1,-0.1 v -2.4 c 0,-0.1 -0.1,-0.1 -0.1,-0.1 l -2.4,-0.4 c -0.3,0 -0.5,-0.3 -0.6,-0.6 -0.2,-0.8 -0.5,-1.6 -1,-2.4 -0.2,-0.3 -0.1,-0.6 0,-0.8 l 1.4,-2 c 0,-0.1 0,-0.1 0,-0.2 L 20,-536 c 0,0 -0.1,0 -0.1,0 0,0 -0.1,0 -0.1,0 l -1.9,1.4 c -0.1,0.1 -0.3,0.1 -0.4,0.1 -0.1,0 -0.3,0 -0.4,-0.1 -0.8,-0.4 -1.6,-0.8 -2.4,-1 -0.3,-0.1 -0.5,-0.3 -0.6,-0.6 l -0.4,-2.4 c 0,-0.1 -0.1,-0.1 -0.1,-0.1 H 11 c -0.1,0 -0.1,0.1 -0.1,0.1 l -0.4,2.4 c -0.1,0.3 -0.3,0.5 -0.6,0.6 -0.8,0.2 -1.6,0.6 -2.4,1 -0.1,0.1 -0.3,0.1 -0.4,0.1 -0.2,0 -0.3,0 -0.4,-0.1 L 4.8,-536 c 0,0 -0.1,0 -0.1,0 0,0 -0.1,0 -0.1,0 l -1.7,2 c 0,0.1 -0.1,0.1 0,0.2 l 1.4,2 c 0.2,0.2 0.2,0.6 0,0.8 -0.4,0.7 -0.8,1.5 -1,2.4 -0.1,0.3 -0.3,0.5 -0.6,0.6 l -2.4,0.4 c -0.1,0 -0.1,0.1 -0.1,0.1 v 2.4 c 0,0.1 0.1,0.1 0.1,0.1 l 2.4,0.4 c 0.3,0.1 0.5,0.3 0.6,0.6 0.2,0.8 0.6,1.6 1,2.4 0.2,0.3 0.1,0.6 0,0.8 L 3,-519 c 0,0.1 0,0.1 0,0.2 l 1.7,1.7 c 0,0 0.1,0 0.1,0 0,0 0.1,0 0.1,0 l 2,-1.4 c 0,-0.1 0.2,-0.1 0.4,-0.1 z m 4.9,-2 c -3.2,0 -5.8,-2.6 -5.8,-5.8 0,-3.2 2.6,-5.8 5.8,-5.8 3.2,0 5.8,2.6 5.8,5.8 0.1,3.2 -2.5,5.8 -5.8,5.8 z m 0,-10.2 c -2.4,0 -4.3,1.9 -4.3,4.3 0,2.4 1.9,4.3 4.3,4.3 2.4,0 4.3,-1.9 4.3,-4.3 v 0 c 0,-2.3 -1.9,-4.3 -4.3,-4.3 z"
   inkscape:connector-curvature="0"
   style="fill:#ffffff" />
	</g>
</g>
</svg>